<svg width="24" height="25" viewBox="0 0 24 25" fill="none" xmlns="http://www.w3.org/2000/svg">
<path fill-rule="evenodd" clip-rule="evenodd" d="M12.474 17.0327C12.6246 17.0327 12.7753 17.0688 12.9127 17.1398L16.4838 19.0064L15.8044 15.0677C15.7504 14.7588 15.8537 14.4442 16.0792 14.2253L18.9558 11.4435L14.9735 10.8636C14.6655 10.8191 14.3993 10.6268 14.2609 10.3482L12.474 6.75342L10.687 10.3482C10.5487 10.6268 10.2824 10.8191 9.97449 10.8636L5.99219 11.4435L8.86877 14.2253C9.09427 14.4442 9.19755 14.7588 9.14354 15.0677L8.46419 19.0064L12.0353 17.1398C12.1727 17.0688 12.3233 17.0327 12.474 17.0327ZM17.7444 21.6804C17.5938 21.6804 17.4431 21.6453 17.3057 21.5733L12.4745 19.0492L7.64322 21.5733C7.32297 21.7401 6.9364 21.7107 6.64741 21.4985C6.35558 21.2862 6.21062 20.9271 6.27126 20.5718L7.19222 15.2393L3.28856 11.4636C3.028 11.2125 2.93514 10.8354 3.046 10.4915C3.15591 10.1475 3.45342 9.8974 3.81062 9.84528L9.21227 9.06076L11.6255 4.20392C11.9458 3.55963 13.0032 3.55963 13.3234 4.20392L15.7367 9.06076L21.1383 9.84528C21.4955 9.8974 21.7931 10.1475 21.903 10.4915C22.0138 10.8354 21.921 11.2125 21.6604 11.4636L17.7567 15.2393L18.6777 20.5718C18.7383 20.9271 18.5934 21.2862 18.3015 21.4985C18.1376 21.6197 17.9415 21.6804 17.7444 21.6804Z" fill="#9295A6"/>
</svg>
