<svg width="27" height="27" viewBox="0 0 27 27" fill="none" xmlns="http://www.w3.org/2000/svg">
<path d="M26.4568 16.8645C24.7199 23.8325 17.6602 28.0682 10.7021 26.3312C3.73392 24.5943 -0.501842 17.5349 1.23518 10.5769C2.9721 3.60892 10.0216 -0.626841 16.9898 1.11018C23.9478 2.83695 28.1938 9.89635 26.4568 16.8645Z" fill="white"/>
<path d="M20.0359 11.101C20.2898 9.37441 18.9797 8.44004 17.1719 7.82051L17.7609 5.47441L16.3391 5.11895L15.7703 7.4041C15.3945 7.3127 15.0086 7.22129 14.6227 7.14004L15.1914 4.84473L13.7695 4.48926L13.1906 6.82519C12.8758 6.7541 12.5711 6.68301 12.2766 6.61191V6.60176L10.3062 6.11426L9.93047 7.63769C9.93047 7.63769 10.9867 7.88144 10.9664 7.8916C11.5453 8.03379 11.6469 8.41973 11.6266 8.72441L10.9562 11.3955C10.9969 11.4057 11.0477 11.4158 11.1086 11.4463C11.0578 11.4361 11.007 11.426 10.9562 11.4057L10.0219 15.1432C9.95078 15.3158 9.76797 15.5799 9.37187 15.4783C9.38203 15.4986 8.33594 15.2244 8.33594 15.2244L7.625 16.8596L9.48359 17.3268C9.82891 17.4182 10.1641 17.4994 10.4992 17.5908L9.91016 19.9572L11.332 20.3127L11.9211 17.9666C12.307 18.0682 12.693 18.1697 13.0586 18.2611L12.4797 20.5971L13.9016 20.9525L14.4906 18.5861C16.9281 19.0432 18.7563 18.8603 19.518 16.6564C20.1375 14.8893 19.4875 13.8635 18.2078 13.1932C19.1523 12.9799 19.8531 12.3604 20.0359 11.101ZM16.7758 15.6713C16.3391 17.4385 13.3531 16.4838 12.3883 16.24L13.1703 13.1018C14.1352 13.3455 17.243 13.8229 16.7758 15.6713ZM17.2227 11.0705C16.8164 12.6854 14.3383 11.8627 13.5359 11.6596L14.2469 8.81582C15.0492 9.01894 17.6391 9.39473 17.2227 11.0705Z" fill="#0D0D2B"/>
</svg>
