<svg width="49" height="28" viewBox="0 0 49 28" fill="none" xmlns="http://www.w3.org/2000/svg">
<g clip-path="url(#clip0_1451_41935)">
<path d="M19.0371 3.99707H30.2967V24.6015H19.0371V3.99707Z" fill="#BDBDBD"/>
<path d="M19.7523 14.2996C19.7523 10.1133 21.6825 6.40004 24.6492 3.99735C22.4689 2.25 19.7166 1.19434 16.7141 1.19434C9.60057 1.19434 3.8457 7.05523 3.8457 14.2996C3.8457 21.5439 9.60057 27.405 16.7139 27.405C19.7165 27.405 22.4688 26.3493 24.6492 24.6018C21.6825 22.2356 19.7523 18.486 19.7523 14.2996Z" fill="#828282"/>
<path d="M45.4891 14.2996C45.4891 21.5439 39.7342 27.405 32.6209 27.405C29.6183 27.405 26.866 26.3493 24.6855 24.6018C27.6881 22.1992 29.5826 18.486 29.5826 14.2996C29.5826 10.1133 27.6523 6.40004 24.6855 3.99735C26.8658 2.25 29.6183 1.19434 32.6209 1.19434C39.7342 1.19434 45.4892 7.09172 45.4892 14.2996H45.4891Z" fill="white"/>
</g>
<defs>
<clipPath id="clip0_1451_41935">
<rect width="48" height="27" fill="white" transform="translate(0.845703 0.720703)"/>
</clipPath>
</defs>
</svg>
