<svg width="52" height="17" viewBox="0 0 52 17" fill="none" xmlns="http://www.w3.org/2000/svg">
<path d="M35.0326 0.720703H31.0354C30.8003 0.720703 30.5652 0.989607 30.4476 1.25851L28.8018 13.0903C28.8018 13.3592 28.9193 13.4936 29.1544 13.4936H31.2706C31.5057 13.4936 31.6232 13.3592 31.6232 13.0903L32.0935 9.72898C32.0935 9.46008 32.3286 9.19118 32.6813 9.19118H33.9745C36.6784 9.19118 38.2067 7.71221 38.5594 4.75426C38.7945 3.54419 38.5594 2.46858 38.0892 1.79632C37.3838 1.12406 36.3257 0.720703 35.0326 0.720703ZM35.5028 5.15762C35.2677 6.77104 34.2096 6.77104 33.1516 6.77104H32.4462L32.9164 3.67865C32.9164 3.5442 33.034 3.40974 33.2691 3.40974H33.5042C34.2096 3.40974 34.915 3.40974 35.2677 3.94755C35.5028 4.082 35.5028 4.48536 35.5028 5.15762Z" fill="white"/>
<path d="M6.23077 0.720703H2.23367C1.99855 0.720703 1.76342 0.989607 1.64586 1.25851L0 13.0903C0 13.3592 0.117563 13.4936 0.352686 13.4936H2.23367C2.46879 13.4936 2.70392 13.2247 2.82148 12.9558L3.29173 9.72898C3.29173 9.46008 3.52685 9.19118 3.87954 9.19118H5.17271C7.87663 9.19118 9.40493 7.71221 9.75762 4.75426C9.99274 3.54419 9.75762 2.46858 9.28737 1.79632C8.582 1.12406 7.64151 0.720703 6.23077 0.720703ZM6.70101 5.15762C6.46589 6.77104 5.40784 6.77104 4.34978 6.77104H3.76197L4.23222 3.67865C4.23222 3.5442 4.34978 3.40974 4.5849 3.40974H4.82003C5.5254 3.40974 6.23077 3.40974 6.58345 3.94755C6.70101 4.082 6.81858 4.48536 6.70101 5.15762Z" fill="white"/>
<path d="M18.3388 5.02281H16.4578C16.3402 5.02281 16.1051 5.15726 16.1051 5.29172L15.9875 5.96398L15.87 5.69507C15.3997 5.02281 14.5768 4.75391 13.6363 4.75391C11.5202 4.75391 9.63922 6.63624 9.28654 9.19084C9.05142 10.5354 9.4041 11.7454 9.99191 12.5521C10.5797 13.3589 11.4026 13.6278 12.4607 13.6278C14.2241 13.6278 15.1646 12.4177 15.1646 12.4177L15.0471 13.09C15.0471 13.3589 15.1646 13.4933 15.3997 13.4933H17.1632C17.3983 13.4933 17.6334 13.2244 17.751 12.9555L18.809 5.42617C18.6915 5.29172 18.4563 5.02281 18.3388 5.02281ZM15.6349 9.32529C15.3997 10.5354 14.5768 11.4765 13.4012 11.4765C12.8134 11.4765 12.3431 11.2076 12.108 10.9387C11.8729 10.5354 11.7553 9.99755 11.7553 9.32529C11.8729 8.11522 12.8134 7.17405 13.8714 7.17405C14.4592 7.17405 14.8119 7.44295 15.1646 7.71186C15.5173 8.11522 15.6349 8.78748 15.6349 9.32529Z" fill="white"/>
<path d="M47.0244 5.02477H45.1434C45.0258 5.02477 44.7907 5.15922 44.7907 5.29367L44.6731 5.96593L44.5556 5.69703C44.0853 5.02477 43.2624 4.75586 42.3219 4.75586C40.2058 4.75586 38.3248 6.6382 37.9721 9.19279C37.737 10.5373 38.0896 11.7474 38.6775 12.5541C39.2653 13.3608 40.0882 13.6297 41.1463 13.6297C42.9097 13.6297 43.8502 12.4196 43.8502 12.4196L43.7326 13.0919C43.7326 13.3608 43.8502 13.4953 44.0853 13.4953H45.8488C46.0839 13.4953 46.319 13.2264 46.4366 12.9575L47.4946 5.42812C47.3771 5.29367 47.2595 5.02477 47.0244 5.02477ZM44.3205 9.32724C44.0853 10.5373 43.2624 11.4785 42.0868 11.4785C41.499 11.4785 41.0287 11.2096 40.7936 10.9407C40.5585 10.5373 40.4409 9.9995 40.4409 9.32724C40.5585 8.11717 41.499 7.176 42.557 7.176C43.1448 7.176 43.4975 7.44491 43.8502 7.71381C44.3205 8.11717 44.438 8.78943 44.3205 9.32724Z" fill="white"/>
<path d="M28.5669 5.02344H26.5684C26.3332 5.02344 26.2157 5.15789 26.0981 5.29234L23.5117 9.86369L22.3361 5.56124C22.2186 5.29234 22.101 5.15789 21.7483 5.15789H19.8673C19.6322 5.15789 19.5146 5.42679 19.5146 5.6957L21.6308 12.8216L19.6322 16.0485C19.5146 16.3174 19.6322 16.7207 19.8673 16.7207H21.7483C21.9834 16.7207 22.101 16.5863 22.2186 16.4518L28.6845 5.83015C29.0371 5.42679 28.802 5.02344 28.5669 5.02344Z" fill="white"/>
<path d="M49.2591 1.12438L47.6133 13.225C47.6133 13.4939 47.7308 13.6284 47.966 13.6284H49.6118C49.847 13.6284 50.0821 13.3595 50.1996 13.0906L51.8455 1.25883C51.8455 0.989931 51.7279 0.85548 51.4928 0.85548H49.6118C49.4943 0.721029 49.3767 0.855481 49.2591 1.12438Z" fill="white"/>
</svg>
