<svg width="40" height="41" viewBox="0 0 40 41" fill="none" xmlns="http://www.w3.org/2000/svg">
<path fill-rule="evenodd" clip-rule="evenodd" d="M25.8037 10.4529H12.8573C12.118 10.4529 11.518 11.0529 11.518 11.7921C11.518 12.5314 12.118 13.1314 12.8573 13.1314H27.143C27.143 13.1314 28.4823 13.0261 28.4823 11.7689V10.0064C28.4823 8.70464 27.9644 7.45463 27.0448 6.5332C26.1234 5.61356 24.8734 5.0957 23.5716 5.0957H5.71443C3.00192 5.0957 0.803711 7.29392 0.803711 10.0064V13.5779C0.803711 14.3171 1.40371 14.9171 2.143 14.9171C2.88228 14.9171 3.48228 14.3171 3.48228 13.5779C3.48228 13.5779 3.48228 11.7921 3.48228 10.0064C3.48228 8.77428 4.48228 7.77428 5.71443 7.77428H23.5716C24.1644 7.77428 24.7305 8.00999 25.1501 8.42785C25.568 8.84749 25.8037 9.41356 25.8037 10.0064V10.4529Z" fill="#5367FF"/>
<path fill-rule="evenodd" clip-rule="evenodd" d="M35.6251 30.9884H30.7144C29.4126 30.9884 28.1626 30.4705 27.2412 29.5509C26.3216 28.6294 25.8037 27.3794 25.8037 26.0776C25.8037 24.5223 25.8037 22.2759 25.8037 20.7205C25.8037 19.4187 26.3216 18.1687 27.2412 17.2473C28.1626 16.3276 29.4126 15.8098 30.7144 15.8098H35.6251V15.3634C35.6251 12.6509 33.4269 10.4526 30.7144 10.4526H2.143C1.40371 10.4526 0.803711 11.0526 0.803711 11.7919V30.9884C0.803711 32.2902 1.32157 33.5402 2.24121 34.4616C3.16264 35.3812 4.41264 35.8991 5.71442 35.8991H30.7144C32.0162 35.8991 33.2662 35.3812 34.1876 34.4616C35.1073 33.5402 35.6251 32.2902 35.6251 30.9884ZM14.643 14.9169C9.96085 14.9169 6.16085 18.7169 6.16085 23.3991C6.16085 28.0812 9.96085 31.8812 14.643 31.8812C19.3251 31.8812 23.1251 28.0812 23.1251 23.3991C23.1251 18.7169 19.3251 14.9169 14.643 14.9169ZM14.643 17.5955C17.8466 17.5955 20.4466 20.1955 20.4466 23.3991C20.4466 26.6026 17.8466 29.2026 14.643 29.2026C11.4394 29.2026 8.83942 26.6026 8.83942 23.3991C8.83942 20.1955 11.4394 17.5955 14.643 17.5955ZM15.9823 22.0598V19.8276C15.9823 19.0884 15.3823 18.4884 14.643 18.4884C13.9037 18.4884 13.3037 19.0884 13.3037 19.8276V22.0598H11.0716C10.3323 22.0598 9.73228 22.6598 9.73228 23.3991C9.73228 24.1384 10.3323 24.7384 11.0716 24.7384H13.3037V26.9705C13.3037 27.7098 13.9037 28.3098 14.643 28.3098C15.3823 28.3098 15.9823 27.7098 15.9823 26.9705V24.7384H18.2144C18.9537 24.7384 19.5537 24.1384 19.5537 23.3991C19.5537 22.6598 18.9537 22.0598 18.2144 22.0598H15.9823Z" fill="#5367FF"/>
<path fill-rule="evenodd" clip-rule="evenodd" d="M39.197 20.7207C39.197 19.8921 38.8684 19.0975 38.2809 18.5118C37.6952 17.9243 36.9005 17.5957 36.072 17.5957C34.5166 17.5957 32.2702 17.5957 30.7148 17.5957C29.8863 17.5957 29.0916 17.9243 28.5059 18.5118C27.9184 19.0975 27.5898 19.8921 27.5898 20.7207V26.0778C27.5898 26.9064 27.9184 27.7011 28.5059 28.2868C29.0916 28.8743 29.8863 29.2028 30.7148 29.2028H36.072C36.9005 29.2028 37.6952 28.8743 38.2809 28.2868C38.8684 27.7011 39.197 26.9064 39.197 26.0778V20.7207Z" fill="#5367FF"/>
</svg>
