<svg width="57" height="54" viewBox="0 0 57 54" fill="none" xmlns="http://www.w3.org/2000/svg">
<g clip-path="url(#clip0_1050_95673)">
<path d="M31.5996 2.64404C23.1065 2.64404 15.5896 6.60587 11.0396 12.6517C11.9813 13.2257 12.8992 14.0129 13.7869 15.0249C17.1813 10.2822 22.6697 6.95478 29.0199 6.23948L31.5993 10.318L34.1786 6.23939C43.9399 7.33864 51.6988 14.5884 52.8758 23.7094L48.5102 26.12L52.8758 28.5306C52.0891 34.6287 48.3516 39.8787 43.0493 43.0253C43.387 43.7447 43.5773 44.4803 43.6109 45.2387C43.6357 45.793 43.5745 46.3166 43.4515 46.8138C51.3441 42.851 56.7236 35.0628 56.7236 26.1204C56.7236 13.1752 45.4534 2.64404 31.5996 2.64404ZM38.011 41.3073C32.2193 36.9579 30.5998 39.0959 27.9719 41.5511C26.1372 43.2661 21.4945 39.6849 17.4856 35.9388C13.4765 32.1922 9.6448 27.8546 11.4793 26.14C14.1074 23.6847 16.3947 22.1705 11.7388 16.7601C7.08444 11.3477 3.98172 15.503 1.4361 17.8818C-1.50282 20.6271 1.28123 30.8574 12.1018 40.9699C22.9238 51.0811 33.8721 53.6808 36.8093 50.9366C39.3546 48.5577 43.8028 45.6588 38.011 41.3073ZM20.3719 29.7943C20.3719 24.9838 26.399 24.1268 26.399 22.2496C26.399 21.3387 25.6186 20.9563 24.8969 20.9563C23.5705 20.9563 22.83 22.3408 22.83 22.3408L20.2946 20.7555C20.2946 20.7555 21.5819 17.9491 25.2093 17.9491C27.491 17.9491 29.9678 19.1702 29.9678 21.9401C29.9678 26.0041 24.3508 26.788 24.2532 28.4645H30.1826V31.1979H20.5282C20.4305 30.6878 20.3719 30.2324 20.3719 29.7943ZM31.6084 26.1137L36.9919 18.1674H41.1654V25.4028H42.8229V28.0449H41.1654V31.1981H37.7909V28.0449H31.6085V26.1137H31.6084ZM37.7908 25.4027V22.4868C37.7908 21.7759 37.908 21.0285 37.908 21.0285H37.8689C37.8689 21.0285 37.5768 21.8307 37.1863 22.3774L35.0805 25.3664V25.4029L37.7908 25.4027Z" fill="#5367FF"/>
</g>
<defs>
<clipPath id="clip0_1050_95673">
<rect width="56.383" height="52.6854" fill="white" transform="translate(0.340576 0.958984)"/>
</clipPath>
</defs>
</svg>
