<svg width="50" height="51" viewBox="0 0 50 51" fill="none" xmlns="http://www.w3.org/2000/svg">
<path d="M0 25.7207C0 11.9136 11.1929 0.720703 25 0.720703V0.720703C38.8071 0.720703 50 11.9136 50 25.7207V25.7207C50 39.5278 38.8071 50.7207 25 50.7207V50.7207C11.1929 50.7207 0 39.5278 0 25.7207V25.7207Z" fill="#F3BA2F"/>
<path d="M25.0018 20.8634L28.3413 24.2026L30.163 22.3815L25.0018 17.2207L19.8405 22.3815L21.6623 24.2026L25.0018 20.8634Z" fill="#F1F2F2"/>
<path d="M25.0018 30.5775L21.6623 27.2383L19.8405 29.0594L25.0018 34.2202L30.163 29.0594L28.3413 27.2383L25.0018 30.5775Z" fill="#F1F2F2"/>
<path d="M23.1774 25.7207L24.999 23.8993L26.8206 25.7207L24.999 27.5421L23.1774 25.7207Z" fill="#F1F2F2"/>
<path d="M29.8571 25.7217L31.6787 23.9003L33.5003 25.7217L31.6787 27.5431L29.8571 25.7217Z" fill="#F1F2F2"/>
<path d="M16.4997 25.7197L18.3213 23.8983L20.1429 25.7197L18.3213 27.5411L16.4997 25.7197Z" fill="#F1F2F2"/>
</svg>
