<svg width="50" height="51" viewBox="0 0 50 51" fill="none" xmlns="http://www.w3.org/2000/svg">
<path d="M0 25.7207C0 11.9136 11.1929 0.720703 25 0.720703C38.8071 0.720703 50 11.9136 50 25.7207C50 39.5278 38.8071 50.7207 25 50.7207C11.1929 50.7207 0 39.5278 0 25.7207Z" fill="#F7931A"/>
<path fill-rule="evenodd" clip-rule="evenodd" d="M23.7086 26.9555L26.4107 26.0746C27.6718 25.6635 28.6964 26.2595 29.0579 27.4702C29.3417 28.3409 29.2058 29.2488 28.5831 29.784C28.3521 29.9921 27.9715 30.1493 27.6413 30.257L25.0592 31.0987L23.7086 26.9555ZM25.2899 20.395C25.9282 20.519 26.3942 21.0314 26.6193 21.7219C26.9716 22.8028 26.5858 23.7589 25.505 24.1113L23.043 24.9139L21.8587 21.281L24.0204 20.5762C24.5008 20.4197 24.9408 20.3427 25.2899 20.395ZM28.5569 32.2503C29.0137 33.6515 29.242 34.3521 29.242 34.3521C29.242 34.3521 28.7716 34.5054 27.8309 34.8121L27.1457 32.7104L25.6746 33.1899C26.1313 34.5911 26.3597 35.2917 26.3597 35.2917C26.3597 35.2917 25.8893 35.445 24.9486 35.7517L24.2635 33.65C22.3819 34.2633 21.4412 34.57 21.4412 34.57C21.4412 34.57 21.2324 33.9295 20.8148 32.6486L21.6855 32.3647C22.1358 32.2179 22.3486 31.7499 22.2116 31.3296L19.4417 22.8329C19.2949 22.3825 18.827 22.1697 18.4067 22.3068C17.8262 22.496 17.536 22.5906 17.536 22.5906C17.536 22.5906 17.3272 21.9501 16.9095 20.669L19.7318 19.749C19.2751 18.3479 19.0467 17.6473 19.0467 17.6473C19.0467 17.6473 19.5171 17.494 20.4578 17.1873L21.1429 19.289L22.6141 18.8094C22.1573 17.4083 21.9289 16.7077 21.9289 16.7077C21.9289 16.7077 22.3993 16.5544 23.3401 16.2477L24.035 18.3793C24.7654 18.1745 25.3652 18.0786 26.014 18.1329C27.4315 18.2021 28.684 19.0892 29.193 20.6505C29.6236 21.9716 29.3754 23.2481 28.4505 24.1807C30.1781 24.1822 31.3091 25.3081 31.7887 26.7793C32.3753 28.6805 31.5645 30.4727 30.2199 31.4425C29.6782 31.8184 29.1574 32.0546 28.5569 32.2503Z" fill="white"/>
</svg>
