<svg width="57" height="54" viewBox="0 0 57 54" fill="none" xmlns="http://www.w3.org/2000/svg">
<path d="M22.6587 26.7794V48.7317H10.3249C8.38144 48.7317 6.80095 47.2548 6.80095 45.4388V26.6686C7.18036 26.741 7.57328 26.7794 7.9756 26.7794H22.6587ZM25.0079 26.7794V48.7317H32.0558V26.7794H25.0079ZM49.0882 26.7794H34.4051V48.7317H46.7389C48.6823 48.7317 50.2628 47.2548 50.2628 45.4388V26.6686C49.8834 26.741 49.4905 26.7794 49.0882 26.7794ZM52.6121 16.9009V21.2913C52.6121 23.1073 51.0316 24.5842 49.0882 24.5842H7.9756C6.03215 24.5842 4.45166 23.1073 4.45166 21.2913V16.9009C4.45166 15.0849 6.03215 13.6081 7.9756 13.6081H19.1459C18.4053 12.6894 17.9601 11.5511 17.9601 10.3152C17.9601 7.28909 20.5948 4.82715 23.8333 4.82715C25.7556 4.82715 27.46 5.69865 28.5319 7.03664C29.6043 5.69865 31.3082 4.82715 33.2305 4.82715C36.469 4.82715 39.1037 7.28909 39.1037 10.3152C39.1037 11.5511 38.6585 12.6894 37.9179 13.6081H49.0882C51.0316 13.6081 52.6121 15.0849 52.6121 16.9009ZM29.7065 10.3152V13.6081H33.2305C35.1739 13.6081 36.7544 12.1312 36.7544 10.3152C36.7544 8.49921 35.1739 7.02237 33.2305 7.02237C31.287 7.02237 29.7065 8.49921 29.7065 10.3152ZM23.8333 13.6081H27.3572V10.3152C27.3572 8.49921 25.7768 7.02237 23.8333 7.02237C21.8899 7.02237 20.3094 8.49921 20.3094 10.3152C20.3094 12.1312 21.8899 13.6081 23.8333 13.6081Z" fill="#5367FF"/>
</svg>
