<svg width="25" height="25" viewBox="0 0 25 25" fill="none" xmlns="http://www.w3.org/2000/svg">
<path fill-rule="evenodd" clip-rule="evenodd" d="M7.5 16.7207C7.5 16.1707 7.95 15.7207 8.5 15.7207C9.05 15.7207 9.5 16.1707 9.5 16.7207C9.5 17.2707 9.05 17.7207 8.5 17.7207C7.95 17.7207 7.5 17.2707 7.5 16.7207ZM12.5 15.7207H16.5C17.05 15.7207 17.5 16.1707 17.5 16.7207C17.5 17.2707 17.05 17.7207 16.5 17.7207H12.5C11.95 17.7207 11.5 17.2707 11.5 16.7207C11.5 16.1707 11.95 15.7207 12.5 15.7207ZM18.5 20.7207H6.5C5.949 20.7207 5.5 20.2717 5.5 19.7207V13.7207H19.5V19.7207C19.5 20.2717 19.051 20.7207 18.5 20.7207ZM6.5 6.7207H7.5V7.7207C7.5 8.2707 7.95 8.7207 8.5 8.7207C9.05 8.7207 9.5 8.2707 9.5 7.7207V6.7207H15.5V7.7207C15.5 8.2707 15.95 8.7207 16.5 8.7207C17.05 8.7207 17.5 8.2707 17.5 7.7207V6.7207H18.5C19.051 6.7207 19.5 7.1697 19.5 7.7207V11.7207H5.5V7.7207C5.5 7.1697 5.949 6.7207 6.5 6.7207ZM18.5 4.7207H17.5V3.7207C17.5 3.1707 17.05 2.7207 16.5 2.7207C15.95 2.7207 15.5 3.1707 15.5 3.7207V4.7207H9.5V3.7207C9.5 3.1707 9.05 2.7207 8.5 2.7207C7.95 2.7207 7.5 3.1707 7.5 3.7207V4.7207H6.5C4.846 4.7207 3.5 6.0667 3.5 7.7207V19.7207C3.5 21.3747 4.846 22.7207 6.5 22.7207H18.5C20.154 22.7207 21.5 21.3747 21.5 19.7207V7.7207C21.5 6.0667 20.154 4.7207 18.5 4.7207Z" fill="#9295A6"/>
</svg>
