<svg width="24" height="25" viewBox="0 0 24 25" fill="none" xmlns="http://www.w3.org/2000/svg">
<path fill-rule="evenodd" clip-rule="evenodd" d="M15 19.7207V15.7207H19L19.001 19.7207H15ZM19 13.7207H15C13.897 13.7207 13 14.6177 13 15.7207V19.7207C13 20.8237 13.897 21.7207 15 21.7207H19C20.103 21.7207 21 20.8237 21 19.7207V15.7207C21 14.6177 20.103 13.7207 19 13.7207ZM5 19.7207V15.7207H9L9.001 19.7207H5ZM9 13.7207H5C3.897 13.7207 3 14.6177 3 15.7207V19.7207C3 20.8237 3.897 21.7207 5 21.7207H9C10.103 21.7207 11 20.8237 11 19.7207V15.7207C11 14.6177 10.103 13.7207 9 13.7207ZM15 9.7207V5.7207H19L19.001 9.7207H15ZM19 3.7207H15C13.897 3.7207 13 4.6177 13 5.7207V9.7207C13 10.8237 13.897 11.7207 15 11.7207H19C20.103 11.7207 21 10.8237 21 9.7207V5.7207C21 4.6177 20.103 3.7207 19 3.7207ZM5 9.7207V5.7207H9L9.001 9.7207H5ZM9 3.7207H5C3.897 3.7207 3 4.6177 3 5.7207V9.7207C3 10.8237 3.897 11.7207 5 11.7207H9C10.103 11.7207 11 10.8237 11 9.7207V5.7207C11 4.6177 10.103 3.7207 9 3.7207Z" fill="#9295A6"/>
</svg>
