<svg width="12" height="13" viewBox="0 0 12 13" fill="none" xmlns="http://www.w3.org/2000/svg">
<path fill-rule="evenodd" clip-rule="evenodd" d="M7.41425 6.72095L11.7072 2.42795C12.0982 2.03695 12.0982 1.40495 11.7072 1.01395C11.3162 0.622953 10.6843 0.622953 10.2933 1.01395L6.00025 5.30695L1.70725 1.01395C1.31625 0.622953 0.68425 0.622953 0.29325 1.01395C-0.09775 1.40495 -0.09775 2.03695 0.29325 2.42795L4.58625 6.72095L0.29325 11.014C-0.09775 11.405 -0.09775 12.037 0.29325 12.428C0.48825 12.623 0.74425 12.721 1.00025 12.721C1.25625 12.721 1.51225 12.623 1.70725 12.428L6.00025 8.13495L10.2933 12.428C10.4883 12.623 10.7442 12.721 11.0002 12.721C11.2562 12.721 11.5122 12.623 11.7072 12.428C12.0982 12.037 12.0982 11.405 11.7072 11.014L7.41425 6.72095Z" fill="#9295A6"/>
</svg>
