<svg width="40" height="41" viewBox="0 0 40 41" fill="none" xmlns="http://www.w3.org/2000/svg">
<path d="M19.4 20.7707C24.0392 20.7707 27.8 17.0099 27.8 12.3707C27.8 7.73151 24.0392 3.9707 19.4 3.9707C14.7608 3.9707 11 7.73151 11 12.3707C11 17.0099 14.7608 20.7707 19.4 20.7707Z" fill="#5367FF"/>
<path d="M6.25 39.4709H21.7C19.5051 37.7117 18.0516 35.1917 17.6279 32.4109C17.2042 29.63 17.8412 26.7915 19.4125 24.4584C16.181 24.2979 13.1361 22.8963 10.9125 20.5459C8.41988 21.5981 6.29258 23.3615 4.7964 25.6158C3.30021 27.8701 2.50148 30.5153 2.5 33.2209V35.7209C2.50297 36.7145 2.89901 37.6667 3.60163 38.3693C4.30425 39.0719 5.25635 39.4679 6.25 39.4709V39.4709Z" fill="#5367FF"/>
<path d="M20 30.7207C20 32.4513 20.5132 34.143 21.4746 35.5819C22.4361 37.0209 23.8027 38.1424 25.4015 38.8047C27.0004 39.4669 28.7597 39.6402 30.457 39.3026C32.1544 38.965 33.7135 38.1316 34.9372 36.9079C36.1609 35.6842 36.9943 34.1251 37.3319 32.4277C37.6695 30.7304 37.4962 28.9711 36.8339 27.3722C36.1717 25.7734 35.0502 24.4068 33.6112 23.4453C32.1723 22.4839 30.4806 21.9707 28.75 21.9707C26.4302 21.9733 24.2061 22.8961 22.5657 24.5364C20.9254 26.1768 20.0026 28.4009 20 30.7207V30.7207ZM30 28.2207V29.4707H31.25C31.5815 29.4707 31.8995 29.6024 32.1339 29.8368C32.3683 30.0712 32.5 30.3892 32.5 30.7207C32.5 31.0522 32.3683 31.3702 32.1339 31.6046C31.8995 31.839 31.5815 31.9707 31.25 31.9707H30V33.2207C30 33.5522 29.8683 33.8702 29.6339 34.1046C29.3995 34.339 29.0815 34.4707 28.75 34.4707C28.4185 34.4707 28.1005 34.339 27.8661 34.1046C27.6317 33.8702 27.5 33.5522 27.5 33.2207V31.9707H26.25C25.9185 31.9707 25.6005 31.839 25.3661 31.6046C25.1317 31.3702 25 31.0522 25 30.7207C25 30.3892 25.1317 30.0712 25.3661 29.8368C25.6005 29.6024 25.9185 29.4707 26.25 29.4707H27.5V28.2207C27.5 27.8892 27.6317 27.5712 27.8661 27.3368C28.1005 27.1024 28.4185 26.9707 28.75 26.9707C29.0815 26.9707 29.3995 27.1024 29.6339 27.3368C29.8683 27.5712 30 27.8892 30 28.2207Z" fill="#5367FF"/>
</svg>
