<svg width="24" height="25" viewBox="0 0 24 25" fill="none" xmlns="http://www.w3.org/2000/svg">
<path fill-rule="evenodd" clip-rule="evenodd" d="M18.6669 20.4985H13.1113V10.4985H19.778V19.3874C19.778 20.0007 19.2791 20.4985 18.6669 20.4985ZM4.22266 19.3874V10.4985H10.8893V20.4985H5.33377C4.72155 20.4985 4.22266 20.0007 4.22266 19.3874ZM5.33377 4.94293H18.6671C19.2793 4.94293 19.7782 5.44071 19.7782 6.05404V8.27627H4.22266V6.05404C4.22266 5.44071 4.72155 4.94293 5.33377 4.94293ZM18.6667 2.7207H5.33333C3.49556 2.7207 2 4.21626 2 6.05404V9.18515V9.58959V19.3874C2 21.2251 3.49556 22.7207 5.33333 22.7207H18.6667C20.5044 22.7207 22 21.2251 22 19.3874V9.58959V9.18515V6.05404C22 4.21626 20.5044 2.7207 18.6667 2.7207Z" fill="#9295A6"/>
</svg>
