<svg width="57" height="53" viewBox="0 0 57 53" fill="none" xmlns="http://www.w3.org/2000/svg">
<path d="M43.7389 30.4717C40.8493 30.4717 38.3658 32.0975 37.2786 34.4231H25.8779C25.5783 34.4231 25.2867 34.5186 25.0524 34.6939L23.0015 36.2267C22.4015 36.6754 22.3354 37.5052 22.8587 38.0312L25.5387 40.728C26.0479 41.2409 26.9113 41.2565 27.4416 40.7609L27.7209 40.5C28.2089 40.0439 28.9913 40.0159 29.5154 40.4358L30.1929 40.9783C30.688 41.3751 31.4175 41.3751 31.9126 40.9783L33.1486 39.9888C33.3882 39.797 33.6931 39.6916 34.0084 39.6916H37.2786C38.3658 42.0172 40.8493 43.643 43.7389 43.643C47.5958 43.643 50.7198 40.7774 50.7859 37.1734C50.8537 33.483 47.6725 30.4717 43.7389 30.4717ZM45.7651 38.2921C45.0348 38.2921 44.4428 37.7389 44.4428 37.0573C44.4428 36.3757 45.0348 35.8225 45.7651 35.8225C46.4946 35.8225 47.0866 36.3757 47.0866 37.0573C47.0866 37.7389 46.4946 38.2921 45.7651 38.2921Z" fill="#5367FF"/>
<path d="M14.3145 28.7427C13.6829 28.7427 13.169 29.2228 13.169 29.8128V31.13C13.169 31.7201 13.6829 32.2002 14.3145 32.2002C14.9461 32.2002 15.46 31.7201 15.46 31.13V29.8128C15.46 29.2228 14.9461 28.7427 14.3145 28.7427Z" fill="#5367FF"/>
<path d="M20.6576 21.663C21.2892 21.663 21.8031 21.1829 21.8031 20.5929V19.2757C21.8031 18.6857 21.2892 18.2056 20.6576 18.2056C20.026 18.2056 19.5121 18.6857 19.5121 19.2757V20.5929C19.5121 21.1829 20.026 21.663 20.6576 21.663Z" fill="#5367FF"/>
<path d="M32.9911 5.97461V11.9495H39.9385L32.9911 5.97461Z" fill="#5367FF"/>
<path d="M35.7336 42.1609H34.4975L33.6333 42.8532C32.2135 43.9896 30.1429 44.0413 28.6646 42.9973C27.0408 43.9835 24.8993 43.7147 23.6025 42.4087L20.9216 39.7119C19.353 38.132 19.5555 35.6383 21.3507 34.2985L21.8969 33.8901C21.837 33.7494 21.8026 33.5963 21.8026 33.4349V29.3987C21.2864 29.43 20.778 29.1773 20.5322 28.7188C20.2063 28.1088 20.4706 27.3671 21.1234 27.0616L22.5329 26.4031C23.4071 25.9955 24.4456 26.5862 24.4456 27.5078V32.205C24.9001 32.0404 25.3864 31.9531 25.878 31.9531H28.1457V29.3987C27.6303 29.43 27.1211 29.1773 26.8753 28.7188C26.5493 28.1088 26.8136 27.3671 27.4664 27.0616L28.876 26.4031C29.7501 25.9955 30.7886 26.5862 30.7886 27.5078V31.9531H35.7336C36.9475 30.2903 38.7157 29.0604 40.7437 28.4446V24.2973H44.9172C45.4121 25.2707 46.4735 25.9437 47.7034 25.9437C49.4064 25.9437 50.7869 24.6538 50.7869 23.0625C50.7869 21.4713 49.4064 20.1813 47.7034 20.1813C46.4735 20.1813 45.412 20.8543 44.9172 21.8277H40.7437V19.4404H43.2104C45.3964 19.4404 47.1749 17.7786 47.1749 15.736V10.766C48.2165 10.3035 48.9368 9.31167 48.9368 8.16247C48.9368 6.57121 47.5563 5.28125 45.8534 5.28125C44.1504 5.28125 42.77 6.57121 42.77 8.16247C42.77 9.31175 43.4902 10.3036 44.5319 10.766V15.736C44.5319 16.4168 43.9391 16.9708 43.2104 16.9708H40.7437V14.4188H31.6696C30.9401 14.4188 30.3481 13.8656 30.3481 13.184V5.28125H7.00214C6.27268 5.28125 5.68066 5.83444 5.68066 6.51606V46.1946C5.68066 46.8762 6.27268 47.4294 7.00214 47.4294H39.4222C40.1517 47.4294 40.7437 46.8762 40.7437 46.1946V45.6694C38.7157 45.0528 36.9475 43.8229 35.7336 42.1609ZM27.4664 16.5246L28.876 15.866C29.7501 15.4585 30.7886 16.0491 30.7886 16.9708V22.8979C30.7886 23.5795 30.1966 24.1327 29.4671 24.1327C28.7377 24.1327 28.1457 23.5795 28.1457 22.8979V18.8617C27.6303 18.893 27.1211 18.6402 26.8753 18.1817C26.5493 17.5717 26.8136 16.83 27.4664 16.5246ZM24.4456 19.2758V20.5929C24.4456 22.5447 22.7461 24.1327 20.6573 24.1327C18.5685 24.1327 16.8691 22.5447 16.8691 20.5929V19.2758C16.8691 17.3239 18.5685 15.736 20.6573 15.736C22.7461 15.736 24.4456 17.3239 24.4456 19.2758ZM11.8475 11.0437H17.4858C18.2153 11.0437 18.8073 11.5969 18.8073 12.2785C18.8073 12.9601 18.2153 13.5133 17.4858 13.5133H11.8475C11.1181 13.5133 10.5261 12.9601 10.5261 12.2785C10.5261 11.5969 11.1181 11.0437 11.8475 11.0437ZM10.6653 18.1817C10.3393 17.5717 10.6036 16.83 11.2564 16.5246L12.666 15.866C13.5401 15.4585 14.5786 16.0491 14.5786 16.9708V22.8979C14.5786 23.5795 13.9865 24.1327 13.2571 24.1327C12.5276 24.1327 11.9356 23.5795 11.9356 22.8979V18.8617C11.4194 18.893 10.911 18.6402 10.6653 18.1817ZM18.1025 31.1299C18.1025 33.0818 16.4031 34.6697 14.3143 34.6697C12.2255 34.6697 10.5261 33.0818 10.5261 31.1299V29.8128C10.5261 27.861 12.2255 26.273 14.3143 26.273C16.4031 26.273 18.1025 27.861 18.1025 29.8128V31.1299Z" fill="#5367FF"/>
</svg>
