<svg width="57" height="54" viewBox="0 0 57 54" fill="none" xmlns="http://www.w3.org/2000/svg">
<path d="M55.4934 38.1837C55.259 37.5637 54.7719 37.0555 54.1382 36.7697C53.5045 36.4839 52.7756 36.4438 52.1104 36.658L44.7806 38.7764C42.9247 40.3569 42.2199 39.9508 28.6175 39.9508C28.306 39.9508 28.0072 39.8352 27.7869 39.6293C27.5666 39.4235 27.4428 39.1443 27.4428 38.8532C27.4428 38.5621 27.5666 38.2829 27.7869 38.0771C28.0072 37.8712 28.306 37.7556 28.6175 37.7556C42.7132 37.7556 42.2316 38.008 43.2653 37.0421C43.6591 36.6356 43.8805 36.1087 43.8879 35.5604C43.8879 34.9782 43.6404 34.4198 43.1998 34.0081C42.7592 33.5964 42.1617 33.3651 41.5386 33.3651H28.9699C27.3371 33.3651 25.9745 31.1699 21.2172 31.1699H13.3471V42.607L14.8624 43.4083C19.1723 45.73 23.9933 47.1002 28.9568 47.4141C33.9203 47.728 38.8948 46.9773 43.5002 45.2194L54.072 41.235C54.6716 40.9815 55.1489 40.5289 55.4115 39.9651C55.6742 39.4013 55.7033 38.7664 55.4934 38.1837Z" fill="#5367FF"/>
<path d="M1.60028 45.4388H10.9974V28.9746H1.60028V45.4388ZM5.21819 40.6313C5.2845 40.4811 5.38565 40.3465 5.51437 40.2373C5.64308 40.1281 5.79613 40.0469 5.96248 39.9997C6.12884 39.9524 6.30434 39.9403 6.47632 39.9641C6.64831 39.9879 6.81249 40.0471 6.95702 40.1374C7.10155 40.2278 7.22282 40.3469 7.31208 40.4863C7.40134 40.6258 7.45637 40.7819 7.4732 40.9437C7.49002 41.1054 7.46822 41.2685 7.40936 41.4214C7.35051 41.5743 7.25607 41.713 7.13286 41.8277C6.94054 42.0066 6.68784 42.1178 6.41772 42.1423C6.14759 42.1669 5.87671 42.1032 5.6511 41.9623C5.4255 41.8213 5.2591 41.6117 5.18018 41.369C5.10126 41.1264 5.11469 40.8657 5.21819 40.6313Z" fill="#5367FF"/>
<path d="M36.8393 27.8771C39.1625 27.8771 41.4336 27.2333 43.3653 26.0273C45.297 24.8212 46.8025 23.1069 47.6916 21.1013C48.5807 19.0957 48.8133 16.8888 48.36 14.7596C47.9068 12.6304 46.7881 10.6747 45.1453 9.13964C43.5025 7.6046 41.4095 6.55923 39.1309 6.13571C36.8523 5.7122 34.4905 5.92956 32.3441 6.76032C30.1977 7.59108 28.3632 8.99791 27.0725 10.8029C25.7818 12.6079 25.0928 14.7301 25.0928 16.9009C25.0928 19.812 26.3304 22.6038 28.5333 24.6622C30.7362 26.7207 33.7239 27.8771 36.8393 27.8771ZM38.0139 17.9986H35.6646C34.73 17.9986 33.8337 17.6516 33.1728 17.0341C32.512 16.4166 32.1407 15.579 32.1407 14.7057C32.1407 13.8324 32.512 12.9949 33.1728 12.3773C33.8337 11.7598 34.73 11.4129 35.6646 11.4129V10.3153C35.6646 10.0242 35.7884 9.74497 36.0087 9.53913C36.229 9.33329 36.5278 9.21765 36.8393 9.21765C37.1508 9.21765 37.4496 9.33329 37.6699 9.53913C37.8902 9.74497 38.0139 10.0242 38.0139 10.3153V11.4129H40.3632C40.6748 11.4129 40.9735 11.5285 41.1938 11.7344C41.4141 11.9402 41.5379 12.2194 41.5379 12.5105C41.5379 12.8016 41.4141 13.0808 41.1938 13.2866C40.9735 13.4925 40.6748 13.6081 40.3632 13.6081H35.6646C35.3531 13.6081 35.0543 13.7237 34.834 13.9296C34.6138 14.1354 34.49 14.4146 34.49 14.7057C34.49 14.9968 34.6138 15.276 34.834 15.4818C35.0543 15.6877 35.3531 15.8033 35.6646 15.8033H38.0139C38.9485 15.8033 39.8449 16.1503 40.5057 16.7678C41.1666 17.3853 41.5379 18.2229 41.5379 19.0962C41.5379 19.9695 41.1666 20.807 40.5057 21.4246C39.8449 22.0421 38.9485 22.389 38.0139 22.389V23.4866C38.0139 23.7777 37.8902 24.0569 37.6699 24.2627C37.4496 24.4686 37.1508 24.5842 36.8393 24.5842C36.5278 24.5842 36.229 24.4686 36.0087 24.2627C35.7884 24.0569 35.6646 23.7777 35.6646 23.4866V22.389H33.3154C33.0038 22.389 32.705 22.2734 32.4848 22.0675C32.2645 21.8617 32.1407 21.5825 32.1407 21.2914C32.1407 21.0003 32.2645 20.7211 32.4848 20.5153C32.705 20.3094 33.0038 20.1938 33.3154 20.1938H38.0139C38.3255 20.1938 38.6242 20.0781 38.8445 19.8723C39.0648 19.6665 39.1886 19.3873 39.1886 19.0962C39.1886 18.8051 39.0648 18.5259 38.8445 18.32C38.6242 18.1142 38.3255 17.9986 38.0139 17.9986Z" fill="#5367FF"/>
</svg>
