<svg width="50" height="51" viewBox="0 0 50 51" fill="none" xmlns="http://www.w3.org/2000/svg">
<path d="M0 25.7207C0 11.9136 11.1929 0.720703 25 0.720703V0.720703C38.8071 0.720703 50 11.9136 50 25.7207V25.7207C50 39.5278 38.8071 50.7207 25 50.7207V50.7207C11.1929 50.7207 0 39.5278 0 25.7207V25.7207Z" fill="#627EEA"/>
<path fill-rule="evenodd" clip-rule="evenodd" d="M18.75 25.7207L25 15.7207V23.0282L18.75 25.7207ZM30.9375 25.7207L25 23.0317V15.7207L30.9375 25.7207Z" fill="white"/>
<path fill-rule="evenodd" clip-rule="evenodd" d="M25 30.1724L18.75 26.4224L25 23.7207V30.1724Z" fill="white"/>
<path fill-rule="evenodd" clip-rule="evenodd" d="M25 30.1724L31.25 26.4224L25 23.7207V30.1724Z" fill="white"/>
<path fill-rule="evenodd" clip-rule="evenodd" d="M18.75 27.2832L25 30.8911V35.7207L18.75 27.2832ZM30.9375 27.2832L25 35.7207V30.8911L30.9375 27.2832Z" fill="white"/>
<path fill-rule="evenodd" clip-rule="evenodd" d="M30.9375 25.7207L25 23.0317V15.7207L30.9375 25.7207Z" fill="white"/>
<path fill-rule="evenodd" clip-rule="evenodd" d="M30.9375 27.2832L25 30.8907V35.7207L30.9375 27.2832Z" fill="white"/>
</svg>
