<svg width="24" height="26" viewBox="0 0 24 26" fill="none" xmlns="http://www.w3.org/2000/svg">
<path fill-rule="evenodd" clip-rule="evenodd" d="M4.39281 3.97053H19.3878C21.8616 3.97053 23.8753 5.94928 23.8753 8.38178V11.4705C23.8753 12.1618 23.3166 12.7205 22.6253 12.7205C21.9341 12.7205 21.3753 12.1618 21.3753 11.4705V8.38178C21.3753 7.32928 20.4841 6.47053 19.3878 6.47053H4.39281L6.00906 8.08678C6.49656 8.57553 6.49656 9.36553 6.00906 9.85428C5.76531 10.098 5.44531 10.2205 5.12531 10.2205C4.80531 10.2205 4.48531 10.098 4.24156 9.85428L0.491562 6.10428C0.0028125 5.61553 0.0028125 4.82553 0.491562 4.33678L4.24156 0.586777C4.72906 0.0980273 5.52031 0.0980273 6.00906 0.586777C6.49656 1.07553 6.49656 1.86553 6.00906 2.35428L4.39281 3.97053ZM17.9913 15.5871C18.48 15.0983 19.27 15.0983 19.7587 15.5871L23.5088 19.3371C23.9975 19.8258 23.9975 20.6158 23.5088 21.1046L19.7587 24.8546C19.515 25.0983 19.195 25.2208 18.875 25.2208C18.555 25.2208 18.235 25.0983 17.9913 24.8546C17.5025 24.3658 17.5025 23.5758 17.9913 23.0871L19.6075 21.4708H4.6125C2.1375 21.4708 0.125 19.4921 0.125 17.0596V13.9708C0.125 13.2796 0.685 12.7208 1.375 12.7208C2.065 12.7208 2.625 13.2796 2.625 13.9708V17.0596C2.625 18.1133 3.51625 18.9708 4.6125 18.9708H19.6075L17.9913 17.3546C17.5025 16.8658 17.5025 16.0758 17.9913 15.5871Z" fill="#9295A6"/>
</svg>
