<svg width="57" height="54" viewBox="0 0 57 54" fill="none" xmlns="http://www.w3.org/2000/svg">
<g clip-path="url(#clip0_1050_95655)">
<path d="M15.3597 25.8608C7.16226 25.8608 0.493103 32.0926 0.493103 39.7525C0.493103 47.4124 7.16226 53.6442 15.3597 53.6442C23.5572 53.6442 30.2263 47.4124 30.2263 39.7525C30.2263 32.0926 23.5572 25.8608 15.3597 25.8608ZM21.9237 38.0655L14.2151 45.2686C13.8927 45.57 13.4699 45.7208 13.0471 45.7208C12.6244 45.7208 12.2016 45.57 11.8792 45.2686L8.57547 42.1816C7.93037 41.5789 7.93037 40.6015 8.57547 39.9987C9.22046 39.3961 10.2664 39.3961 10.9115 39.9987L13.0471 41.9944L19.5878 35.8827C20.2328 35.28 21.2787 35.28 21.9238 35.8827C22.5688 36.4855 22.5688 37.4628 21.9237 38.0655Z" fill="#5367FF"/>
<path d="M43.9917 14.3361C43.0795 14.3361 42.3399 13.6451 42.3399 12.7926V0.958984H18.6634C15.9309 0.958984 13.7079 3.03625 13.7079 5.58954V22.8449C14.2521 22.7988 14.8028 22.774 15.3597 22.774C20.9901 22.774 26.0303 25.1795 29.3658 28.9481H47.2954C48.2077 28.9481 48.9472 29.6392 48.9472 30.4916C48.9472 31.3441 48.2077 32.0352 47.2954 32.0352H31.5421C32.5746 33.9178 33.2404 36.0035 33.4542 38.2092H47.2954C48.2077 38.2092 48.9472 38.9003 48.9472 39.7527C48.9472 40.6052 48.2077 41.2963 47.2954 41.2963H33.4542C32.9601 46.3939 30.0454 50.8482 25.7948 53.6444H51.7003C54.4328 53.6444 56.6559 51.5671 56.6559 49.0139V14.3361H43.9917ZM47.2954 22.774H23.0683C22.1561 22.774 21.4165 22.083 21.4165 21.2305C21.4165 20.3781 22.1561 19.687 23.0683 19.687H47.2954C48.2077 19.687 48.9472 20.3781 48.9472 21.2305C48.9472 22.083 48.2077 22.774 47.2954 22.774Z" fill="#5367FF"/>
<path d="M45.6437 1.86279V11.2491H55.6881L45.6437 1.86279Z" fill="#5367FF"/>
</g>
<defs>
<clipPath id="clip0_1050_95655">
<rect width="56.383" height="52.6854" fill="white" transform="translate(0.383057 0.958984)"/>
</clipPath>
</defs>
</svg>
