<svg width="57" height="54" viewBox="0 0 57 54" fill="none" xmlns="http://www.w3.org/2000/svg">
<g clip-path="url(#clip0_1050_95603)">
<path d="M40.9934 2.19385H32.1836C31.4537 2.19385 30.8621 2.74669 30.8621 3.42866V5.89829C30.8621 6.58026 31.4537 7.13311 32.1836 7.13311H40.9934C41.7232 7.13311 42.3149 6.58026 42.3149 5.89829V3.42866C42.3149 2.74669 41.7232 2.19385 40.9934 2.19385Z" fill="#5367FF"/>
<path d="M15.4449 20.3047H6.63503C6.28455 20.3047 5.94843 20.4348 5.7006 20.6664C5.45278 20.8979 5.31355 21.212 5.31355 21.5395C5.31355 21.867 5.45278 22.1811 5.7006 22.4126C5.94843 22.6442 6.28455 22.7743 6.63503 22.7743H15.4449C15.7954 22.7743 16.1315 22.6442 16.3793 22.4126C16.6271 22.1811 16.7663 21.867 16.7663 21.5395C16.7663 21.212 16.6271 20.8979 16.3793 20.6664C16.1315 20.4348 15.7954 20.3047 15.4449 20.3047Z" fill="#5367FF"/>
<path d="M15.0043 31.4174C15.0043 31.0899 14.8651 30.7759 14.6173 30.5443C14.3694 30.3127 14.0333 30.1826 13.6828 30.1826H4.87301C4.52253 30.1826 4.18641 30.3127 3.93858 30.5443C3.69076 30.7759 3.55153 31.0899 3.55153 31.4174C3.55153 31.7449 3.69076 32.059 3.93858 32.2906C4.18641 32.5222 4.52253 32.6522 4.87301 32.6522H13.6828C14.0333 32.6522 14.3694 32.5222 14.6173 32.2906C14.8651 32.059 15.0043 31.7449 15.0043 31.4174Z" fill="#5367FF"/>
<path d="M14.5639 35.1221H8.39699C8.04651 35.1221 7.71039 35.2522 7.46257 35.4837C7.21474 35.7153 7.07552 36.0294 7.07552 36.3569C7.07552 36.6844 7.21474 36.9985 7.46257 37.23C7.71039 37.4616 8.04651 37.5917 8.39699 37.5917H14.5639C14.9144 37.5917 15.2505 37.4616 15.4983 37.23C15.7461 36.9985 15.8854 36.6844 15.8854 36.3569C15.8854 36.0294 15.7461 35.7153 15.4983 35.4837C15.2505 35.2522 14.9144 35.1221 14.5639 35.1221Z" fill="#5367FF"/>
<path d="M15.0045 26.4785C15.0045 26.151 14.8652 25.8369 14.6174 25.6053C14.3696 25.3737 14.0335 25.2437 13.683 25.2437H2.23018C1.87971 25.2437 1.54358 25.3737 1.29576 25.6053C1.04793 25.8369 0.908707 26.151 0.908707 26.4785C0.908707 26.806 1.04793 27.12 1.29576 27.3516C1.54358 27.5832 1.87971 27.7133 2.23018 27.7133H13.683C14.0335 27.7133 14.3696 27.5832 14.6174 27.3516C14.8652 27.12 15.0045 26.806 15.0045 26.4785Z" fill="#5367FF"/>
<path d="M36.5885 28.9482V14.9536C28.3303 14.9536 21.6118 21.2315 21.6118 28.9482C21.6118 36.6648 28.3303 42.9427 36.5885 42.9427C44.8467 42.9427 51.5652 36.6648 51.5652 28.9482H36.5885Z" fill="#5367FF"/>
<path d="M51.0827 16.3279L52.4996 15.0037C52.624 14.8894 52.7229 14.7532 52.7906 14.603C52.8583 14.4528 52.8936 14.2916 52.8943 14.1285C52.895 13.9655 52.8612 13.804 52.7947 13.6533C52.7283 13.5026 52.6306 13.3656 52.5072 13.2504C52.3839 13.1351 52.2373 13.0438 52.076 12.9817C51.9147 12.9197 51.7419 12.8881 51.5674 12.8887C51.393 12.8894 51.2204 12.9223 51.0597 12.9856C50.8989 13.0489 50.7532 13.1413 50.6308 13.2575L49.1561 14.6355C46.3159 12.4493 42.8784 11.0483 39.2314 10.5908V8.36816H33.9455V10.5908C30.2986 11.0482 26.8611 12.4489 24.0209 14.6348L22.5462 13.2569C22.4238 13.1407 22.2781 13.0483 22.1173 12.985C21.9565 12.9217 21.784 12.8888 21.6095 12.8881C21.4351 12.8874 21.2622 12.9191 21.1009 12.9811C20.9396 13.0432 20.7931 13.1345 20.6697 13.2498C20.5464 13.365 20.4487 13.502 20.3822 13.6527C20.3158 13.8034 20.282 13.9649 20.2827 14.1279C20.2834 14.2909 20.3186 14.4522 20.3864 14.6024C20.4541 14.7526 20.553 14.8888 20.6774 15.0031L22.0943 16.3273C18.6675 19.7494 16.7627 24.2618 16.7663 28.9484C16.7663 39.1616 25.6586 47.4706 36.5885 47.4706C47.5184 47.4706 56.4106 39.1616 56.4106 28.9484C56.4141 24.262 54.5093 19.7499 51.0827 16.3279ZM36.5885 44.1778C33.365 44.1778 30.2139 43.2846 27.5337 41.6112C24.8535 39.9377 22.7645 37.5592 21.5309 34.7764C20.2973 31.9936 19.9746 28.9315 20.6034 25.9773C21.2323 23.0231 22.7846 20.3095 25.0639 18.1796C27.3433 16.0497 30.2473 14.5993 33.4089 14.0117C36.5704 13.424 39.8474 13.7256 42.8255 14.8783C45.8036 16.031 48.3491 17.983 50.1399 20.4874C51.9308 22.9919 52.8867 25.9363 52.8867 28.9484C52.8867 30.9484 52.4651 32.9287 51.6461 34.7764C50.827 36.6242 49.6265 38.303 48.1131 39.7172C46.5996 41.1314 44.8029 42.2532 42.8255 43.0185C40.8481 43.7839 38.7288 44.1778 36.5885 44.1778Z" fill="#5367FF"/>
</g>
<defs>
<clipPath id="clip0_1050_95603">
<rect width="56.383" height="52.6854" fill="white" transform="translate(0.46814 0.958984)"/>
</clipPath>
</defs>
</svg>
