<svg width="16" height="19" viewBox="0 0 16 19" fill="none" xmlns="http://www.w3.org/2000/svg">
<path fill-rule="evenodd" clip-rule="evenodd" d="M6.87658 14.1777L8.90258 15.7107V11.1577C8.90258 10.9917 8.94458 10.8287 9.02258 10.6827L13.3226 2.7207H2.64258L6.76458 10.6987C6.83858 10.8407 6.87658 10.9987 6.87658 11.1577V14.1777ZM9.90323 18.7207C9.69023 18.7207 9.47723 18.6527 9.30023 18.5177L5.27423 15.4727C5.02423 15.2837 4.87723 14.9887 4.87723 14.6757V11.4017L0.112229 2.1797C-0.0487714 1.8697 -0.0357714 1.4987 0.146229 1.2007C0.327229 0.902703 0.651228 0.720703 1.00023 0.720703H15.0002C15.3522 0.720703 15.6782 0.905703 15.8592 1.2087C16.0392 1.5107 16.0472 1.8857 15.8802 2.1957L10.9032 11.4107V17.7207C10.9032 18.0997 10.6892 18.4467 10.3492 18.6157C10.2082 18.6857 10.0552 18.7207 9.90323 18.7207Z" fill="#9295A6"/>
</svg>
