<svg width="24" height="25" viewBox="0 0 24 25" fill="none" xmlns="http://www.w3.org/2000/svg">
<path fill-rule="evenodd" clip-rule="evenodd" d="M3 7.7207C3 7.1687 3.448 6.7207 4 6.7207C4.552 6.7207 5 7.1687 5 7.7207C5 8.2727 4.552 8.7207 4 8.7207C3.448 8.7207 3 8.2727 3 7.7207ZM3 12.7207C3 12.1687 3.448 11.7207 4 11.7207C4.552 11.7207 5 12.1687 5 12.7207C5 13.2727 4.552 13.7207 4 13.7207C3.448 13.7207 3 13.2727 3 12.7207ZM4 16.7207C3.448 16.7207 3 17.1687 3 17.7207C3 18.2727 3.448 18.7207 4 18.7207C4.552 18.7207 5 18.2727 5 17.7207C5 17.1687 4.552 16.7207 4 16.7207ZM7.935 11.7207H20.064C20.579 11.7207 21 12.1417 21 12.6567V12.7847C21 13.2997 20.579 13.7207 20.064 13.7207H7.935C7.42 13.7207 7 13.2997 7 12.7847V12.6567C7 12.1417 7.42 11.7207 7.935 11.7207ZM20.064 16.7207H7.935C7.42 16.7207 7 17.1417 7 17.6567V17.7847C7 18.2997 7.42 18.7207 7.935 18.7207H20.064C20.579 18.7207 21 18.2997 21 17.7847V17.6567C21 17.1417 20.579 16.7207 20.064 16.7207ZM7.935 6.7207H20.064C20.579 6.7207 21 7.1417 21 7.6567V7.7847C21 8.2997 20.579 8.7207 20.064 8.7207H7.935C7.42 8.7207 7 8.2997 7 7.7847V7.6567C7 7.1417 7.42 6.7207 7.935 6.7207Z" fill="#9295A6"/>
</svg>
