<svg width="175" height="51" viewBox="0 0 175 51" fill="none" xmlns="http://www.w3.org/2000/svg">
<path fill-rule="evenodd" clip-rule="evenodd" d="M29.274 4.99959C27.6512 3.37662 25.0207 3.37716 23.3986 5.0008L9.86056 18.5513L9.84903 18.5479L9.80624 18.5525C9.82386 18.561 9.84116 18.5693 9.85811 18.5778C7.48326 18.8267 6.47565 19.5407 6.46424 20.4577C6.46826 20.7988 6.60813 21.1672 6.86506 21.5495L6.8527 21.5619C9.01168 24.8199 19.7072 29.1176 27.274 26.2057C21.603 29.0427 8.24748 29.605 4.32476 24.0967C3.47287 25.0188 3.11645 26.2305 3.25067 27.395C4.28694 33.1095 15.8725 34.6686 27.4582 26.3889L29.9653 28.8973C26.8456 32.104 22.2374 50.7306 29.0847 47.8867C29.2471 47.7764 29.3849 47.6777 29.5725 47.5357L29.8776 47.2475C29.86 47.2518 29.8425 47.256 29.8252 47.2601L48.1636 29.9387C49.8663 28.3303 49.9049 25.6326 48.2486 23.9762L29.274 4.99959ZM27.277 10.6445L27.9037 8.13611L28.5305 10.6445L30.4108 11.2716L28.5305 11.8987L27.9037 14.407L27.277 11.8987L25.3967 11.2716L27.277 10.6445ZM19.5191 18.8329L19.937 17.1606L20.3548 18.8329L21.6084 19.251L20.3548 19.669L19.937 21.3413L19.5191 19.669L18.2656 19.251L19.5191 18.8329ZM34.0721 32.9382L33.6543 34.6104L32.4008 35.0286L33.6543 35.4466L34.0721 37.1188L34.4899 35.4466L35.7435 35.0286L34.4899 34.6104L34.0721 32.9382Z" fill="#AEB1BF"/>
<path d="M60.0128 14.2949H56.1208V31.8636H66.8949V28.4211H60.0128V14.2949Z" fill="#AEB1BF"/>
<path d="M67.2655 25.9039C67.2655 29.6551 69.7808 32.148 73.5775 32.148C77.3505 32.148 79.8658 29.6551 79.8658 25.9039C79.8658 22.1528 77.3505 19.6362 73.5775 19.6362C69.7808 19.6362 67.2655 22.1528 67.2655 25.9039ZM70.9436 25.8802C70.9436 24.0996 71.9876 22.9125 73.5775 22.9125C75.1436 22.9125 76.1878 24.0996 76.1878 25.8802C76.1878 27.6846 75.1436 28.8717 73.5775 28.8717C71.9876 28.8717 70.9436 27.6846 70.9436 25.8802Z" fill="#AEB1BF"/>
<path d="M80.4536 25.7142C80.4536 29.2991 82.7792 31.7207 86.0775 31.7207C87.6674 31.7207 89.0437 31.1509 89.7318 30.2251V31.8632C89.7318 33.5014 88.7115 34.5935 86.908 34.5935C85.2944 34.5935 84.1792 33.8338 84.1079 32.4805H80.4062C80.7384 35.7331 83.2537 37.9173 86.6944 37.9173C90.7523 37.9173 93.315 35.282 93.315 31.1034V19.9925H90.0165L89.8268 21.2032C89.1623 20.2298 87.7623 19.5889 86.1487 19.5889C82.8266 19.5889 80.4536 22.0817 80.4536 25.7142ZM84.1554 25.6192C84.1554 23.9098 85.2945 22.7702 86.7419 22.7702C88.4267 22.7702 89.6606 23.886 89.6606 25.6192C89.6606 27.3523 88.4505 28.5394 86.7657 28.5394C85.3182 28.5394 84.1554 27.3523 84.1554 25.6192Z" fill="#AEB1BF"/>
<path d="M94.3805 25.9044C94.3805 29.6556 96.8957 32.1485 100.692 32.1485C104.465 32.1485 106.981 29.6556 106.981 25.9044C106.981 22.1532 104.465 19.6367 100.692 19.6367C96.8957 19.6367 94.3805 22.1532 94.3805 25.9044ZM98.0585 25.8807C98.0585 24.1001 99.1026 22.913 100.692 22.913C102.259 22.913 103.303 24.1001 103.303 25.8807C103.303 27.6851 102.259 28.8722 100.692 28.8722C99.1026 28.8722 98.0585 27.6851 98.0585 25.8807Z" fill="#AEB1BF"/>
<path d="M110.131 18.1406C111.27 18.1406 112.195 17.2148 112.195 16.0514C112.195 14.888 111.27 13.9858 110.131 13.9858C108.968 13.9858 108.042 14.888 108.042 16.0514C108.042 17.2148 108.968 18.1406 110.131 18.1406ZM108.28 31.8632H111.958V19.9925H108.28V31.8632Z" fill="#AEB1BF"/>
<path d="M114.099 37.5609H117.706V30.6759C118.395 31.5781 119.96 32.1953 121.598 32.1953C125.133 32.1953 127.269 29.4888 127.174 25.7376C127.079 21.9152 124.873 19.6123 121.574 19.6123C119.889 19.6123 118.3 20.3483 117.635 21.4405L117.445 19.9922H114.099V37.5609ZM117.777 25.9275C117.777 24.147 118.964 22.9599 120.673 22.9599C122.404 22.9599 123.496 24.1707 123.496 25.9275C123.496 27.6845 122.404 28.8952 120.673 28.8952C118.964 28.8952 117.777 27.7082 117.777 25.9275Z" fill="#AEB1BF"/>
<path d="M127.564 28.1118C127.658 30.5097 129.557 32.1715 132.547 32.1715C135.419 32.1715 137.413 30.6521 137.413 28.2068C137.413 26.4499 136.367 25.2865 134.422 24.8118L132.309 24.2894C131.55 24.0995 131.076 23.9096 131.076 23.2923C131.076 22.675 131.574 22.2713 132.309 22.2713C133.141 22.2713 133.686 22.8174 133.662 23.6247H136.962C136.866 21.1556 134.992 19.6123 132.381 19.6123C129.746 19.6123 127.778 21.1793 127.778 23.5534C127.778 25.1442 128.656 26.4499 131.005 27.0672L133.093 27.6132C133.71 27.7794 133.971 28.0643 133.971 28.468C133.971 29.0614 133.425 29.4413 132.5 29.4413C131.432 29.4413 130.862 28.9427 130.862 28.1118H127.564Z" fill="#AEB1BF"/>
<path d="M143.005 32.1715C144.453 32.1715 145.9 31.5069 146.636 30.5334L146.874 31.8629H150.315V19.9922H146.66V26.165C146.66 27.9456 146.137 28.919 144.453 28.919C143.147 28.919 142.293 28.3255 142.293 26.1175V19.9922H138.638V27.447C138.638 30.2723 140.205 32.1715 143.005 32.1715Z" fill="#AEB1BF"/>
<path d="M156.108 31.8632V25.3818C156.108 23.3875 157.176 22.8177 158.22 22.8177C159.383 22.8177 160.142 23.53 160.142 25.0019V31.8632H163.749V25.3818C163.749 23.3638 164.793 22.794 165.837 22.794C167 22.794 167.783 23.5062 167.783 25.0019V31.8632H171.343V24.0997C171.343 21.3932 169.919 19.5889 166.857 19.5889C165.149 19.5889 163.749 20.4198 163.132 21.7018C162.42 20.4198 161.186 19.5889 159.217 19.5889C157.912 19.5889 156.702 20.1823 155.99 21.132L155.848 19.9925H152.43V31.8632H156.108Z" fill="#AEB1BF"/>
<path fill-rule="evenodd" clip-rule="evenodd" d="M49.5761 6.65967C45.6556 6.65967 41.9376 8.40196 39.4277 11.4153L30.4986 22.1359L35.6546 14.3977L27.096 18.0676C26.009 18.5337 25.7363 19.9506 26.5724 20.7872L29.3267 23.5427L27.9204 25.2311L31.0142 28.3263L32.7016 26.9194L35.4558 29.675C36.2919 30.5115 37.7081 30.2387 38.1739 29.1513L41.8419 20.5883L34.1078 25.747L44.8228 16.8132C47.8347 14.3021 49.5761 10.5822 49.5761 6.65967ZM41.0686 15.1718C41.9228 16.0264 43.3079 16.0264 44.1622 15.1718C45.0164 14.317 45.0164 12.9312 44.1622 12.0765C43.3079 11.2218 41.9228 11.2218 41.0686 12.0765C40.2142 12.9312 40.2142 14.317 41.0686 15.1718Z" fill="#AEB1BF"/>
<path opacity="0.6" d="M4.22559 23.9526C6.27395 30.9742 18.7276 30.6081 27.2719 26.2069C21.5505 29.0673 8.01606 29.6136 4.22559 23.9526Z" fill="#AEB1BF"/>
<path opacity="0.6" d="M29.0849 47.8868C23.3148 50.2831 25.679 37.4348 28.4326 31.4131C26.4254 36.7655 24.712 48.5645 29.878 47.2475L29.5728 47.5358C29.3852 47.6778 29.2474 47.7765 29.0849 47.8868Z" fill="#AEB1BF"/>
</svg>
