<svg width="138" height="50" viewBox="0 0 138 50" fill="none" xmlns="http://www.w3.org/2000/svg">
<path d="M13.7483 21.5151C13.7095 22.4251 13.6902 23.5772 13.6902 24.9713C13.6902 26.3654 13.7095 27.5271 13.7483 28.4565C13.7869 29.3666 13.8643 30.0927 13.9804 30.6349C14.1159 31.177 14.2998 31.5545 14.5321 31.7676C14.7837 31.9805 15.1127 32.0871 15.5192 32.0871C15.9255 32.0871 16.2449 31.9805 16.4772 31.7676C16.7288 31.5545 16.9126 31.177 17.0288 30.6349C17.1642 30.0927 17.2513 29.3666 17.29 28.4565C17.3288 27.5271 17.3481 26.3654 17.3481 24.9713C17.3481 23.5772 17.3288 22.4251 17.29 21.5151C17.2513 20.5857 17.1642 19.8498 17.0288 19.3078C16.9126 18.7656 16.7288 18.388 16.4772 18.175C16.2449 17.962 15.9255 17.8555 15.5192 17.8555C15.1127 17.8555 14.7837 17.962 14.5321 18.175C14.2998 18.388 14.1159 18.7656 13.9804 19.3078C13.8643 19.8498 13.7869 20.5857 13.7483 21.5151Z" fill="#AEB1BF"/>
<path fill-rule="evenodd" clip-rule="evenodd" d="M14.7768 3.39573C7.77719 3.54559 2.21346 9.3246 2.32577 16.3284L2.46377 24.9338L2.32577 33.5392C2.21346 40.5431 7.77719 46.3221 14.7768 46.4719L23.379 46.6561L31.9813 46.4719C38.9809 46.3221 44.5447 40.5431 44.4324 33.5392L44.2944 24.9338L44.4324 16.3284C44.5447 9.3246 38.9809 3.54559 31.9813 3.39573L23.379 3.21167L14.7768 3.39573ZM23.6763 35.8917L20.425 38.709L17.4641 35.5142C17.2318 35.5529 16.9995 35.582 16.7674 35.6014C16.5544 35.64 16.3125 35.6595 16.0416 35.6595H15.5191C14.145 35.6595 12.9838 35.4755 12.0356 35.1076C11.0873 34.7397 10.3229 34.1298 9.74231 33.2779C9.16176 32.4065 8.74563 31.2931 8.49405 29.9378C8.24247 28.5631 8.11667 26.9075 8.11667 24.9713C8.11667 23.035 8.24247 21.3892 8.49405 20.0338C8.74563 18.659 9.16176 17.5458 9.74231 16.6938C10.3229 15.8224 11.0873 15.1931 12.0356 14.8059C12.9838 14.3992 14.145 14.1959 15.5191 14.1959C16.8932 14.1959 18.0543 14.3992 19.0025 14.8059C19.9508 15.1931 20.7153 15.8224 21.2959 16.6938C21.8764 17.5458 22.2926 18.659 22.5442 20.0338C22.7957 21.3892 22.9215 23.035 22.9215 24.9713C22.9215 26.9656 22.7861 28.6502 22.5151 30.0249C22.2442 31.3997 21.7991 32.5227 21.1798 33.3941L23.6763 35.8917ZM32.8397 22.0668V20.9051C32.8397 19.724 32.7236 18.9204 32.4913 18.4945C32.2591 18.0685 31.8818 17.8555 31.3592 17.8555C30.9528 17.8555 30.6238 17.962 30.3723 18.175C30.14 18.388 29.9561 18.7656 29.8207 19.3077C29.7045 19.8498 29.6272 20.5856 29.5884 21.5151C29.5497 22.4251 29.5303 23.5772 29.5303 24.9713C29.5303 26.3654 29.5497 27.5271 29.5884 28.4565C29.6272 29.3666 29.7045 30.0927 29.8207 30.6349C29.9561 31.177 30.14 31.5545 30.3723 31.7676C30.6238 31.9805 30.9528 32.0871 31.3592 32.0871C31.6881 32.0871 31.9591 32.0096 32.172 31.8547C32.3849 31.6804 32.5494 31.3997 32.6655 31.0124C32.7816 30.6252 32.859 30.112 32.8978 29.4731C32.9558 28.8148 32.9848 27.9919 32.9848 27.0043H38.21V28.5437C38.21 29.9959 38.0165 31.1867 37.6295 32.116C37.2424 33.0455 36.7296 33.7813 36.091 34.3234C35.4522 34.8462 34.7169 35.1947 33.8847 35.369C33.072 35.5626 32.2301 35.6595 31.3592 35.6595C29.8497 35.6595 28.6112 35.4755 27.6435 35.1076C26.6759 34.7397 25.9211 34.1298 25.3792 33.2779C24.8373 32.4065 24.4599 31.2931 24.2471 29.9378C24.0536 28.5631 23.9567 26.9075 23.9567 24.9713C23.9567 22.9963 24.0729 21.3215 24.3051 19.9467C24.5567 18.5719 24.9728 17.4586 25.5534 16.6067C26.134 15.7547 26.8984 15.1447 27.8466 14.7768C28.7949 14.3896 29.9658 14.1959 31.3592 14.1959C32.5784 14.1959 33.6138 14.3509 34.4653 14.6607C35.3168 14.9705 36.0038 15.4159 36.5264 15.9967C37.0682 16.5582 37.4553 17.2456 37.6875 18.0588C37.9391 18.8526 38.0649 19.7531 38.0649 20.7599V22.0668H32.8397Z" fill="#AEB1BF"/>
<path fill-rule="evenodd" clip-rule="evenodd" d="M69.8015 18.0132L74.534 22.9269L79.2666 18.0132H87.4889L78.639 26.4368L87.4889 34.8603H79.2666L74.534 29.934L69.8015 34.8603H61.5666L70.4166 26.4368L61.5666 18.0132H69.8015ZM69.3452 26.4368L59.7197 17.2752H70.1161L74.534 21.8622L78.9519 17.2752H88.9772V17.2626H105.968C109.853 17.2229 113.142 20.4735 113.089 24.3738C113.088 25.7767 112.709 27.0699 111.95 28.2209C111.379 29.0921 110.655 29.8089 109.788 30.354L113.411 35.0081V31.9898C113.411 29.625 115.177 28.1173 117.209 27.1175C119.261 26.1081 121.85 25.4774 124.006 24.9672L124.009 24.9665L124.033 24.9603C125.363 24.6333 126.494 24.3549 127.3 24.0547C127.707 23.9025 127.975 23.7647 128.128 23.6477C128.147 23.6328 128.163 23.6196 128.177 23.6083C128.13 23.5654 128.034 23.5013 127.847 23.4275C127.408 23.2558 126.66 23.1264 125.526 23.1261C124.315 23.1386 123.285 23.2372 122.582 23.4838C122.236 23.6054 122.027 23.7439 121.909 23.8739C121.81 23.9855 121.75 24.118 121.755 24.3257L121.773 25.0815H113.674V24.3434C113.674 22.8283 113.971 21.5614 114.566 20.5234C115.163 19.4808 116.034 18.7195 117.095 18.1735C119.178 17.1022 122.047 16.8364 125.247 16.8364C128.523 16.8364 131.242 17.2146 133.168 18.1884C134.142 18.6818 134.934 19.3385 135.479 20.1925C136.025 21.0488 136.292 22.0567 136.292 23.2028C136.292 25.3236 135.013 26.6745 133.445 27.555C131.923 28.4098 130.007 28.8953 128.415 29.2837H136.016V35.5734H113.85L113.86 35.5859H104.981L101.805 31.4744H97.0332V35.5859H89.3222L89.336 35.5984H78.9514L74.534 31.0003L70.1167 35.5984H59.7197L69.3452 26.4368ZM88.9772 35.2567V17.6168L79.7103 26.4368L88.9772 35.2567ZM102.169 30.7363L105.345 34.8478H112.349L108.671 30.122C108.901 30.0153 109.121 29.8972 109.332 29.768C110.137 29.275 110.806 28.62 111.332 27.8156C112.01 26.7877 112.349 25.6345 112.349 24.3685C112.4 20.8837 109.45 17.9631 105.972 18.0007H89.716V34.8478H96.2933V30.7363H102.169ZM124.544 30.0218C124.774 29.74 125.192 29.5004 125.746 29.2837C126.399 29.028 127.239 28.8041 128.184 28.5803C131.423 27.7905 135.553 26.7125 135.553 23.2028C135.553 19.0912 131.737 17.5745 125.247 17.5745C119.144 17.5745 114.816 18.5692 114.44 23.6053C114.422 23.8423 114.413 24.0882 114.413 24.3434H121.017C121.016 24.3156 121.016 24.2882 121.017 24.2612C121.053 22.7638 123.118 22.4126 125.523 22.3879C127.87 22.3879 128.949 22.9144 128.949 23.629C128.949 24.5109 126.867 25.0236 124.251 25.6671L124.18 25.6846C119.836 26.7125 114.149 28.1416 114.149 31.9898V34.8352H135.276V30.0218H124.544ZM128.218 23.6649C128.218 23.6649 128.214 23.6602 128.212 23.6494C128.218 23.6591 128.218 23.6649 128.218 23.6649ZM105.02 24.3685C105.02 23.9739 104.71 23.6651 104.315 23.6651H97.0332V25.0594H104.315C104.528 25.0594 104.676 24.9949 104.809 24.8619C104.961 24.7105 105.02 24.559 105.02 24.3685ZM105.759 24.3685C105.759 23.5662 105.119 22.9269 104.315 22.9269H96.2933V25.7974H104.315C104.717 25.7974 105.056 25.6596 105.332 25.3839C105.621 25.0955 105.759 24.7571 105.759 24.3685Z" fill="#AEB1BF"/>
<path d="M62.1754 47.0141H65.3259V42.6982L68.4823 47.0141H70.0575L73.214 42.6982V47.0141H76.3645V38.9238H72.4264L69.2699 42.969L66.1195 38.9238H62.1754V47.0141Z" fill="#AEB1BF"/>
<path d="M83.0017 38.7256C79.9595 38.7316 77.4702 39.6104 77.4822 42.6744V43.2643C77.4702 46.3222 79.9595 47.2072 83.0017 47.2131C86.038 47.2072 88.5275 46.3222 88.5158 43.2643V42.6744C88.5158 39.6165 86.0444 38.7256 83.0017 38.7256ZM85.3649 43.0657C85.383 44.39 84.2884 44.6308 83.0017 44.6488C81.7093 44.6308 80.6149 44.39 80.6329 43.0657V42.8671C80.6149 41.5487 81.7093 41.3079 83.0017 41.2899C84.2884 41.3079 85.383 41.5487 85.3649 42.8671V43.0657Z" fill="#AEB1BF"/>
<path d="M97.3418 42.9811C97.3418 43.7937 96.8789 44.4618 96.0615 44.4618H92.6101V41.5002H96.0615C96.8789 41.5002 97.3418 42.1623 97.3418 42.9811ZM89.4592 38.9359V47.0261H96.6507C98.8695 47.0563 100.517 45.1782 100.499 42.9811C100.517 40.7718 98.8695 38.9057 96.6507 38.9359H89.4592Z" fill="#AEB1BF"/>
<path d="M109.27 43.0714C109.288 44.4016 108.195 44.6304 106.907 44.6485C105.615 44.6304 104.527 44.4016 104.539 43.0714V38.9238H101.388V43.27C101.376 46.3279 103.877 47.2068 106.907 47.2127C109.938 47.2068 112.439 46.3279 112.428 43.27V38.9238H109.27V43.0714Z" fill="#AEB1BF"/>
<path d="M113.845 38.9238V47.0141H123.304V44.4498H116.996V38.9238H113.845Z" fill="#AEB1BF"/>
<path d="M124.378 47.0262H133.837V44.9496H127.529V43.9141H133.837V42.0421H127.529V41.0067H133.837V38.936H124.378V47.0262Z" fill="#AEB1BF"/>
<path d="M63.9892 8.10328V6.39831H68.6588C68.885 6.39831 69.0819 6.4802 69.2424 6.65141C69.4103 6.81529 69.4905 7.01623 69.4905 7.25446C69.4905 7.48536 69.4103 7.6863 69.2424 7.85762C69.0819 8.02139 68.885 8.10328 68.6588 8.10328H63.9892ZM60.1661 3.47238V13.4787H63.9892V11.0366H69.6146C71.6357 11.0665 73.3503 9.31681 73.3211 7.25446C73.3503 5.18478 71.6357 3.44997 69.6146 3.47238H60.1661Z" fill="#AEB1BF"/>
<path d="M80.9313 3.21167C77.2395 3.2191 74.2188 4.30615 74.2334 8.09576V8.82541C74.2188 12.6076 77.2395 13.702 80.9313 13.7094C84.6156 13.702 87.6367 12.6076 87.6218 8.82541V8.09576C87.6218 4.31358 84.623 3.21167 80.9313 3.21167ZM83.7982 8.57965C83.8205 10.2176 82.4925 10.5154 80.9313 10.5378C79.3626 10.5154 78.0348 10.2176 78.0566 8.57965V8.33399C78.0348 6.70348 79.3626 6.40567 80.9313 6.38337C82.4925 6.40567 83.8205 6.70348 83.7982 8.33399V8.57965Z" fill="#AEB1BF"/>
<path d="M102.527 9.80827L100.258 3.47241H95.9531L93.6771 9.80827L91.4076 3.47241H87.103L91.4076 13.4787H95.9531L98.1059 8.47557L100.258 13.4787H104.803L109.109 3.47241H104.803L102.527 9.80827Z" fill="#AEB1BF"/>
<path d="M109.402 13.4787H120.879V10.9102H113.224V9.62952H120.879V7.31407H113.224V6.03352H120.879V3.47241H109.402V13.4787Z" fill="#AEB1BF"/>
<path d="M122.913 3.46481V13.4712H126.736V11.0292H130.151L131.997 13.4712H136.068L133.93 10.6644C134.572 10.3591 135.09 9.89753 135.477 9.29448C135.872 8.68399 136.068 7.99906 136.068 7.247C136.098 5.17721 134.382 3.44251 132.362 3.46481H122.913ZM131.398 6.39085C131.865 6.39085 132.238 6.77055 132.238 7.247C132.238 7.47779 132.157 7.67884 131.99 7.85005C131.829 8.01393 131.632 8.09581 131.398 8.09581H126.736V6.39085H131.398Z" fill="#AEB1BF"/>
</svg>
