<svg width="104" height="53" viewBox="0 0 104 53" fill="none" xmlns="http://www.w3.org/2000/svg">
<path d="M8.22212 12.1298C7.58715 10.5152 7.86281 8.65866 8.44771 7.09726C9.06309 5.45426 10.1346 3.81576 11.7362 2.95166C11.8157 4.68306 11.287 6.39366 10.7094 7.93616C10.19 9.32356 9.55264 10.8017 8.50018 11.9491C8.33846 12.8185 8.21453 13.6855 8.12737 14.5485C8.47619 13.6368 9.0418 12.8058 9.74754 12.1376C10.6562 11.2772 12.0078 10.6133 13.2765 11.0059C12.9049 12.4091 12.0578 13.7542 11.0547 14.6978C10.2651 15.4405 9.22271 16.3922 7.99494 16.4296C7.94437 17.6996 7.97295 18.958 8.0774 20.1993C8.25061 19.2909 8.62172 18.4355 9.15794 17.7985C9.89457 16.9232 10.9868 15.8538 12.3817 16.0327C12.3055 17.4529 11.7393 18.908 10.9508 20.0014C10.3242 20.8703 9.49707 21.9777 8.32297 22.2638C8.51098 23.4835 8.77284 24.683 9.10507 25.8567C9.10827 24.958 9.30667 24.0759 9.70027 23.3684C10.255 22.3707 11.1189 21.1265 12.5154 21.0292C12.7201 22.4225 12.4427 23.9456 11.8832 25.157C11.4361 26.1253 10.8399 27.3601 9.75314 27.871C10.2095 29.1338 10.7495 30.3613 11.3687 31.5461C11.1513 30.5249 11.16 29.4488 11.4173 28.4806C11.7718 27.1458 12.6518 25.7437 14.0647 25.3368C14.5642 26.8104 14.4953 28.455 14.2051 29.9528C13.9664 31.186 13.4972 32.6344 12.4455 33.4355C13.1331 34.5456 13.8937 35.611 14.7232 36.6247C14.2775 35.6305 14.056 34.5432 14.1749 33.5477C14.348 32.0975 14.7553 30.5461 16.2358 29.7729C17.0758 31.2229 17.2704 32.8496 17.3417 34.4563C17.3994 35.7552 17.2124 37.3573 16.3108 38.414C17.3025 39.4457 18.3727 40.4113 19.5157 41.3017C18.7778 40.3546 18.2611 39.2432 18.1516 38.1441C17.9971 36.5912 18.0727 34.8817 19.45 33.7421C20.628 34.9731 21.331 36.786 21.6755 38.3606C21.9801 39.7528 22.2982 41.4006 21.5729 42.7707C23.0275 43.7207 24.5804 44.5577 26.2223 45.2665C25.067 44.4428 24.1212 43.3127 23.6707 42.1459C23.0803 40.6164 22.7151 38.7939 23.8652 37.2621C25.4061 38.2496 26.5386 39.9344 27.4309 41.471C28.1965 42.7895 28.989 44.6093 28.5958 46.1796C29.5048 46.4882 30.4373 46.7592 31.3921 46.9904L31.3353 47.2249C30.3769 46.9928 29.4408 46.7209 28.5281 46.4114C27.8886 48.3021 25.7938 48.9267 24.0997 49.2025C21.6858 49.5954 18.8116 48.8341 16.7508 47.3005C17.8385 45.7626 20.0576 45.6066 21.731 45.4889L21.7528 45.4874C23.5859 45.3585 25.5686 45.5307 27.4121 46.0099C25.2825 45.1988 23.2898 44.179 21.4523 42.9801L21.4252 43.0229C20.4183 44.6564 18.3968 44.7201 16.81 44.6168C14.6568 44.4766 12.1709 43.1667 10.7321 41.356C12.0854 40.168 14.0843 40.5005 15.6331 40.7581L15.6406 40.7593C17.3692 41.0468 19.2581 41.674 20.8437 42.6397C20.6927 42.5207 20.5449 42.3948 20.4013 42.2628C18.8596 41.1631 17.4376 39.933 16.1471 38.5918C16.1321 38.6068 16.117 38.6217 16.1017 38.6365C14.8469 39.8994 13.0194 39.5687 11.5933 39.1577C9.68477 38.6077 7.70549 36.9484 6.75698 35.0435C8.22682 34.2195 9.98412 34.8985 11.351 35.4356C12.8512 36.0251 14.4385 36.9681 15.659 38.1702C15.5332 38.0114 15.4131 37.8455 15.2997 37.6738C14.1653 36.3928 13.1448 35.0211 12.2476 33.574L12.2027 33.6022C10.7832 34.5187 9.17494 33.855 7.90029 33.2023C6.17207 32.3174 4.78329 30.3726 4.18319 28.46C5.71631 27.9687 7.23103 28.933 8.40853 29.6967C9.69637 30.5319 11.0009 31.7231 11.8963 33.0892C11.8306 32.9546 11.7693 32.817 11.7128 32.6768C10.8525 31.175 10.1215 29.5984 9.52985 27.9629L9.49937 27.9733L9.49687 27.9742C8.20623 28.4651 6.76897 27.7019 5.83195 26.8649C4.52962 25.7017 3.61169 23.9134 3.3965 22.1663C4.74211 21.9919 6.00986 23.0335 6.87661 23.9219C7.8743 24.9444 8.76974 26.1529 9.32026 27.4952C9.28008 27.3494 9.2456 27.2013 9.21661 27.0517C8.71567 25.5148 8.33617 23.9298 8.08599 22.3094L8.0665 22.3118L8.05991 22.3129C6.69541 22.5408 5.43385 21.5029 4.68014 20.4956C3.62268 19.0821 3.07756 17.1258 3.21419 15.3527C4.57339 15.4478 5.60836 16.7415 6.27952 17.788C7.05632 18.9995 7.70049 20.3706 7.98265 21.805C7.97405 21.6909 7.96895 21.5761 7.96715 21.461C7.75996 19.8118 7.6861 18.1288 7.75366 16.425L7.74977 16.4248C6.36248 16.3748 5.3372 15.0861 4.80787 13.943C4.05046 12.3072 3.92853 10.2395 4.43407 8.49686C5.75629 8.86816 6.49341 10.3857 6.92849 11.5538C7.43013 12.9006 7.78025 14.3695 7.78305 15.8299C7.85521 14.6047 8.00054 13.3698 8.22212 12.1298Z" fill="#AEB1BF"/>
<path d="M35.5463 9.10742V14.9572C35.5463 17.5301 33.2171 18.768 29.6869 18.768C26.3872 18.768 24.0217 17.5423 24.0217 14.6538V9.10742H27.3092V14.6538C27.3092 15.6854 28.1948 16.3286 29.8204 16.3286C31.3732 16.3286 32.2952 15.6611 32.2952 14.6659V9.10742H35.5463Z" fill="#AEB1BF"/>
<path d="M46.4946 16.098V18.6345H37.4083V9.10742H40.6959V16.098H46.4946Z" fill="#AEB1BF"/>
<path d="M56.2637 11.4983V9.10742H44.8967V11.4983H48.9121V18.6345H52.2361V11.4983H56.2637Z" fill="#AEB1BF"/>
<path fill-rule="evenodd" clip-rule="evenodd" d="M67.9245 10.0784C68.3613 10.5274 68.5683 11.1464 68.5683 12.008C68.5683 12.7484 68.3863 13.3795 68.0825 13.8042C67.7426 14.2654 67.2208 14.6538 66.5781 14.7509L69.4539 18.6345H65.8384L63.4725 15.2727H60.5249V18.6345H57.2858V9.10742H64.8679C66.3722 9.10742 67.3548 9.47152 67.9245 10.0784ZM65.3047 12.8091C65.3896 12.6634 65.4136 12.4692 65.4136 12.3115C65.4136 12.1294 65.3896 11.9352 65.3047 11.8139C65.1347 11.4983 64.7949 11.4134 64.2851 11.4134H60.537V13.1489H64.3461C64.8679 13.1489 65.1837 13.0518 65.3047 12.8091Z" fill="#AEB1BF"/>
<path fill-rule="evenodd" clip-rule="evenodd" d="M73.8278 16.8748H78.9712L79.8077 18.6345H83.3139L78.5104 9.10742H74.5924L69.51 18.6345H72.9423L73.8278 16.8748ZM77.9397 14.7387H74.8953L76.0966 12.445L76.4605 11.5711L76.8003 12.4328L77.9397 14.7387Z" fill="#AEB1BF"/>
<path fill-rule="evenodd" clip-rule="evenodd" d="M67.5763 20.4287C65.5412 20.4287 64.4706 21.3937 64.4706 22.8117C64.4706 24.4122 65.5942 25.2241 67.5763 25.2241C69.7584 25.2241 70.676 24.2827 70.676 22.8117C70.676 21.3172 69.6404 20.4287 67.5763 20.4287ZM67.5763 24.0415C66.4178 24.0415 66.0819 23.5649 66.0819 22.8294C66.0819 22.1057 66.4468 21.6291 67.5703 21.6291C68.7998 21.6291 69.0757 22.1645 69.0757 22.8294C69.0757 23.5355 68.7408 24.0415 67.5763 24.0415Z" fill="#AEB1BF"/>
<path d="M61.455 25.1533V22.4173H58.3849V23.4117H60.0258C60.0141 23.4882 59.9552 23.6353 59.8787 23.7235C59.7082 23.9236 59.2553 24.1001 58.6672 24.1001C58.0555 24.1001 57.6615 23.9412 57.4498 23.6941C57.3086 23.5117 57.2263 23.2528 57.2263 22.8645C57.2263 22.4585 57.3086 22.182 57.4674 21.9996C57.6968 21.7407 58.0849 21.6289 58.6555 21.6289C59.1671 21.6289 59.52 21.7465 59.6847 21.8936C59.7906 21.9819 59.8728 22.1055 59.8905 22.1878H61.4138C61.408 22.0407 61.3609 21.8054 61.2785 21.6348C60.9139 20.8934 60.067 20.4521 58.6261 20.4521C57.3733 20.4521 56.5323 20.8345 56.0677 21.4112C55.7618 21.8054 55.6207 22.2996 55.6207 22.8527C55.6207 23.4647 55.7853 23.9883 56.0559 24.3355C56.5146 24.9298 57.3321 25.2239 58.3143 25.2239C59.1789 25.2239 59.7729 25.018 60.1493 24.7062L60.1905 25.1533H61.455Z" fill="#AEB1BF"/>
<path d="M45.4351 22.3585C46.629 22.4879 47.1407 22.9116 47.1407 23.7177C47.1407 24.6944 46.1879 25.2239 44.3117 25.2239C42.565 25.2239 41.8122 24.7297 41.5239 24.0825C41.4593 23.9295 41.4299 23.7412 41.4122 23.6235H43.106C43.1178 23.6941 43.159 23.8 43.2178 23.8706C43.3589 24.0413 43.753 24.1413 44.4235 24.1413C45.2881 24.1413 45.4939 24.0177 45.4939 23.7883C45.4939 23.5411 45.2822 23.4882 44.4999 23.4058C44.1883 23.3764 43.6942 23.3293 43.4884 23.3117C41.9945 23.1763 41.4417 22.7115 41.4417 21.9172C41.4417 21.0934 42.4179 20.4639 44.2 20.4639C45.7821 20.4639 46.5173 20.9346 46.8231 21.523C46.9172 21.6995 46.976 21.8995 46.9937 22.0407H45.2998C45.2939 21.976 45.2704 21.9113 45.2057 21.8289C45.0763 21.6583 44.7469 21.5465 44.1588 21.5465C43.3295 21.5465 43.1119 21.6465 43.1119 21.8583C43.1119 22.0937 43.3884 22.1467 44.3117 22.2467C44.6705 22.2761 45.241 22.3349 45.4351 22.3585Z" fill="#AEB1BF"/>
<path fill-rule="evenodd" clip-rule="evenodd" d="M28.5514 20.9284C28.8631 21.1755 29.0395 21.5933 29.0395 22.1993C29.0395 22.6936 28.9161 23.0642 28.6808 23.3231C28.3632 23.6879 27.8397 23.8527 27.1575 23.8586C26.9457 23.8645 25.1343 23.8586 25.1343 23.8586V25.153H23.5522V20.5342H27.1339C27.7692 20.5342 28.2515 20.6636 28.5514 20.9284ZM27.381 22.5582C27.428 22.4759 27.4516 22.3699 27.4516 22.2228C27.4516 22.0699 27.4221 21.9404 27.3692 21.8698C27.2693 21.7227 27.0811 21.6521 26.7752 21.6521H25.1225V22.7818H26.7634C27.0928 22.7818 27.2869 22.7053 27.381 22.5582Z" fill="#AEB1BF"/>
<path fill-rule="evenodd" clip-rule="evenodd" d="M34.8271 21.0049C35.0389 21.2226 35.1389 21.5227 35.1389 21.9404C35.1389 22.2993 35.0506 22.6053 34.9036 22.8112C34.7389 23.0348 34.486 23.2231 34.1743 23.2702L35.5682 25.153H33.8155L32.6686 23.5232H31.2394V25.153H29.6691V20.5342H33.345C34.0743 20.5342 34.5507 20.7107 34.8271 21.0049ZM33.5568 22.3288C33.5979 22.2582 33.6096 22.164 33.6096 22.0875C33.6096 21.9993 33.5979 21.9051 33.5568 21.8463C33.4744 21.6933 33.3098 21.6521 33.0628 21.6521H31.2453V22.4935H33.0922C33.345 22.4935 33.498 22.4464 33.5568 22.3288Z" fill="#AEB1BF"/>
<path d="M40.9361 25.1535V24.0062H37.6249V23.406H40.8009V22.2822H37.6249V21.6879H40.8949V20.5347H36.0722V25.1535H40.9361Z" fill="#AEB1BF"/>
<path d="M52.8633 21.6933V20.5342H47.3525V21.6933H49.2991V25.153H50.9106V21.6933H52.8633Z" fill="#AEB1BF"/>
<path d="M54.9831 20.5342V25.153H53.365V20.5342H54.9831Z" fill="#AEB1BF"/>
<path d="M63.8334 20.5342V25.153H62.215V20.5342H63.8334Z" fill="#AEB1BF"/>
<path d="M76.9161 20.5347V23.3707C76.9161 24.6181 75.7866 25.2183 74.0754 25.2183C72.4761 25.2183 71.3286 24.624 71.3286 23.2236V20.5347H72.9229V23.2236C72.9229 23.7237 73.3517 24.0356 74.1403 24.0356C74.893 24.0356 75.3398 23.712 75.3398 23.2295V20.5347H76.9161Z" fill="#AEB1BF"/>
<path d="M83.2647 23.7177C83.2647 22.9116 82.7529 22.4879 81.5595 22.3585C81.3645 22.3349 80.7948 22.2761 80.4359 22.2467C79.5123 22.1467 79.2355 22.0937 79.2355 21.8583C79.2355 21.6465 79.4534 21.5465 80.283 21.5465C80.8708 21.5465 81.2006 21.6583 81.3296 21.8289C81.3945 21.9113 81.4175 21.976 81.4235 22.0407H83.1178C83.0998 21.8995 83.0408 21.6995 82.9469 21.523C82.641 20.9346 81.9063 20.4639 80.324 20.4639C78.5418 20.4639 77.5652 21.0934 77.5652 21.9172C77.5652 22.7115 78.1189 23.1763 79.6123 23.3117L79.7083 23.3202L79.8682 23.3348L80.6239 23.4058C81.4065 23.4882 81.6174 23.5411 81.6174 23.7883C81.6174 24.0177 81.4125 24.1413 80.5479 24.1413C79.8772 24.1413 79.4834 24.0413 79.3414 23.8706C79.2834 23.8 79.2415 23.6941 79.2305 23.6235H77.5362C77.5542 23.7412 77.5832 23.9295 77.6481 24.0825C77.936 24.7297 78.6887 25.2239 80.4359 25.2239C82.3121 25.2239 83.2647 24.6944 83.2647 23.7177Z" fill="#AEB1BF"/>
<path fill-rule="evenodd" clip-rule="evenodd" d="M42.14 26.9219C40.8175 26.9219 40.1218 27.5491 40.1218 28.4707C40.1218 29.5108 40.8519 30.0385 42.14 30.0385C43.5582 30.0385 44.1544 29.4267 44.1544 28.4707C44.1544 27.4994 43.4817 26.9219 42.14 26.9219ZM42.14 29.2699C41.387 29.2699 41.1691 28.9601 41.1691 28.4821C41.1691 28.0118 41.4061 27.702 42.1362 27.702C42.9351 27.702 43.1148 28.05 43.1148 28.4821C43.1148 28.941 42.8969 29.2699 42.14 29.2699Z" fill="#AEB1BF"/>
<path d="M34.7861 29.0595C34.7861 28.5356 34.4535 28.2602 33.6776 28.1761C33.5514 28.1608 33.1807 28.1226 32.9475 28.1035C32.3473 28.0384 32.1677 28.004 32.1677 27.8511C32.1677 27.7134 32.3092 27.6484 32.8481 27.6484C33.2304 27.6484 33.4444 27.721 33.5285 27.8319C33.5705 27.8855 33.5858 27.9275 33.5897 27.9696H34.6905C34.679 27.8778 34.6408 27.7478 34.5797 27.6331C34.3809 27.2507 33.9031 26.9448 32.8748 26.9448C31.7167 26.9448 31.0822 27.3539 31.0822 27.8893C31.0822 28.4056 31.4414 28.7077 32.4123 28.7956C32.5461 28.8071 32.8672 28.8377 33.0698 28.8568C33.5782 28.9103 33.7157 28.9448 33.7157 29.1054C33.7157 29.2545 33.582 29.3348 33.0201 29.3348C32.5843 29.3348 32.3282 29.2698 32.2365 29.1589C32.1983 29.113 32.1715 29.0442 32.1639 28.9983H31.063C31.0745 29.0748 31.0936 29.1971 31.1357 29.2966C31.323 29.7172 31.8123 30.0384 32.9475 30.0384C34.1669 30.0384 34.7861 29.6943 34.7861 29.0595Z" fill="#AEB1BF"/>
<path fill-rule="evenodd" clip-rule="evenodd" d="M27.1542 29.1432C27.1542 29.3497 27.0969 29.5524 26.9822 29.6862C26.8064 29.9004 26.4776 29.9921 26.0534 29.9921H23.3892V26.9902H25.9807C26.3936 26.9902 26.6573 27.0897 26.8026 27.2388C26.9325 27.3688 26.9899 27.5409 26.9899 27.7359C26.9899 27.931 26.944 28.0916 26.8447 28.2101C26.7643 28.3096 26.6268 28.386 26.4815 28.4052C26.6955 28.4319 26.8981 28.539 27.0128 28.6881C27.1084 28.799 27.1542 28.9673 27.1542 29.1432ZM25.8661 28.0916C25.9043 28.0495 25.9273 27.9883 25.9273 27.9157C25.9273 27.843 25.9043 27.7818 25.8546 27.7398C25.8011 27.69 25.7017 27.6709 25.5564 27.6709H24.3906V28.1604H25.5832C25.7132 28.1604 25.8126 28.1413 25.8661 28.0916ZM25.6941 29.3115C25.8737 29.3115 25.9807 29.2885 26.0419 29.2312C26.0801 29.1929 26.0954 29.1356 26.0954 29.0629C26.0954 28.9864 26.0763 28.9291 26.0304 28.8832C25.9731 28.8335 25.8737 28.8105 25.7056 28.8105H24.3906V29.3115H25.6941Z" fill="#AEB1BF"/>
<path d="M30.7532 29.2465V29.9921H27.5921V26.9902H30.7265V27.7398H28.6012V28.126H30.6653V28.8564H28.6012V29.2465H30.7532Z" fill="#AEB1BF"/>
<path d="M38.5058 26.9902V27.7436H37.2368V29.9921H36.1895V27.7436H34.9243V26.9902H38.5058Z" fill="#AEB1BF"/>
<path d="M47.6519 26.9902V27.7512H45.6146V28.1757H47.5563V28.9291H45.6146V29.9921H44.5863V26.9902H47.6519Z" fill="#AEB1BF"/>
<path d="M52.8305 27.7436V26.9902H49.249V27.7436H50.5142V29.9921H51.5616V27.7436H52.8305Z" fill="#AEB1BF"/>
<path d="M56.7386 26.9902V29.9921H55.7142V28.9023H54.1776V29.9921H53.1532V26.9902H54.1776V28.0839H55.7142V26.9902H56.7386Z" fill="#AEB1BF"/>
<path d="M60.5056 29.9926V29.247H58.3535V28.8569H60.4176V28.1265H58.3535V27.7403H60.4788V26.9907H57.3444V29.9926H60.5056Z" fill="#AEB1BF"/>
<path d="M66.8426 26.9902H67.8322L66.7357 29.9921H65.6122C65.6122 29.9921 65.0114 28.1987 65.0074 28.1489C65.0044 28.1987 64.3997 29.9921 64.3997 29.9921H63.2802L62.1564 26.9902H63.2682C63.2682 26.9902 63.9189 28.8793 63.9189 28.9252C63.9189 28.8793 64.5187 26.9902 64.5187 26.9902H65.5932C65.5932 26.9902 66.1969 28.8793 66.1969 28.9252C66.1969 28.8793 66.8426 26.9902 66.8426 26.9902Z" fill="#AEB1BF"/>
<path fill-rule="evenodd" clip-rule="evenodd" d="M69.7947 26.9219C68.4723 26.9219 67.7766 27.5491 67.7766 28.4707C67.7766 29.5108 68.5062 30.0385 69.7947 30.0385C71.2131 30.0385 71.8088 29.4267 71.8088 28.4707C71.8088 27.4994 71.1361 26.9219 69.7947 26.9219ZM69.7947 29.2699C69.042 29.2699 68.8241 28.9601 68.8241 28.4821C68.8241 28.0118 69.061 27.702 69.7907 27.702C70.5903 27.702 70.7693 28.05 70.7693 28.4821C70.7693 28.941 70.5514 29.2699 69.7947 29.2699Z" fill="#AEB1BF"/>
<path fill-rule="evenodd" clip-rule="evenodd" d="M75.5936 27.2967C75.7306 27.4382 75.7956 27.6332 75.7956 27.9047C75.7956 28.138 75.7386 28.3368 75.6426 28.4707C75.5357 28.616 75.3717 28.7384 75.1688 28.7689L76.0744 29.9926H74.9359L74.1902 28.9334H73.2616V29.9926H72.2411V26.9907H74.6301C75.1039 26.9907 75.4137 27.1055 75.5936 27.2967ZM74.768 28.1571C74.794 28.1112 74.802 28.05 74.802 28.0003C74.802 27.9429 74.794 27.8818 74.768 27.8435C74.714 27.7441 74.6071 27.7173 74.4461 27.7173H73.2656V28.2642H74.4651C74.6301 28.2642 74.729 28.2336 74.768 28.1571Z" fill="#AEB1BF"/>
<path d="M79.2657 29.9926V29.1934H77.4385V26.9907H76.403V29.9926H79.2657Z" fill="#AEB1BF"/>
<path fill-rule="evenodd" clip-rule="evenodd" d="M83.3182 28.4357C83.3182 28.9023 83.2723 29.1547 83.1353 29.3918C82.9284 29.7703 82.5196 29.9921 81.7969 29.9921H79.6718V26.9902H81.7739C82.4926 26.9902 82.9174 27.1929 83.1273 27.5409C83.2763 27.7742 83.3182 28.0227 83.3182 28.4357ZM81.602 29.2541C81.9268 29.2541 82.1108 29.1776 82.2217 29.0094C82.2907 28.9061 82.3097 28.6652 82.3097 28.4549C82.3057 28.2637 82.2827 28.061 82.2217 27.9692C82.1028 27.7895 81.9238 27.7245 81.61 27.7245H80.6964V29.2541H81.602Z" fill="#AEB1BF"/>
<path d="M42.3195 44.5918H40.7356C40.7356 44.5918 39.702 47.6143 39.702 47.6877C39.702 47.6143 38.7357 44.5918 38.7357 44.5918H37.0172C37.0172 44.5918 36.057 47.6143 36.057 47.6877C36.057 47.6143 35.0173 44.5918 35.0173 44.5918H33.2376L35.0356 49.3947H36.8276C36.8276 49.3947 37.7938 46.5252 37.7999 46.4457C37.8061 46.5252 38.7662 49.3947 38.7662 49.3947H40.5642L42.3195 44.5918Z" fill="#AEB1BF"/>
<path d="M44.4866 49.3947V44.5918H42.804V49.3947H44.4866Z" fill="#AEB1BF"/>
<path d="M51.0275 44.5918V49.3947H49.3884L47.0094 46.721V49.3947H45.4316V44.5918H47.1561L49.4617 47.2044V44.5918H51.0275Z" fill="#AEB1BF"/>
<path d="M57.5788 49.3947V44.5918H56.0132V47.2044L53.7076 44.5918H51.9829V49.3947H53.5607V46.721L55.9398 49.3947H57.5788Z" fill="#AEB1BF"/>
<path d="M63.5915 48.2016V49.3947H58.5333V44.5918H63.5485V45.791H60.1479V46.409H63.4505V47.5776H60.1479V48.2016H63.5915Z" fill="#AEB1BF"/>
<path fill-rule="evenodd" clip-rule="evenodd" d="M70.0557 46.0541C70.0557 45.6197 69.9518 45.3077 69.7318 45.0813C69.444 44.7754 68.9492 44.5918 68.1905 44.5918H64.3682V49.3947H66.0015V47.6999H67.4878L68.6803 49.3947H70.5025L69.0531 47.4369C69.377 47.3879 69.6399 47.1921 69.8118 46.9596C69.9637 46.7455 70.0557 46.4273 70.0557 46.0541ZM68.4654 46.2071C68.4654 46.2866 68.4534 46.3845 68.4104 46.4579C68.3494 46.5803 68.1905 46.6292 67.9276 46.6292H66.0075V45.7543H67.8966C68.1535 45.7543 68.3255 45.7971 68.4104 45.9562C68.4534 46.0174 68.4654 46.1153 68.4654 46.2071Z" fill="#AEB1BF"/>
<path d="M37.4357 36.1184L36.7725 34.0762L36.1091 36.1184H33.9628L35.6992 37.3805L35.036 39.4227L36.7725 38.1606L38.5088 39.4227L37.8456 37.3805L39.582 36.1184H37.4357Z" fill="#AEB1BF"/>
<path d="M44.4294 34.0752L45.1062 36.1174H47.2964L45.5245 37.3796L46.2013 39.4217L44.4294 38.1596L42.6576 39.4217L43.3344 37.3796L41.5624 36.1174H43.7526L44.4294 34.0752Z" fill="#AEB1BF"/>
<path d="M52.701 36.1174L52.0243 34.0752L51.3475 36.1174H49.1572L50.9292 37.3796L50.2524 39.4217L52.0243 38.1596L53.7961 39.4217L53.1193 37.3796L54.8913 36.1174H52.701Z" fill="#AEB1BF"/>
<path d="M59.6209 34.0752L60.2977 36.1174H62.4878L60.716 37.3796L61.3928 39.4217L59.6209 38.1596L57.849 39.4217L58.5258 37.3796L56.7539 36.1174H58.9442L59.6209 34.0752Z" fill="#AEB1BF"/>
<path d="M67.9402 36.1174L67.2765 34.0752L66.6128 36.1174H64.4667L66.203 37.3796L65.5403 39.4217L67.2765 38.1596L69.0128 39.4217L68.3501 37.3796L70.0863 36.1174H67.9402Z" fill="#AEB1BF"/>
<path d="M95.784 12.1739C96.4187 10.5594 96.1428 8.70271 95.5581 7.1413C94.9424 5.4984 93.871 3.85971 92.2698 2.99561C92.1899 4.72711 92.7186 6.43761 93.2963 7.98011C93.816 9.36741 94.4527 10.8454 95.5052 11.9927C95.6671 12.8619 95.791 13.7287 95.878 14.5915C95.5291 13.6802 94.9644 12.8496 94.2588 12.1816C93.3503 11.3211 91.998 10.6573 90.7296 11.0499C91.1014 12.453 91.948 13.7982 92.9515 14.7418C93.7411 15.4845 94.7835 16.4361 96.0109 16.4736C96.0619 17.7437 96.0329 19.0022 95.9279 20.2436C95.755 19.3352 95.3842 18.4798 94.8475 17.8428C94.1109 16.9674 93.0184 15.8981 91.6241 16.077C91.7001 17.4972 92.2668 18.9523 93.0554 20.0457C93.6811 20.9146 94.5087 22.0221 95.6831 22.3082C95.4952 23.5277 95.2333 24.727 94.9005 25.9006C94.8975 25.002 94.6996 24.1199 94.3058 23.4124C93.751 22.4148 92.8865 21.1705 91.4902 21.0732C91.2853 22.4665 91.5632 23.9896 92.1229 25.201C92.5697 26.1693 93.1664 27.4041 94.2528 27.915C93.796 29.178 93.2563 30.4058 92.6366 31.5907C92.8545 30.5693 92.8455 29.493 92.5886 28.5245C92.2338 27.1897 91.3543 25.7875 89.941 25.3807C89.4413 26.8545 89.5102 28.4989 89.8011 29.9967C90.04 31.23 90.5087 32.6784 91.5602 33.4795C90.8725 34.5902 90.1119 35.6561 89.2813 36.6703C89.7281 35.6757 89.949 34.5878 89.8301 33.5919C89.6572 32.1415 89.2504 30.5902 87.7701 29.8172C86.9296 31.2672 86.7346 32.8939 86.6637 34.5006C86.6057 35.7996 86.7926 37.4018 87.6952 38.4586C86.7027 39.49 85.6332 40.4553 84.4908 41.3455C85.2284 40.3984 85.7452 39.2871 85.8541 38.1881C86.009 36.6352 85.9341 34.9258 84.5558 33.7861C83.3784 35.0171 82.6747 36.83 82.3309 38.4046C82.0261 39.7967 81.7082 41.4446 82.4329 42.8147C80.9786 43.7649 79.4254 44.602 77.7832 45.311C78.9386 44.4872 79.8842 43.3569 80.3349 42.1899C80.9256 40.6605 81.2904 38.8379 80.141 37.3061C78.5998 38.2936 77.4674 39.9783 76.5749 41.515C75.8093 42.8336 75.0167 44.6535 75.4105 46.2238C74.5009 46.5324 73.5684 46.8034 72.6139 47.0346L72.6709 47.2691C73.6284 47.037 74.5649 46.7651 75.4774 46.4556C76.1171 48.3462 78.212 48.971 79.9061 49.2467C82.3199 49.6396 85.1944 48.8784 87.2554 47.3447C86.1669 45.8068 83.9481 45.6508 82.2749 45.5331L82.2529 45.5316C80.4199 45.4027 78.4369 45.5749 76.5939 46.0542C78.7228 45.2431 80.7157 44.2231 82.5538 43.0241L82.5788 43.0641C83.5853 44.7003 85.6082 44.7643 87.1954 44.6609C89.3493 44.5207 91.835 43.2108 93.2733 41.4001C91.92 40.2123 89.922 40.5446 88.3728 40.8021L88.3648 40.8035C86.6367 41.0909 84.7487 41.7178 83.1635 42.6832C83.3144 42.5643 83.4613 42.4386 83.6053 42.3067C85.1465 41.2072 86.5677 39.9773 87.8581 38.6363C87.8761 38.6542 87.8941 38.6718 87.912 38.6893C89.1674 39.9424 90.9895 39.6118 92.4127 39.2017C94.3218 38.6517 96.3007 36.9924 97.2493 35.0875C95.779 34.2635 94.0219 34.9424 92.6556 35.4796C91.1534 36.0696 89.5652 37.0137 88.3438 38.2174C88.4698 38.0584 88.5907 37.8922 88.7046 37.7202C89.8391 36.4385 90.8605 35.066 91.7581 33.618L91.7971 33.6421L91.807 33.6484C93.2253 34.5616 94.8325 33.8985 96.1058 33.2463C97.834 32.3614 99.2232 30.4166 99.8229 28.504C98.2897 28.0127 96.7755 28.977 95.5981 29.7407C94.3088 30.5764 93.0034 31.7684 92.1079 33.1355C92.1739 33.0006 92.2358 32.8626 92.2928 32.7221C93.1534 31.2198 93.884 29.6428 94.4757 28.0069L94.5067 28.0173L94.5117 28.0193C95.802 28.508 97.2383 27.7453 98.1748 26.9089C99.4761 25.7457 100.395 23.9574 100.61 22.2103C99.2642 22.0359 97.9959 23.0775 97.1293 23.9658C96.1318 24.989 95.2353 26.1983 94.6846 27.5417C94.7256 27.3951 94.7605 27.2462 94.7895 27.0957C95.2903 25.5589 95.6701 23.974 95.9199 22.3538L95.9579 22.3588C97.3172 22.579 98.5746 21.5441 99.3262 20.5396C100.384 19.1261 100.928 17.1698 100.791 15.3966C99.4331 15.4918 98.3977 16.7854 97.727 17.832C96.9494 19.0441 96.3047 20.416 96.0229 21.8513C96.0319 21.7365 96.0369 21.6211 96.0389 21.5053C96.2458 19.856 96.3197 18.1729 96.2518 16.4691C97.6401 16.4204 98.6685 15.1308 99.1983 13.9872C99.9549 12.3515 100.077 10.2837 99.5721 8.54121C98.2497 8.91251 97.5121 10.4298 97.0773 11.5979C96.5756 12.9447 96.2258 14.4138 96.2228 15.8742C96.1508 14.649 96.0049 13.414 95.784 12.1739Z" fill="#AEB1BF"/>
</svg>
