<svg width="169" height="50" viewBox="0 0 169 50" fill="none" xmlns="http://www.w3.org/2000/svg">
<path d="M55.72 17.2355C55.72 16.3498 55.5984 15.6985 55.3554 15.2817C55.1124 14.8474 54.6264 14.6304 53.8973 14.6304H53.3766V14.1094H55.72C56.3622 14.1094 56.8396 14.1963 57.152 14.3699C57.4819 14.5262 57.7162 14.8215 57.8551 15.2556C57.994 15.6898 58.0634 16.3498 58.0634 17.2355V30.2611H67.3068V31.3031H55.72V17.2355Z" fill="#AEB1BF"/>
<path d="M73.2428 31.5636C72.0623 31.5636 71.0381 31.2857 70.1701 30.73C69.3021 30.1568 68.6425 29.384 68.1911 28.4115C67.7398 27.4389 67.514 26.3621 67.514 25.1811C67.514 24.0001 67.7398 22.9234 68.1911 21.9507C68.6425 20.9782 69.3021 20.214 70.1701 19.6583C71.0381 19.0851 72.0623 18.7986 73.2428 18.7986C74.4233 18.7986 75.4475 19.0851 76.3155 19.6583C77.1836 20.214 77.8432 20.9782 78.2946 21.9507C78.7459 22.9234 78.9716 24.0001 78.9716 25.1811C78.9716 26.3621 78.7459 27.4389 78.2946 28.4115C77.8432 29.384 77.1836 30.1568 76.3155 30.73C75.4475 31.2857 74.4233 31.5636 73.2428 31.5636ZM73.2428 30.5216C73.8851 30.5216 74.4493 30.2871 74.9354 29.8182C75.4388 29.3493 75.8208 28.7067 76.0812 27.8905C76.3589 27.0742 76.4978 26.1711 76.4978 25.1811C76.4978 24.1911 76.3589 23.288 76.0812 22.4718C75.8208 21.6555 75.4388 21.0129 74.9354 20.544C74.4493 20.0751 73.8851 19.8406 73.2428 19.8406C72.6005 19.8406 72.0276 20.0751 71.5241 20.544C71.0381 21.0129 70.6562 21.6555 70.3784 22.4718C70.1181 23.288 69.9879 24.1911 69.9879 25.1811C69.9879 26.1711 70.1181 27.0742 70.3784 27.8905C70.6562 28.7067 71.0381 29.3493 71.5241 29.8182C72.0276 30.2871 72.6005 30.5216 73.2428 30.5216Z" fill="#AEB1BF"/>
<path d="M85.7738 36.5134C84.0204 36.5134 82.6229 36.1921 81.5813 35.5495C80.5571 34.9068 80.0449 33.8822 80.0449 32.4755C80.0449 31.6766 80.314 30.9818 80.8522 30.3913C81.3903 29.8008 82.076 29.3667 82.9094 29.0888C82.2149 28.7067 81.8677 28.1856 81.8677 27.5257C81.8677 27.1784 81.9459 26.9091 82.1021 26.7182C82.2584 26.5271 82.484 26.3187 82.7792 26.0929C82.2237 25.8151 81.7549 25.3808 81.373 24.7904C81.0084 24.1999 80.8261 23.5052 80.8261 22.7062C80.8261 20.1012 82.4754 18.7986 85.7738 18.7986H90.5911V19.4499L88.8985 19.7103V19.8406C89.4367 20.1185 89.8707 20.5093 90.2005 21.0129C90.5477 21.4992 90.7213 22.0637 90.7213 22.7062C90.7213 25.3114 89.0721 26.614 85.7738 26.614C83.951 26.614 83.0395 26.9179 83.0395 27.5257C83.0395 28.1336 83.951 28.4375 85.7738 28.4375C87.4577 28.4375 88.829 28.7761 89.888 29.4535C90.9643 30.1134 91.5025 31.1207 91.5025 32.4755C91.5025 33.8822 90.9817 34.9068 89.9401 35.5495C88.9159 36.1921 87.5271 36.5134 85.7738 36.5134ZM85.7738 25.7021C86.5549 25.7021 87.1798 25.4676 87.6486 24.9988C88.1347 24.5125 88.3777 23.7483 88.3777 22.7062C88.3777 21.7163 88.1347 20.9695 87.6486 20.4658C87.1798 19.9622 86.5549 19.7103 85.7738 19.7103C84.9925 19.7103 84.3589 19.9536 83.8729 20.4398C83.4041 20.9087 83.1697 21.6642 83.1697 22.7062C83.1697 23.7483 83.4041 24.5125 83.8729 24.9988C84.3589 25.4676 84.9925 25.7021 85.7738 25.7021ZM85.7738 35.4713C86.8153 35.4713 87.6399 35.2194 88.2475 34.7159C88.8551 34.2296 89.1589 33.4827 89.1589 32.4755C89.1589 30.7386 88.1174 29.74 86.0341 29.4796L84.602 29.3493C83.8902 29.6272 83.3433 30.0179 82.9614 30.5216C82.5795 31.0253 82.3885 31.6766 82.3885 32.4755C82.3885 33.4827 82.6923 34.2296 83.3 34.7159C83.9076 35.2194 84.7321 35.4713 85.7738 35.4713Z" fill="#AEB1BF"/>
<path d="M98.3025 31.5636C97.122 31.5636 96.0978 31.2857 95.2298 30.73C94.3618 30.1568 93.7021 29.384 93.2507 28.4115C92.7993 27.4389 92.5737 26.3621 92.5737 25.1811C92.5737 24.0001 92.7993 22.9234 93.2507 21.9507C93.7021 20.9782 94.3618 20.214 95.2298 19.6583C96.0978 19.0851 97.122 18.7986 98.3025 18.7986C99.4829 18.7986 100.507 19.0851 101.375 19.6583C102.243 20.214 102.903 20.9782 103.354 21.9507C103.805 22.9234 104.031 24.0001 104.031 25.1811C104.031 26.3621 103.805 27.4389 103.354 28.4115C102.903 29.384 102.243 30.1568 101.375 30.73C100.507 31.2857 99.4829 31.5636 98.3025 31.5636ZM98.3025 30.5216C98.9448 30.5216 99.509 30.2871 99.9951 29.8182C100.499 29.3493 100.88 28.7067 101.141 27.8905C101.419 27.0742 101.558 26.1711 101.558 25.1811C101.558 24.1911 101.419 23.288 101.141 22.4718C100.88 21.6555 100.499 21.0129 99.9951 20.544C99.509 20.0751 98.9448 19.8406 98.3025 19.8406C97.6601 19.8406 97.0873 20.0751 96.5838 20.544C96.0978 21.0129 95.7159 21.6555 95.4381 22.4718C95.1777 23.288 95.0475 24.1911 95.0475 25.1811C95.0475 26.1711 95.1777 27.0742 95.4381 27.8905C95.7159 28.7067 96.0978 29.3493 96.5838 29.8182C97.0873 30.2871 97.6601 30.5216 98.3025 30.5216Z" fill="#AEB1BF"/>
<path d="M107.684 17.496C107.284 17.496 106.936 17.331 106.641 17.0011C106.364 16.6711 106.225 16.2803 106.225 15.8288C106.225 15.464 106.33 15.1775 106.537 14.9691C106.763 14.7607 107.059 14.6565 107.423 14.6565C107.822 14.6565 108.16 14.8215 108.438 15.1514C108.734 15.4815 108.881 15.8722 108.881 16.3237C108.881 16.6885 108.768 16.975 108.542 17.1834C108.334 17.3918 108.048 17.496 107.684 17.496ZM106.694 22.1852C106.694 21.2996 106.572 20.6483 106.33 20.2315C106.086 19.7972 105.6 19.5802 104.871 19.5802H104.35V19.0592H106.694C107.336 19.0592 107.813 19.1459 108.126 19.3196C108.456 19.476 108.69 19.7712 108.829 20.2054C108.968 20.6395 109.037 21.2996 109.037 22.1852V31.3032H106.694V22.1852Z" fill="#AEB1BF"/>
<path d="M112.32 22.1852C112.32 21.2995 112.199 20.6482 111.955 20.2314C111.713 19.7972 111.226 19.5802 110.498 19.5802H109.977V19.0591H112.32C112.98 19.0591 113.474 19.1546 113.804 19.3457C114.151 19.5193 114.395 19.8146 114.533 20.2314H114.663C114.976 19.8319 115.419 19.4933 115.992 19.2154C116.564 18.9375 117.293 18.7986 118.179 18.7986C119.671 18.7986 120.826 19.4065 121.641 20.6222C122.458 21.8205 122.865 23.3402 122.865 25.1811C122.865 27.0394 122.441 28.5677 121.589 29.7661C120.757 30.9645 119.533 31.5636 117.918 31.5636C117.259 31.5636 116.677 31.4941 116.174 31.3552C115.67 31.2163 115.167 31.0253 114.663 30.7821V36.2528H112.32V22.1852ZM117.137 30.5216C118.248 30.5216 119.064 30.0353 119.585 29.0628C120.122 28.0902 120.392 26.7963 120.392 25.1811C120.392 23.5833 120.141 22.2982 119.637 21.3255C119.134 20.3356 118.387 19.8406 117.398 19.8406C116.234 19.8406 115.323 20.3616 114.663 21.4037V29.74C115.185 29.9832 115.636 30.1742 116.018 30.3132C116.399 30.4521 116.773 30.5216 117.137 30.5216Z" fill="#AEB1BF"/>
<path d="M129.248 31.5636C127.251 31.5636 125.905 31.2163 125.211 30.5216C124.916 30.2264 124.734 29.8964 124.664 29.5316C124.595 29.1495 124.56 28.5677 124.56 27.7863H125.081C125.237 28.6546 125.611 29.332 126.2 29.8182C126.808 30.2871 127.65 30.5216 128.726 30.5216C129.681 30.5216 130.393 30.3566 130.861 30.0267C131.348 29.6966 131.59 29.2537 131.59 28.698C131.59 28.1944 131.4 27.7602 131.018 27.3954C130.654 27.0308 130.063 26.6834 129.248 26.3534L127.685 25.7021C126.643 25.2853 125.862 24.799 125.341 24.2433C124.821 23.6875 124.56 23.0015 124.56 22.1852C124.56 21.1259 124.959 20.3009 125.758 19.7103C126.557 19.1025 127.589 18.7986 128.857 18.7986C130.767 18.7986 132.068 19.1459 132.762 19.8406C133.057 20.1359 133.24 20.4658 133.309 20.8306C133.379 21.1953 133.414 21.7771 133.414 22.576H132.893C132.754 21.7076 132.39 21.039 131.799 20.57C131.208 20.0837 130.402 19.8406 129.378 19.8406C128.561 19.8406 127.919 20.0143 127.45 20.3616C126.999 20.6916 126.773 21.1259 126.773 21.6642C126.773 22.5673 127.468 23.3055 128.857 23.8785L130.419 24.5298C131.599 25.0161 132.459 25.5372 132.997 26.0929C133.535 26.6313 133.804 27.3259 133.804 28.177C133.804 29.2364 133.379 30.07 132.528 30.6779C131.678 31.2684 130.584 31.5636 129.248 31.5636Z" fill="#AEB1BF"/>
<path d="M140.451 31.5635C139.149 31.5635 138.081 31.2162 137.248 30.5215C136.432 29.8268 136.025 28.6112 136.025 26.8743V22.1851C136.025 21.2995 135.902 20.6482 135.66 20.2314C135.417 19.7972 134.931 19.5801 134.201 19.5801H133.942V19.0591H136.025C136.667 19.0591 137.143 19.1459 137.456 19.3195C137.786 19.4759 138.02 19.7711 138.16 20.2053C138.298 20.6394 138.367 21.2995 138.367 22.1851V26.8743C138.367 28.0901 138.637 28.9845 139.175 29.5576C139.73 30.1134 140.416 30.3912 141.232 30.3912C142.151 30.3912 143.02 29.931 143.835 29.0105V19.0591H146.179V31.3031H144.877L143.966 30.2611H143.835C143.471 30.6257 142.993 30.9383 142.404 31.1989C141.831 31.442 141.18 31.5635 140.451 31.5635Z" fill="#AEB1BF"/>
<path d="M149.542 22.1852C149.542 21.2995 149.421 20.6482 149.177 20.2314C148.935 19.7972 148.449 19.5802 147.72 19.5802H147.199V19.0591H149.542C150.184 19.0591 150.671 19.1459 151.001 19.3196C151.348 19.4933 151.599 19.7538 151.755 20.1012H151.886C152.25 19.7364 152.719 19.4325 153.291 19.1893C153.882 18.9289 154.542 18.7986 155.271 18.7986C156 18.7986 156.625 18.9375 157.145 19.2154C157.666 19.4759 158.083 19.9448 158.395 20.6222C158.846 20.049 159.419 19.6061 160.114 19.2935C160.825 18.9636 161.554 18.7986 162.3 18.7986C163.412 18.7986 164.297 19.1459 164.957 19.8406C165.616 20.5353 165.946 21.7511 165.946 23.4878V31.3032H163.603V23.4878C163.603 22.2374 163.429 21.3429 163.082 20.8045C162.735 20.2488 162.214 19.9709 161.52 19.9709C161.034 19.9709 160.522 20.1532 159.983 20.518C159.446 20.8653 159.046 21.2474 158.786 21.6642C158.873 21.9248 158.916 22.5325 158.916 23.4878V31.3032H156.573V23.4878C156.573 22.2374 156.399 21.3429 156.051 20.8045C155.704 20.2488 155.184 19.9709 154.49 19.9709C153.569 19.9709 152.702 20.4311 151.886 21.3516V31.3032H149.542V22.1852Z" fill="#AEB1BF"/>
<path fill-rule="evenodd" clip-rule="evenodd" d="M27.9412 3.61379C29.7398 4.46152 31.1353 6.11106 31.5806 8.20692L33.0437 15.094C33.5442 17.4493 33.5872 19.8537 33.1961 22.1833C33.2936 22.1986 33.3918 22.2113 33.4903 22.2216C33.9532 20.2135 34.087 18.1245 33.8676 16.0362L33.132 9.03383C32.8589 6.43335 31.0652 4.36104 28.7278 3.60827C28.6126 3.60209 28.4967 3.59897 28.38 3.59897C28.2325 3.59897 28.0862 3.60396 27.9412 3.61379ZM27.5573 3.65141C29.4497 4.42653 30.9384 6.09414 31.3956 8.24625L32.8588 15.1333C33.3541 17.4649 33.397 19.8449 33.0098 22.1509C32.9288 22.1355 32.8483 22.1184 32.7682 22.0997C33.0382 19.4894 32.7668 16.8263 31.9406 14.2824L29.766 7.58611C29.2241 5.91724 28.0795 4.61272 26.6517 3.83531C26.9455 3.75299 27.248 3.69115 27.5573 3.65141ZM27.5826 3.4576C27.7205 3.44097 27.8597 3.42858 27.9999 3.4206C27.7364 3.36906 27.4676 3.33389 27.1949 3.31608C27.3258 3.35925 27.4551 3.40646 27.5826 3.4576ZM26.4485 3.31099C26.7026 3.36429 26.9521 3.4329 27.1961 3.516C26.9278 3.56471 26.6654 3.62968 26.4095 3.70983C26.1686 3.59129 25.9206 3.48737 25.6667 3.39879C25.8101 3.37383 25.9553 3.35353 26.1021 3.33809C26.2179 3.3259 26.3335 3.3169 26.4485 3.31099ZM26.4635 3.12086C27.2619 3.08283 28.0374 3.19018 28.7625 3.42073C32.2216 3.61892 34.9655 6.48821 34.9655 9.99871V17.0396C34.9655 18.8188 34.7158 20.5722 34.2357 22.253H39.9599C43.5969 22.253 46.5454 25.2029 46.5454 28.8418C46.5454 29.7804 46.3493 30.6731 45.9958 31.4811C45.8669 32.2702 45.6007 33.0066 45.2246 33.6681C45.014 34.4395 44.6723 35.1442 44.229 35.7629C43.9392 36.5074 43.5264 37.1718 43.0216 37.7403C42.6553 38.4515 42.1746 39.0701 41.6123 39.5832C41.1735 40.2522 40.6307 40.817 40.0178 41.2685C39.5117 41.8875 38.9131 42.3922 38.2566 42.7769C37.6888 43.3395 37.0409 43.7787 36.348 44.0928C35.7248 44.5927 35.0347 44.9617 34.3131 45.2016C33.6407 45.634 32.9155 45.929 32.1724 46.0922C31.4585 46.4517 30.7067 46.6692 29.9507 46.7537C29.2031 47.0367 28.4325 47.1743 27.6718 47.1793C26.8988 47.3825 26.1181 47.4388 25.3611 47.3642C24.5712 47.4855 23.7889 47.4598 23.0438 47.3064C22.2455 47.3444 21.4702 47.2371 20.7453 47.0065C17.286 46.8086 14.5418 43.9393 14.5418 40.4286V34.5581C14.5418 32.3615 14.9224 30.2042 15.6472 28.1744H9.54554C5.90846 28.1744 2.96002 25.2244 2.96002 21.5855C2.96002 20.6476 3.15589 19.7555 3.50894 18.9477C3.63771 18.1584 3.90385 17.4218 4.27997 16.76C4.4905 15.9886 4.83205 15.2841 5.27511 14.6655C5.56536 13.9194 5.97923 13.2538 6.48522 12.6845C6.85149 11.9741 7.33195 11.3564 7.89376 10.8437C8.3321 10.1755 8.87435 9.61122 9.48654 9.16001C9.99243 8.54095 10.5909 8.03622 11.2472 7.65134C11.8151 7.08841 12.4632 6.64895 13.1564 6.3348C13.7801 5.8343 14.4708 5.46502 15.1931 5.22513C15.8655 4.79289 16.5907 4.49803 17.3337 4.33502C18.0477 3.97538 18.7997 3.7579 19.5559 3.67347C20.3034 3.3905 21.074 3.25288 21.8347 3.24797C22.6078 3.04469 23.3886 2.9884 24.1457 3.06309C24.9359 2.94177 25.7182 2.96742 26.4635 3.12086ZM24.8934 3.18076C25.1666 3.16993 25.4376 3.1768 25.7051 3.20049C25.5665 3.22311 25.4293 3.24999 25.294 3.28097C25.1617 3.24345 25.0281 3.21 24.8934 3.18076ZM23.4001 3.22158C23.1315 3.22598 22.8612 3.24748 22.5907 3.2868C22.7278 3.3018 22.8642 3.32108 22.9996 3.34458C23.1309 3.29963 23.2645 3.25857 23.4001 3.22158ZM23.3827 3.42278C23.5226 3.38297 23.6647 3.34763 23.8091 3.31693C23.9231 3.29268 24.037 3.27165 24.1507 3.25375C24.409 3.2802 24.6644 3.32234 24.9156 3.37949C24.6541 3.45596 24.3998 3.548 24.1539 3.65445C23.902 3.56174 23.6444 3.48432 23.3827 3.42278ZM22.6336 3.48212C22.3777 3.45154 22.1193 3.43634 21.8595 3.43706C21.7483 3.46677 21.6371 3.49962 21.5261 3.53567C21.3859 3.58127 21.2483 3.63126 21.1134 3.68543C21.3802 3.71928 21.6445 3.76936 21.9047 3.83524C22.1382 3.70366 22.3815 3.58554 22.6336 3.48212ZM22.1677 3.9076C22.4379 3.76599 22.7208 3.64263 23.0151 3.53944C23.3175 3.59426 23.6153 3.67071 23.9061 3.76788C23.6147 3.90869 23.3359 4.07009 23.0715 4.25002C22.7786 4.1138 22.4764 3.99943 22.1677 3.9076ZM21.6701 3.97396C21.3708 3.9077 21.0666 3.86279 20.7599 3.83991C20.478 3.97333 20.2096 4.12562 19.9555 4.29474C20.2723 4.35378 20.5847 4.43596 20.8903 4.54084C21.1346 4.3342 21.395 4.14448 21.6701 3.97396ZM21.0965 4.61544C21.3573 4.40234 21.6364 4.20883 21.9318 4.03766C22.26 4.12487 22.5813 4.23806 22.8923 4.37634C22.6 4.58982 22.3265 4.82652 22.0744 5.08342C21.7603 4.89981 21.4331 4.74362 21.0965 4.61544ZM20.9307 4.75565C20.6509 5.00061 20.3937 5.26883 20.1619 5.55658C20.5227 5.73271 20.8703 5.94352 21.1995 6.18875C21.4164 5.84513 21.6644 5.52219 21.9401 5.22426C21.6163 5.03801 21.2784 4.88158 20.9307 4.75565ZM20.7253 4.68519C20.4569 4.92807 20.2098 5.19205 19.9859 5.47388C19.6543 5.32408 19.3124 5.20293 18.9643 5.11063C19.2014 4.87145 19.4586 4.64986 19.7345 4.44876C20.0701 4.50117 20.4016 4.58017 20.7253 4.68519ZM19.6865 4.25027C19.9049 4.09497 20.1345 3.95204 20.3746 3.82281C20.117 3.81915 19.8584 3.83107 19.6003 3.85892C19.4926 3.90013 19.3855 3.94444 19.2789 3.99191C19.1442 4.05194 19.0125 4.11606 18.884 4.18407C19.1528 4.18982 19.4209 4.21198 19.6865 4.25027ZM18.5487 4.37465C18.8559 4.36535 19.1631 4.37819 19.4676 4.41277C19.2118 4.61111 18.9727 4.82697 18.7514 5.05799C18.4367 4.98567 18.1173 4.93662 17.7963 4.91102C18.0313 4.71629 18.2823 4.53678 18.5487 4.37465ZM18.4931 4.18726C18.6122 4.11596 18.7343 4.04802 18.8593 3.98363C18.5974 4.04381 18.3376 4.12106 18.0812 4.21579C18.2183 4.20195 18.3556 4.19246 18.4931 4.18726ZM17.3973 4.5148C17.6511 4.46011 17.9071 4.42124 18.1636 4.39794C17.9384 4.55152 17.7252 4.71766 17.5241 4.89492C17.2559 4.8846 16.9871 4.89059 16.7191 4.91296C16.8397 4.83192 16.9639 4.75442 17.0917 4.68064C17.1927 4.62231 17.2946 4.56704 17.3973 4.5148ZM16.6734 4.71628C16.4195 4.80347 16.1691 4.90744 15.9241 5.02842C16.059 5.00033 16.1946 4.97653 16.3307 4.95701C16.4417 4.87367 16.5559 4.79337 16.6734 4.71628ZM16.025 5.20096C15.8171 5.3773 15.6222 5.56487 15.4407 5.76225C15.1728 5.78005 14.9061 5.81413 14.6419 5.86442C14.7534 5.77121 14.8689 5.68113 14.9882 5.59441C15.0826 5.52575 15.1783 5.46004 15.2752 5.39728C15.5218 5.31636 15.7723 5.25095 16.025 5.20096ZM16.4055 5.13756C16.1575 5.32669 15.9265 5.53151 15.7131 5.74978C16.0352 5.74167 16.3579 5.75704 16.6785 5.79605C16.8745 5.54314 17.0898 5.30343 17.3234 5.07941C17.017 5.07685 16.7101 5.09619 16.4055 5.13756ZM17.5926 5.0873C17.3392 5.31616 17.1065 5.56347 16.8956 5.82614C17.2514 5.8815 17.604 5.96621 17.9493 6.08047C18.1426 5.77678 18.3608 5.48841 18.6024 5.21881C18.2695 5.14825 17.9317 5.10435 17.5926 5.0873ZM18.814 5.2674C18.5613 5.54027 18.3337 5.8339 18.1331 6.1443C18.5104 6.28175 18.8782 6.45507 19.2313 6.66457C19.4111 6.30018 19.624 5.95309 19.8671 5.62798C19.5255 5.47657 19.1731 5.35629 18.814 5.2674ZM20.0427 5.70907C19.793 6.03874 19.5754 6.39207 19.3933 6.76383C19.7038 6.96044 20.002 7.18581 20.2843 7.44012L20.5125 7.64574C20.662 7.1916 20.8598 6.75771 21.1005 6.35085C20.7657 6.10007 20.4111 5.88605 20.0427 5.70907ZM21.2512 6.46739C21.0089 6.88047 20.8121 7.322 20.6666 7.78448L21.8882 8.88497C21.9707 8.39971 22.1063 7.93253 22.2888 7.48962L22.0252 7.19672C21.7837 6.92834 21.5246 6.68517 21.2512 6.46739ZM22.4296 7.64606C22.2552 8.08735 22.1283 8.55267 22.0554 9.0357L25.514 12.1514C28.2917 14.6537 30.2466 17.9002 31.1758 21.4653C31.193 21.4753 31.2102 21.4853 31.2275 21.495C30.5919 18.1464 29.0514 15.0041 26.7341 12.4291L22.4296 7.64606ZM31.4413 21.6108C30.8173 18.1719 29.2501 14.9422 26.8746 12.3025L22.5098 7.45252C22.7028 7.00774 22.9448 6.58919 23.229 6.20368C23.4782 6.44894 23.7105 6.71796 23.9228 7.01024L28.0592 12.7065C29.9872 15.3615 31.1689 18.4496 31.5284 21.6546C31.4992 21.6403 31.4701 21.6257 31.4413 21.6108ZM31.2715 21.7353C31.2609 21.7297 31.2504 21.724 31.24 21.7183C31.2613 21.8055 31.2822 21.8929 31.3025 21.9804C31.3065 21.9837 31.3106 21.987 31.3147 21.9903C31.3008 21.9052 31.2865 21.8202 31.2715 21.7353ZM31.5324 22.1578C31.5164 22.0525 31.4996 21.9474 31.4819 21.8425C31.5051 21.8538 31.5285 21.8649 31.5518 21.8759C31.5624 21.9814 31.5721 22.0871 31.5809 22.193C31.5646 22.1814 31.5484 22.1696 31.5324 22.1578ZM30.9419 21.3215C30.0025 17.8672 28.0877 14.7244 25.3876 12.2919L22.0253 9.26308C21.9977 9.50447 21.9835 9.74993 21.9835 9.99871V10.5718L24.1454 12.1433C27.3143 14.4469 29.67 17.6577 30.9289 21.3131C30.9333 21.3159 30.9376 21.3187 30.9419 21.3215ZM30.5534 20.8305C29.2664 17.4374 27.0133 14.4619 24.0343 12.2964L21.9835 10.8056V11.8164L22.7834 12.2785C26.2214 14.2643 28.9259 17.2644 30.5534 20.8305ZM21.7945 11.7072V10.6682L20.3739 9.6356C20.3716 9.8786 20.3832 10.1243 20.4092 10.3718L20.4691 10.9416L21.7945 11.7072ZM20.4935 11.1741L21.7945 11.9256V12.7163C21.6779 12.6615 21.5606 12.6078 21.4427 12.5552L20.5991 12.1795L20.4935 11.1741ZM20.2667 10.8246L20.2212 10.3915C20.1896 10.0913 20.1788 9.79366 20.1875 9.50005L18.8298 8.51312C18.7508 8.98098 18.7235 9.46245 18.7525 9.95L20.2667 10.8246ZM18.7702 10.1787L20.2911 11.0572L20.3996 12.0907L19.0013 11.4678L18.8823 10.9075C18.8306 10.6639 18.7934 10.4207 18.7702 10.1787ZM18.5575 9.83739C18.5375 9.34562 18.5731 8.8605 18.6595 8.38937L18.341 8.15785C18.0488 7.94545 17.7447 7.76139 17.4318 7.60516C17.2807 8.05953 17.1798 8.53229 17.1336 9.01483L18.5575 9.83739ZM17.1171 9.22369L18.5707 10.0634C18.5927 10.3564 18.6346 10.6514 18.6973 10.9468L18.7878 11.3727L17.1903 10.661C17.1104 10.1791 17.0873 9.69731 17.1171 9.22369ZM16.9541 8.91116C17.0059 8.43596 17.1092 7.9705 17.2601 7.52256C16.8806 7.34694 16.4893 7.21138 16.0922 7.11497C15.9163 7.48931 15.777 7.88012 15.676 8.28157C16.0209 8.40934 16.3597 8.56784 16.689 8.75802L16.9541 8.91116ZM15.6323 8.46714C15.9598 8.58983 16.2816 8.74111 16.5945 8.92184L16.9348 9.11844C16.898 9.59609 16.9133 10.0823 16.9846 10.5694L15.4828 9.90042C15.4784 9.41565 15.5294 8.93488 15.6323 8.46714ZM15.497 8.21818C15.5972 7.82443 15.7333 7.44071 15.9035 7.0722C15.538 6.99518 15.1683 6.9509 14.7987 6.93866C14.6082 7.25811 14.4466 7.59263 14.3148 7.93794C14.7125 7.99383 15.1082 8.0868 15.497 8.21818ZM14.2486 8.11982C14.6537 8.17414 15.057 8.26804 15.4528 8.40297C15.3496 8.86427 15.2954 9.33803 15.2935 9.81608L15.0138 9.69149C14.6666 9.53679 14.313 9.41459 13.9567 9.32358C14.0151 8.91377 14.1129 8.5105 14.2486 8.11982ZM14.1219 7.91374C14.2478 7.57651 14.4014 7.24907 14.5817 6.93516C14.2412 6.93541 13.9016 6.96277 13.5662 7.0167C13.366 7.29324 13.1897 7.58351 13.0381 7.88427C13.3977 7.86434 13.7603 7.87382 14.1219 7.91374ZM12.9436 8.07983C13.3125 8.05332 13.6849 8.05867 14.0565 8.09703C13.9258 8.48132 13.8304 8.87719 13.772 9.27927C13.3715 9.18926 12.9682 9.13817 12.5669 9.12419C12.6618 8.76702 12.7876 8.41744 12.9436 8.07983ZM12.8194 7.90004C12.9585 7.61192 13.1193 7.33269 13.3013 7.06501C13.0008 7.12632 12.7045 7.20915 12.415 7.31311C12.2118 7.54964 12.0285 7.79797 11.8652 8.05578C12.1786 7.98078 12.4976 7.92863 12.8194 7.90004ZM11.726 8.28647C12.0539 8.19773 12.3888 8.13496 12.7273 8.09906C12.5809 8.4301 12.4624 8.77178 12.3724 9.1203C12.0086 9.11843 11.6471 9.14692 11.2914 9.20438C11.4108 8.88947 11.5556 8.58241 11.726 8.28647ZM11.6013 8.12472C11.7378 7.89398 11.8894 7.67003 12.056 7.45436C11.8191 7.5559 11.5877 7.67207 11.3632 7.80264C11.2818 7.88393 11.2021 7.96784 11.1242 8.05437C11.0254 8.16416 10.9312 8.27643 10.8413 8.39096C11.0892 8.28678 11.3431 8.1979 11.6013 8.12472ZM10.6123 8.70164C10.8893 8.56801 11.1752 8.45467 11.4675 8.36227C11.3145 8.64746 11.1838 8.94191 11.0756 9.24293C10.7587 9.30502 10.4471 9.39021 10.1433 9.49752C10.2788 9.22413 10.435 8.95807 10.6123 8.70164ZM10.4853 8.55309C10.5652 8.43957 10.6489 8.32791 10.7368 8.21832C10.5224 8.37974 10.3165 8.55594 10.121 8.7467C10.2406 8.67828 10.362 8.61372 10.4853 8.55309ZM9.61776 9.29835C9.82731 9.14509 10.0452 9.00542 10.27 8.87971C10.1269 9.11155 9.99959 9.35002 9.88804 9.59368C9.63897 9.6934 9.39592 9.80826 9.16038 9.93771C9.23768 9.81452 9.31967 9.6931 9.40639 9.57367C9.4748 9.47947 9.54529 9.3877 9.61776 9.29835ZM9.03826 9.77727C8.84205 9.96003 8.65597 10.1566 8.48157 10.3665C8.59322 10.286 8.70722 10.2092 8.82335 10.1361C8.89078 10.015 8.9624 9.89532 9.03826 9.77727ZM8.64331 10.4834C8.43298 10.6318 8.23099 10.7934 8.0387 10.9676C7.97577 11.0642 7.91507 11.1632 7.85671 11.2643C7.78311 11.3919 7.71438 11.521 7.65048 11.6512C7.87114 11.4979 8.10079 11.3584 8.33799 11.2333C8.42348 10.9794 8.52517 10.7289 8.64331 10.4834ZM8.25639 11.4935C7.98991 11.6445 7.73405 11.8146 7.49106 12.0027C7.37075 12.2906 7.27302 12.5836 7.1973 12.8794C7.47196 12.7114 7.75895 12.5633 8.05595 12.4368C8.09929 12.1197 8.16596 11.8043 8.25639 11.4935ZM8.25905 12.3542C8.31039 12.0212 8.38835 11.6907 8.49346 11.3656C8.79556 11.2108 9.10988 11.0799 9.43336 10.9744C9.35889 11.3288 9.31396 11.6876 9.29837 12.0473C8.94232 12.1211 8.5948 12.2241 8.25905 12.3542ZM8.02988 12.6545C7.7192 12.7932 7.42028 12.9563 7.13602 13.1418C7.06544 13.4759 7.02243 13.8129 7.00615 14.1494C7.32647 13.9849 7.66132 13.8462 8.0077 13.7356C7.98563 13.3762 7.99283 13.0146 8.02988 12.6545ZM8.19381 13.6792C8.17374 13.3101 8.18544 12.9387 8.22959 12.5694C8.5721 12.4302 8.92774 12.3201 9.29279 12.2418C9.28711 12.6477 9.31872 13.0536 9.38733 13.4542C8.97881 13.4923 8.57964 13.5684 8.19381 13.6792ZM8.02247 13.9296C7.66761 14.0457 7.32542 14.1923 6.99935 14.3665C6.99401 14.7385 7.02117 15.1091 7.07968 15.474C7.45183 15.3236 7.84085 15.2061 8.24313 15.1255C8.13307 14.7343 8.05923 14.3339 8.02247 13.9296ZM8.42982 15.0907C8.31661 14.6927 8.24209 14.2844 8.20723 13.8723C8.59928 13.7571 9.00572 13.6787 9.42209 13.641C9.51525 14.1043 9.65834 14.5591 9.85092 14.9966H9.54554C9.16525 14.9966 8.79248 15.0289 8.42982 15.0907ZM8.29722 15.3076C7.88709 15.3888 7.49106 15.5092 7.1132 15.6647C7.45044 17.4273 8.52268 19.0388 10.198 20.0066L16.2924 23.527C16.7256 23.7772 17.1218 24.0784 17.4743 24.4217C17.5444 24.3106 17.6157 24.2002 17.6882 24.0905C17.3335 23.6014 16.9014 23.1662 16.4037 22.8044L10.7103 18.6659C9.52043 17.8009 8.70502 16.6118 8.29722 15.3076ZM17.8001 23.9234C17.4417 23.4411 17.0097 23.0111 16.5148 22.6514L10.8215 18.5129C9.67253 17.6776 8.88307 16.5314 8.48468 15.2734C8.82974 15.2157 9.18414 15.1858 9.54554 15.1858H9.9378C10.299 15.9404 10.811 16.6385 11.4711 17.2331L16.7009 21.9444C17.2388 22.4291 17.6758 23.005 17.996 23.6392C17.9298 23.7334 17.8644 23.828 17.8001 23.9234ZM17.8048 24.2574C17.7392 24.3574 17.6747 24.458 17.6111 24.5593C17.6423 24.5917 17.673 24.6244 17.7035 24.6575C17.7576 24.556 17.8126 24.455 17.8686 24.3544C17.8477 24.3218 17.8263 24.2895 17.8048 24.2574ZM17.9733 24.169C17.9549 24.1416 17.9364 24.1144 17.9176 24.0873C17.9744 24.0026 18.0319 23.9184 18.09 23.8346C18.1015 23.8597 18.1129 23.8849 18.124 23.9101C18.073 23.9961 18.0227 24.0824 17.9733 24.169ZM17.9826 24.5389C17.9336 24.6283 17.8852 24.7181 17.8375 24.8082C17.8589 24.8332 17.8802 24.8582 17.9013 24.8836C17.9415 24.7922 17.9825 24.7011 18.0243 24.6102C18.0105 24.5864 17.9967 24.5625 17.9826 24.5389ZM18.1213 24.4022C18.1105 24.3844 18.0996 24.3665 18.0886 24.3487C18.1302 24.275 18.1724 24.2014 18.2152 24.1282C18.2209 24.1429 18.2266 24.1575 18.2322 24.1721C18.1947 24.2486 18.1577 24.3253 18.1213 24.4022ZM18.1376 24.8176C18.1028 24.8949 18.0685 24.9724 18.0349 25.0501C18.0475 25.0666 18.0601 25.0831 18.0726 25.0996C18.1008 25.0193 18.1296 24.9391 18.159 24.8591C18.1519 24.8453 18.1448 24.8314 18.1376 24.8176ZM18.2476 24.6222C18.244 24.6154 18.2402 24.6086 18.2364 24.6017C18.2644 24.5415 18.2928 24.4813 18.3215 24.4214C18.3222 24.4233 18.3228 24.4251 18.3234 24.4271C18.2978 24.4919 18.2726 24.557 18.2476 24.6222ZM18.2739 25.0976C18.2516 25.1603 18.2296 25.2231 18.208 25.286C18.2125 25.2925 18.217 25.299 18.2215 25.3054C18.2395 25.238 18.2578 25.1706 18.2764 25.1033C18.2756 25.1014 18.2748 25.0995 18.2739 25.0976ZM18.158 25.5503C18.1496 25.5371 18.1409 25.5241 18.1323 25.511C18.1057 25.5917 18.0796 25.6725 18.0542 25.7535C18.0687 25.7685 18.083 25.7837 18.0973 25.7989C18.1169 25.716 18.1373 25.6331 18.158 25.5503ZM18.2514 25.9701C18.2663 25.9051 18.2816 25.8403 18.2973 25.7755C18.2983 25.7772 18.2993 25.7789 18.3004 25.7808C18.2888 25.8498 18.2776 25.9189 18.2668 25.988C18.2617 25.982 18.2565 25.976 18.2514 25.9701ZM18.0455 26.0225C18.0272 26.002 18.0087 25.9817 17.9901 25.9615C17.9605 26.0594 17.9318 26.1573 17.9039 26.2555C17.9301 26.2755 17.9562 26.2957 17.9819 26.3161C18.0024 26.2182 18.0236 26.1203 18.0455 26.0225ZM18.1471 26.4513C18.164 26.368 18.1816 26.2849 18.1996 26.2018C18.2095 26.2139 18.2194 26.226 18.2293 26.2381C18.2172 26.3228 18.2057 26.4073 18.1947 26.492C18.1789 26.4783 18.1631 26.4648 18.1471 26.4513ZM17.9398 26.5246C17.9098 26.5002 17.8796 26.4761 17.8492 26.4522C17.8177 26.5677 17.7874 26.6834 17.7581 26.7994C17.7977 26.8204 17.8371 26.842 17.8762 26.864C17.8963 26.7508 17.9175 26.6377 17.9398 26.5246ZM18.0502 26.966C18.0677 26.8655 18.0861 26.7651 18.1052 26.6649C18.1258 26.683 18.1462 26.7014 18.1666 26.7198C18.155 26.8191 18.1442 26.9185 18.1341 27.018C18.1063 27.0004 18.0783 26.9831 18.0502 26.966ZM17.842 27.0624C17.7989 27.0373 17.7553 27.0129 17.7114 26.989C17.6788 27.1239 17.6479 27.2592 17.6184 27.3946C17.6729 27.4131 17.7272 27.4321 17.7811 27.4521C17.8001 27.322 17.8203 27.1921 17.842 27.0624ZM17.9621 27.5221C17.9791 27.4037 17.9971 27.2854 18.0163 27.1674C18.0491 27.1879 18.0816 27.2086 18.114 27.2298C18.1037 27.3445 18.0944 27.4593 18.0862 27.5741C18.045 27.5563 18.0037 27.539 17.9621 27.5221ZM17.7543 27.6439C17.6961 27.622 17.6376 27.601 17.5788 27.5809C17.5462 27.7383 17.5156 27.896 17.4871 28.054C17.5581 28.0649 17.6288 28.077 17.6993 28.0903C17.7158 27.9414 17.7341 27.7925 17.7543 27.6439ZM17.8852 28.1287C17.9005 27.9909 17.9172 27.8532 17.9354 27.7156C17.9815 27.7347 18.0273 27.7545 18.0729 27.7749C18.065 27.9062 18.0584 28.0375 18.0531 28.1688C17.9974 28.1546 17.9414 28.1413 17.8852 28.1287ZM17.6792 28.2791C17.6046 28.2647 17.5297 28.2518 17.4544 28.2404C16.9494 31.2087 17.1599 34.2831 18.107 37.1995L19.9202 42.7827C20.4677 44.4685 21.6482 45.7716 23.1129 46.5141C23.4374 46.4081 23.7505 46.2769 24.0498 46.1228C23.0115 45.4526 22.1496 44.4826 21.6094 43.2688L19.2228 37.9058C17.8674 34.8598 17.35 31.5396 17.6792 28.2791ZM24.2411 46.0201C23.193 45.3676 22.3221 44.4053 21.7822 43.1919L19.3956 37.8289C18.0564 34.8195 17.5434 31.5397 17.8653 28.3182C17.9259 28.3319 17.9863 28.3466 18.0464 28.3623C17.9426 31.8551 18.8044 35.3393 20.5791 38.4146L23.5128 43.4987C23.9489 44.2543 24.5119 44.8909 25.1595 45.397C24.8729 45.63 24.5658 45.8388 24.2411 46.0201ZM24.236 46.2386C23.9542 46.3899 23.6601 46.5212 23.3557 46.6308C23.6347 46.7577 23.9228 46.8649 24.2179 46.951C24.5213 46.8792 24.8154 46.7861 25.0991 46.6736C24.8016 46.55 24.513 46.4047 24.236 46.2386ZM25.3473 46.569C25.03 46.4479 24.7223 46.3018 24.4274 46.1318C24.7404 45.9502 25.037 45.7434 25.3146 45.5144C25.6077 45.7297 25.9169 45.9193 26.2382 46.0819C25.9566 46.2664 25.6589 46.4296 25.3473 46.569ZM25.3531 46.7731C25.1071 46.8794 24.8529 46.9714 24.5913 47.0479C24.8425 47.105 25.0979 47.1471 25.3561 47.1736C25.47 47.1557 25.5841 47.1346 25.6982 47.1103C25.8423 47.0797 25.9844 47.0443 26.124 47.0046C25.8624 46.9431 25.6049 46.8657 25.3531 46.7731ZM26.4919 46.888C26.1894 46.8332 25.8916 46.7568 25.601 46.6596C25.8922 46.5188 26.171 46.3575 26.4355 46.1776C26.7284 46.3138 27.0304 46.4281 27.3391 46.5199C27.0689 46.6614 26.7861 46.7848 26.4919 46.888ZM26.5072 47.0827C26.376 47.1277 26.2427 47.1687 26.1071 47.2057C26.3755 47.2012 26.6455 47.1797 26.9157 47.1405C26.7788 47.1255 26.6426 47.1063 26.5072 47.0827ZM27.6469 46.9902C27.3874 46.991 27.1291 46.9758 26.8734 46.9452C27.1255 46.8418 27.3687 46.7238 27.6022 46.5922C27.8623 46.658 28.1264 46.708 28.393 46.7418C28.2581 46.796 28.1205 46.846 27.9803 46.8915C27.8693 46.9276 27.7583 46.9605 27.6469 46.9902ZM28.3971 46.9436C28.6635 46.9112 28.9299 46.8615 29.1947 46.7942C29.0569 46.7936 28.9194 46.7887 28.7822 46.7795C28.6564 46.8379 28.5279 46.8927 28.3971 46.9436ZM29.1319 46.6044C29.3895 46.6081 29.6481 46.5962 29.9062 46.5682C30.0138 46.5271 30.1208 46.4828 30.2273 46.4353C30.362 46.3753 30.4936 46.3113 30.6221 46.2433C30.3533 46.2375 30.0854 46.2154 29.8198 46.1772C29.6013 46.3323 29.3718 46.4752 29.1319 46.6044ZM30.0386 46.0146C30.3431 46.0492 30.6503 46.062 30.9575 46.0526C31.2239 45.8905 31.4749 45.711 31.7098 45.5163C31.3888 45.4908 31.0694 45.4418 30.7547 45.3696C30.5334 45.6006 30.2944 45.8163 30.0386 46.0146ZM30.5419 45.317C30.3048 45.5561 30.0475 45.7776 29.7717 45.9787C29.4362 45.9263 29.1051 45.8475 28.7813 45.7426C29.0497 45.4997 29.2969 45.2359 29.5207 44.9542C29.8521 45.1038 30.1938 45.2248 30.5419 45.317ZM30.9037 45.2087C31.2367 45.2792 31.5745 45.323 31.9136 45.34C32.1669 45.1112 32.3995 44.864 32.6104 44.6014C32.2546 44.5461 31.902 44.4615 31.5567 44.3473C31.3635 44.6509 31.1453 44.9392 30.9037 45.2087ZM31.373 44.2835C31.1725 44.5939 30.9448 44.8874 30.6921 45.1602C30.3333 45.0714 29.9809 44.9513 29.6396 44.8001C29.8826 44.4751 30.0955 44.1282 30.2753 43.764C30.6282 43.9732 30.9958 44.1463 31.373 44.2835ZM31.6588 44.1817C32.0142 44.2964 32.3771 44.379 32.7435 44.4298C32.9662 44.1321 33.162 43.8163 33.329 43.4867C32.9395 43.3895 32.5557 43.2558 32.1828 43.0846C32.0421 43.4656 31.8666 43.833 31.6588 44.1817ZM32.0114 43.0029C31.869 43.3915 31.6895 43.7656 31.4756 44.1194C31.0908 43.9821 30.716 43.8065 30.3569 43.5924C30.5539 43.1628 30.7054 42.7106 30.8066 42.2435L31.053 42.4227C31.3608 42.6463 31.6815 42.8396 32.0114 43.0029ZM32.246 42.9054C32.6256 43.0809 33.0168 43.2164 33.414 43.3127C33.5897 42.9384 33.7292 42.5475 33.8301 42.1461C33.485 42.0183 33.1461 41.8598 32.8166 41.6695L32.5523 41.5167C32.5004 41.992 32.397 42.4574 32.246 42.9054ZM32.3728 41.4131C32.3266 41.8956 32.2256 42.3685 32.0743 42.8229C31.7611 42.6665 31.4567 42.4823 31.1641 42.2697L30.8475 42.0394C30.934 41.5682 30.9698 41.083 30.9498 40.5911L32.3728 41.4131ZM32.5716 41.3094L32.9112 41.5056C33.2242 41.6865 33.5462 41.8378 33.8738 41.9605C33.9768 41.4929 34.0279 41.0121 34.0234 40.5275L32.5219 39.8586C32.5932 40.3457 32.6084 40.8318 32.5716 41.3094ZM32.3163 39.767C32.3961 40.2489 32.4191 40.7307 32.3894 41.2042L30.9367 40.3651C30.9147 40.0716 30.8727 39.7764 30.8099 39.4806L30.7196 39.0558L32.3163 39.767ZM32.4854 39.6353L34.0181 40.318C33.9981 39.8439 33.9249 39.3672 33.7952 38.8963L32.1327 38.3558L32.2669 38.769C32.3602 39.0565 32.4327 39.3458 32.4854 39.6353ZM31.9105 38.2836L32.087 38.8274C32.1641 39.0646 32.2265 39.3028 32.2748 39.5415L30.6711 38.827L30.4551 37.8105C30.4631 37.8131 30.4711 37.8157 30.4792 37.8183L31.9105 38.2836ZM32.0604 38.1335L33.7304 38.6764C33.6574 38.4441 33.5704 38.2136 33.469 37.9859L33.2366 37.4633L31.7648 37.1503C31.7563 37.1486 31.7479 37.1468 31.7394 37.1449L32.0604 38.1335ZM31.5253 37.0979L31.8382 38.0612L30.5376 37.6384C30.4948 37.6245 30.4522 37.6105 30.4096 37.5963L30.2313 36.7566C30.6571 36.8852 31.0888 36.9991 31.5253 37.0979ZM31.6718 36.9367C31.7158 36.9464 31.7599 36.956 31.8041 36.9653L33.1415 37.2497L32.7297 36.3243C32.285 36.2718 31.8438 36.2036 31.4067 36.1203L31.6718 36.9367ZM31.1944 36.0787L31.4572 36.8881C31.0284 36.7884 30.6046 36.674 30.1864 36.5453L30.0289 35.8041C30.4136 35.9076 30.8023 35.9993 31.1944 36.0787ZM31.3399 35.9148C31.7695 35.9991 32.2031 36.0687 32.6401 36.123L32.2941 35.3454C31.8957 35.3074 31.4995 35.257 31.1059 35.1942L31.3399 35.9148ZM30.8959 35.1595L31.1272 35.8718C30.7427 35.7916 30.3618 35.6996 29.9847 35.596L29.8473 34.9494C30.1943 35.0292 30.5439 35.0993 30.8959 35.1595ZM31.0402 34.9919C31.4262 35.0555 31.8149 35.1071 32.2056 35.1466L31.0826 32.6229C30.5824 31.499 30.4438 30.2568 30.6713 29.0648C30.662 29.0761 30.6526 29.0874 30.6434 29.0988C30.0875 30.3888 30.0172 31.8417 30.4537 33.1857L31.0402 34.9919ZM30.9409 28.7279C30.6118 29.9932 30.7186 31.34 31.2552 32.546L32.4217 35.1672C32.8577 35.2061 33.2962 35.23 33.7365 35.2383L31.8218 31.9203C31.2392 30.9108 30.9684 29.7617 31.0281 28.6152C30.9992 28.6529 30.9701 28.6904 30.9409 28.7279ZM31.2393 28.3355C31.1159 29.5408 31.3723 30.7631 31.9856 31.8257L33.9564 35.2412C34.0017 35.2415 34.047 35.2417 34.0923 35.2417H35.4588L32.4834 31.1444C31.8433 30.2628 31.4613 29.2314 31.3648 28.164C31.3232 28.2214 31.2814 28.2786 31.2393 28.3355ZM31.5371 27.9218C31.5941 29.035 31.9715 30.1175 32.6365 31.0332L35.6925 35.2417H37.4482C37.3071 35.0435 37.1532 34.8511 36.9866 34.666L33.0604 30.3033C32.3882 29.5564 31.9212 28.6597 31.6898 27.7C31.6396 27.7743 31.5885 27.8482 31.5371 27.9218ZM31.8349 27.4832C32.0426 28.4775 32.5098 29.4089 33.2009 30.1767L37.1271 34.5395C37.3292 34.7641 37.513 34.9987 37.6787 35.2417H39.3565C39.0082 34.54 38.5243 33.8909 37.907 33.3348L33.5466 29.4067C32.8687 28.7959 32.346 28.0446 32.0084 27.2149C31.9513 27.3049 31.8935 27.3942 31.8349 27.4832ZM31.9237 26.9946C31.878 27.0678 31.8318 27.1406 31.7851 27.2132C31.7843 27.2081 31.7835 27.203 31.7827 27.1979C31.8263 27.1193 31.8692 27.0404 31.9117 26.9611C31.9157 26.9723 31.9196 26.9834 31.9237 26.9946ZM32.1331 27.0157C32.4574 27.8698 32.9819 28.6433 33.6732 29.2661L38.0336 33.1942C38.6937 33.789 39.2057 34.4869 39.5669 35.2417H39.9599C40.3212 35.2417 40.6755 35.2116 41.0205 35.1541C40.6221 33.896 39.8326 32.7498 38.6837 31.9146L33.9367 28.464C33.2796 27.9863 32.7333 27.385 32.3232 26.7014C32.2609 26.8067 32.1976 26.9115 32.1331 27.0157ZM32.2147 26.5127C32.1611 26.6045 32.1067 26.6958 32.0517 26.7867C32.0455 26.7679 32.0393 26.7491 32.0332 26.7303C32.0822 26.6356 32.1305 26.5405 32.1779 26.4451C32.19 26.4677 32.2022 26.4903 32.2147 26.5127ZM32.4324 26.5141C32.835 27.2133 33.3828 27.8275 34.0479 28.311L38.7948 31.7615C39.9847 32.6265 40.8002 33.8156 41.2079 35.1199C41.6182 35.0387 42.0144 34.9183 42.3924 34.7626C42.0551 33.0001 40.9829 31.3886 39.3077 30.421L34.2263 27.4857C33.6167 27.1336 33.0802 26.6805 32.636 26.1514C32.5696 26.273 32.5017 26.3939 32.4324 26.5141ZM32.5073 25.9925C32.4478 26.1022 32.3872 26.2114 32.3255 26.32C32.3106 26.2915 32.2957 26.2628 32.2811 26.2338C32.3343 26.1235 32.3863 26.0127 32.4373 25.9014C32.4603 25.932 32.4836 25.9624 32.5073 25.9925ZM32.733 25.972C33.1723 26.5092 33.7084 26.9681 34.3208 27.3219L39.4022 30.2572C41.114 31.2459 42.2143 32.8876 42.5702 34.6862C42.911 34.5337 43.236 34.352 43.5421 34.1445C43.3397 31.9098 41.9663 29.8478 39.7718 28.8703L34.4116 26.4825C33.8766 26.2442 33.3845 25.931 32.9481 25.5562C32.8781 25.6956 32.8064 25.8342 32.733 25.972ZM32.8017 25.4262C32.7376 25.5547 32.6721 25.6826 32.605 25.8097C32.5784 25.7747 32.5522 25.7393 32.5264 25.7038C32.5826 25.5771 32.6375 25.4497 32.6909 25.322C32.7274 25.3571 32.7643 25.392 32.8017 25.4262ZM33.0348 25.3812C33.4665 25.7581 33.9555 26.0723 34.4885 26.3097L39.8488 28.6975C42.0727 29.6882 43.4775 31.7606 43.7198 34.0198C43.9949 33.8195 44.2533 33.5979 44.4927 33.3573C44.4896 30.6624 42.7718 28.1574 40.0711 27.2794L34.4908 25.4653C34.0571 25.3243 33.6447 25.1355 33.2598 24.9045C33.1871 25.0643 33.1121 25.2233 33.0348 25.3812ZM33.0979 24.8036C33.0302 24.9531 32.9605 25.1016 32.8888 25.2492C32.8481 25.2112 32.808 25.1726 32.7685 25.1334C32.8271 24.9888 32.8839 24.8435 32.939 24.6975C32.9915 24.7337 33.0444 24.7691 33.0979 24.8036ZM33.3379 24.7306C33.716 24.9598 34.122 25.1466 34.5492 25.2854L40.1296 27.0995C42.8449 27.9823 44.5951 30.4625 44.6787 33.1624C44.8857 32.9362 45.0766 32.6952 45.2497 32.4409C45.5088 29.2798 43.3862 26.343 40.2032 25.6661L34.4639 24.4455C34.1579 24.3805 33.8595 24.292 33.5709 24.1816C33.4961 24.3658 33.4184 24.5489 33.3379 24.7306ZM33.3954 24.1113C33.325 24.2849 33.2519 24.4575 33.1761 24.6289C33.1191 24.5917 33.0627 24.5535 33.007 24.5144C33.0673 24.3491 33.1253 24.1831 33.1811 24.0164C33.2519 24.0494 33.3233 24.081 33.3954 24.1113ZM33.6413 24.006C33.9198 24.1123 34.2078 24.1977 34.5032 24.2605L40.2425 25.4811C43.4049 26.1536 45.5506 28.9929 45.4572 32.1156C45.5892 31.8943 45.7081 31.6644 45.8131 31.4269C45.8312 31.3129 45.8464 31.1977 45.8587 31.0814C46.2279 27.5663 43.6792 24.4172 40.1659 24.0477L34.3305 23.4341C34.1788 23.4181 34.0284 23.3964 33.8793 23.3692C33.8038 23.5828 33.7244 23.7952 33.6413 24.006ZM33.692 23.3319C33.62 23.5344 33.5446 23.7357 33.4658 23.9356C33.3899 23.9038 33.3148 23.8704 33.2406 23.8354C33.3017 23.6462 33.3598 23.456 33.415 23.2649C33.5066 23.2894 33.5989 23.3117 33.692 23.3319ZM33.9422 23.1883C34.0771 23.2123 34.2131 23.2315 34.3503 23.246L40.1857 23.8596C43.6761 24.2267 46.2419 27.2585 46.0757 30.7224C46.2582 30.1278 46.3563 29.4963 46.3563 28.8418C46.3563 25.3074 43.4925 22.4421 39.9599 22.4421H34.1807C34.1063 22.6926 34.0268 22.9413 33.9422 23.1883ZM33.9837 22.4411C33.9121 22.6797 33.8358 22.9166 33.7549 23.1519C33.6581 23.1313 33.5619 23.1084 33.4665 23.083C33.5272 22.8646 33.584 22.6452 33.6368 22.4248C33.752 22.4336 33.8676 22.4391 33.9837 22.4411ZM34.0392 22.2528C34.5241 20.573 34.7764 18.8193 34.7764 17.0396V9.99871C34.7764 6.83583 32.4832 4.20886 29.4695 3.69143C31.5358 4.62242 33.0661 6.59657 33.3201 9.01406L34.0556 16.0164C34.2764 18.1169 34.1432 20.2179 33.6805 22.2383C33.7995 22.2469 33.9191 22.2516 34.0392 22.2528ZM33.4465 22.4072C33.3519 22.3969 33.2576 22.3844 33.1638 22.3697C33.129 22.5654 33.091 22.7606 33.05 22.9552C33.1276 22.9822 33.2058 23.0076 33.2846 23.0314C33.3422 22.8243 33.3961 22.6162 33.4465 22.4072ZM33.233 23.2134C33.1581 23.1909 33.0837 23.1669 33.0098 23.1414C32.9718 23.3131 32.9314 23.4842 32.8886 23.6548C32.9482 23.688 33.0084 23.7201 33.069 23.7511C33.1263 23.5728 33.181 23.3935 33.233 23.2134ZM33.0096 23.9331C32.9526 23.9043 32.8962 23.8747 32.8402 23.844C32.8007 23.9951 32.7593 24.1456 32.7161 24.2958C32.7595 24.3306 32.8035 24.3648 32.848 24.3984C32.9039 24.244 32.9578 24.0889 33.0096 23.9331ZM32.7798 24.5836C32.739 24.5534 32.6986 24.5226 32.6585 24.4914C32.6188 24.6241 32.5776 24.7563 32.535 24.8881C32.5644 24.9209 32.5941 24.9533 32.6243 24.9853C32.6777 24.852 32.7295 24.7181 32.7798 24.5836ZM32.5461 25.1775C32.5195 25.1499 32.4931 25.122 32.4669 25.094C32.428 25.2098 32.3878 25.3255 32.3466 25.4407C32.3641 25.4679 32.3818 25.495 32.3999 25.5218C32.4497 25.4076 32.4985 25.2928 32.5461 25.1775ZM32.3097 25.7252C32.2949 25.7041 32.2803 25.6829 32.2659 25.6616C32.2287 25.7614 32.1907 25.8609 32.1518 25.9602C32.1599 25.9784 32.168 25.9965 32.1762 26.0146C32.2215 25.9185 32.266 25.822 32.3097 25.7252ZM32.0706 26.2348C32.0654 26.2241 32.0602 26.2133 32.0551 26.2025C32.0211 26.2858 31.9866 26.3689 31.9515 26.4518C31.9528 26.4569 31.9541 26.4619 31.9555 26.4669C31.9945 26.3898 32.0328 26.3124 32.0706 26.2348ZM32.0471 25.7064C32.0777 25.6256 32.1078 25.5447 32.1373 25.4636C32.1309 25.4533 32.1246 25.443 32.1183 25.4327C32.0932 25.5191 32.0676 25.6053 32.0413 25.6913C32.0432 25.6963 32.0452 25.7014 32.0471 25.7064ZM32.1891 25.1816C32.1991 25.1989 32.2092 25.2163 32.2192 25.2336C32.2543 25.1334 32.2884 25.0328 32.3216 24.9321C32.3047 24.9125 32.2879 24.8929 32.2712 24.8731C32.2447 24.9762 32.2174 25.079 32.1891 25.1816ZM32.1226 24.6897C32.1018 24.7733 32.0804 24.8567 32.0584 24.9401C32.056 24.9354 32.0536 24.9307 32.0513 24.926C32.0684 24.8379 32.0849 24.7495 32.1006 24.6612C32.108 24.6707 32.1153 24.6802 32.1226 24.6897ZM32.3284 24.645C32.3487 24.6703 32.3693 24.6956 32.3901 24.7205C32.4277 24.6016 32.4643 24.4824 32.4995 24.3628C32.4701 24.3381 32.4408 24.3132 32.4118 24.2879C32.3851 24.4071 32.3573 24.5262 32.3284 24.645ZM32.2503 24.1421C32.2278 24.2456 32.2044 24.349 32.18 24.4523C32.1683 24.4363 32.1566 24.4202 32.145 24.4041C32.1623 24.2991 32.1787 24.1941 32.1943 24.089C32.2129 24.1068 32.2316 24.1245 32.2503 24.1421ZM32.4579 24.0761C32.4907 24.1056 32.5238 24.1348 32.5571 24.1636C32.5963 24.0253 32.634 23.8866 32.6699 23.7475C32.6262 23.7216 32.5826 23.6952 32.5394 23.6682C32.5138 23.8044 32.4866 23.9404 32.4579 24.0761ZM32.3679 23.557C32.3453 23.6797 32.3214 23.8021 32.2963 23.9245C32.2731 23.9019 32.2501 23.8792 32.2273 23.8561C32.2438 23.7348 32.259 23.6133 32.2731 23.4918C32.3045 23.5138 32.3361 23.5356 32.3679 23.557ZM32.5762 23.4676C32.6232 23.4978 32.6706 23.5273 32.7184 23.5561C32.7578 23.3968 32.7952 23.2368 32.8305 23.0765C32.7707 23.0538 32.7114 23.0302 32.6524 23.0055C32.6289 23.1598 32.6036 23.3138 32.5762 23.4676ZM32.4731 22.9272C32.4518 23.0693 32.429 23.2112 32.4044 23.3528C32.3682 23.3277 32.3324 23.3022 32.2967 23.2763C32.3111 23.1383 32.3239 23.0003 32.3353 22.8622C32.3809 22.8845 32.4268 22.9061 32.4731 22.9272ZM32.6808 22.8123C32.7437 22.8391 32.8069 22.8647 32.8706 22.8894C32.909 22.7059 32.9446 22.5219 32.9775 22.3374C32.9005 22.3227 32.8239 22.3067 32.7476 22.289C32.7278 22.4637 32.7056 22.6381 32.6808 22.8123ZM32.5625 22.2432C32.5442 22.4064 32.5239 22.5692 32.5013 22.7319C32.4508 22.7083 32.4007 22.6839 32.3509 22.6589C32.362 22.5031 32.3711 22.3473 32.3784 22.1913C32.4395 22.2096 32.5008 22.2269 32.5625 22.2432ZM32.5829 22.0529C32.8455 19.4774 32.5759 16.8506 31.7608 14.3408L29.5862 7.64457C29.0388 5.9589 27.8584 4.65593 26.3939 3.91346C26.0694 4.01941 25.7563 4.15063 25.4569 4.30478C26.4951 4.97504 27.3567 5.94484 27.8968 7.15842L30.7591 13.5906C31.9457 16.257 32.4901 19.1335 32.3865 21.9961C32.4516 22.0161 32.5171 22.0351 32.5829 22.0529ZM32.1994 21.935C32.2932 19.1189 31.7537 16.2905 30.5865 13.6675L27.7242 7.23536C27.1843 6.02225 26.3135 5.05993 25.2656 4.40743C24.941 4.58881 24.6338 4.79768 24.3472 5.03086C24.9944 5.5368 25.5573 6.17316 25.9931 6.92854L29.5118 13.0261C31.083 15.7489 31.9387 18.7922 32.0422 21.8781C32.0943 21.8978 32.1468 21.9167 32.1994 21.935ZM32.1919 22.1322C32.1436 22.1161 32.0957 22.0993 32.048 22.0819C32.0512 22.2205 32.0528 22.3591 32.0529 22.4977C32.091 22.5198 32.1294 22.5414 32.168 22.5627C32.1776 22.4193 32.1855 22.2758 32.1919 22.1322ZM32.1531 22.7695C32.1192 22.7516 32.0854 22.7332 32.0519 22.7146C32.0506 22.8369 32.0481 22.9593 32.0444 23.0816C32.0696 23.1021 32.0948 23.1224 32.1203 23.1424C32.1324 23.0182 32.1434 22.8939 32.1531 22.7695ZM32.0973 23.3636C32.0767 23.3482 32.0563 23.3325 32.036 23.3167C32.0314 23.423 32.026 23.5294 32.0198 23.6357C32.033 23.6506 32.0464 23.6654 32.0597 23.68C32.0732 23.5747 32.0857 23.4692 32.0973 23.3636ZM32.0273 23.922C32.0191 23.9135 32.0108 23.9048 32.0026 23.8961C31.9961 23.9855 31.9889 24.0749 31.9811 24.1643C31.984 24.1687 31.9868 24.1731 31.9898 24.1776C32.0029 24.0924 32.0154 24.0073 32.0273 23.922ZM31.8417 23.4268C31.8459 23.3405 31.8495 23.2544 31.8524 23.1681C31.8433 23.1603 31.834 23.1525 31.8248 23.1447C31.8277 23.2345 31.8299 23.3243 31.8316 23.4142C31.8349 23.4184 31.8383 23.4226 31.8417 23.4268ZM31.8148 22.884C31.8295 22.8973 31.8445 22.9107 31.8594 22.924C31.8617 22.8179 31.8631 22.7116 31.8636 22.6055C31.8415 22.5922 31.8194 22.5787 31.7976 22.5651C31.8042 22.6713 31.8099 22.7775 31.8148 22.884ZM31.5995 22.4365C31.6056 22.5225 31.6109 22.6086 31.6158 22.6946C31.612 22.6909 31.6082 22.687 31.6044 22.6832C31.5934 22.5941 31.5818 22.5051 31.5696 22.416C31.5796 22.423 31.5896 22.4297 31.5995 22.4365ZM31.7814 22.3304C31.8086 22.3482 31.8359 22.3658 31.8633 22.3831C31.8625 22.2583 31.8604 22.1335 31.857 22.0088C31.8214 21.9945 31.7859 21.9797 31.7504 21.9646C31.7619 22.0864 31.7722 22.2084 31.7814 22.3304ZM31.7288 21.7489C31.7691 21.7669 31.8096 21.7844 31.8503 21.8015C31.7354 18.7748 30.8895 15.792 29.3481 13.1208L25.8294 7.02311C25.399 6.27708 24.841 5.65058 24.199 5.15524C23.8861 5.42578 23.5998 5.72616 23.3444 6.05193C23.6074 6.30892 23.8523 6.59148 24.0757 6.89906L28.2121 12.5953C30.1827 15.3088 31.3814 18.4703 31.7288 21.7489ZM23.2067 5.92118C23.4582 5.6021 23.7386 5.30686 24.044 5.0394C23.7415 4.82034 23.4218 4.62945 23.0892 4.46787C22.7852 4.68224 22.5014 4.92213 22.2408 5.18407C22.5813 5.39695 22.9049 5.64292 23.2067 5.92118ZM23.0912 6.07202C22.7845 5.78766 22.4543 5.53778 22.1063 5.32327C21.8235 5.62504 21.5702 5.9537 21.3502 6.30439C21.6384 6.5324 21.9115 6.78772 22.1657 7.07015L22.3711 7.29842C22.5672 6.86237 22.8093 6.4515 23.0912 6.07202ZM23.2687 4.34577C23.59 4.50843 23.8991 4.69796 24.1923 4.91337C24.4698 4.6843 24.7664 4.47753 25.0794 4.29582C24.7846 4.12579 24.4769 3.97963 24.1596 3.85859C23.8479 3.99791 23.5503 4.16115 23.2687 4.34577ZM24.4078 3.75391C24.7053 3.87751 24.9938 4.02285 25.2708 4.18894C25.5526 4.03764 25.8467 3.90628 26.1512 3.79673C25.8723 3.6697 25.5841 3.56252 25.2889 3.47637C24.9855 3.54824 24.6914 3.64135 24.4078 3.75391ZM30.066 20.252C28.4317 17.0103 25.8793 14.2852 22.689 12.4423L21.9835 12.0348V12.8064C25.3695 14.444 28.1747 17.0431 30.066 20.252ZM29.5203 19.7267C27.6776 16.8607 25.0781 14.5321 21.9835 13.0168V13.6791C24.9809 15.0125 27.5761 17.0993 29.5203 19.7267ZM21.7945 13.5961V12.9255C21.6526 12.858 21.5097 12.7922 21.3659 12.7281L20.6219 12.3967L20.7025 13.1642C21.0719 13.2972 21.4359 13.4413 21.7945 13.5961ZM20.7245 13.3734C21.0864 13.5057 21.4432 13.6488 21.7945 13.8024V14.3879C21.4648 14.2601 21.1311 14.1413 20.7937 14.0318L20.7245 13.3734ZM20.5051 13.0943L20.4224 12.3078L19.0499 11.6965L19.26 12.6853L20.1379 12.9707C20.2609 13.0108 20.3832 13.0519 20.5051 13.0943ZM19.3054 12.899L20.0795 13.1506C20.2295 13.1994 20.3787 13.2499 20.527 13.3024L20.597 13.9692C20.2242 13.8526 19.847 13.7473 19.4658 13.6537L19.3054 12.899ZM19.0524 12.6179L18.8364 11.6013L17.2318 10.8866C17.2801 11.1249 17.3425 11.363 17.4194 11.5998L17.5963 12.1444L19.0524 12.6179ZM17.6684 12.3669L19.0977 12.8315L19.262 13.6048C19.1365 13.5755 19.0106 13.5472 18.8842 13.5205L17.9807 13.3283L17.6684 12.3669ZM17.374 12.0722L17.2395 11.6583C17.1463 11.371 17.0738 11.0819 17.0213 10.7928L15.4882 10.1099C15.5082 10.5841 15.5815 11.0608 15.7112 11.5317L17.374 12.0722ZM15.7761 11.7517L17.4462 12.2946L17.7672 13.2828L16.2699 12.9644L16.0372 12.4414C15.9359 12.2139 15.8491 11.9836 15.7761 11.7517ZM15.4971 11.4621C15.3753 10.9852 15.3094 10.5032 15.296 10.0242L14.937 9.8643C14.6069 9.71727 14.271 9.60048 13.9325 9.51272C13.8791 9.98868 13.8786 10.4721 13.9336 10.9538L15.4971 11.4621ZM13.9609 11.1616L15.5569 11.6804C15.6393 11.9625 15.7416 12.2423 15.8644 12.5184L16.0414 12.9158L14.3312 12.5521C14.1529 12.0974 14.0303 11.631 13.9609 11.1616ZM13.7366 10.8897C13.6885 10.4141 13.6929 9.93725 13.7473 9.46766C13.3395 9.37485 12.9286 9.32365 12.52 9.312C12.4259 9.71473 12.3707 10.126 12.3553 10.5396C12.7192 10.5929 13.0836 10.6775 13.4451 10.795L13.7366 10.8897ZM12.3512 10.7303C12.6969 10.7822 13.043 10.8632 13.3866 10.9749L13.7608 11.0965C13.8241 11.5714 13.9401 12.0438 14.111 12.5053L12.5027 12.1633C12.3977 11.69 12.3477 11.2092 12.3512 10.7303ZM12.1671 10.5149C12.1832 10.1089 12.2366 9.70527 12.3265 9.30943C11.953 9.31015 11.582 9.34379 11.2179 9.40875C11.098 9.76079 11.0094 10.1216 10.9523 10.4867C11.3529 10.4587 11.7594 10.4672 12.1671 10.5149ZM10.9253 10.6784C11.333 10.6472 11.747 10.6552 12.1623 10.7049C12.1571 11.1775 12.2026 11.6522 12.3001 12.1202L12.0007 12.0565C11.6287 11.9774 11.2574 11.9315 10.8899 11.9166C10.8619 11.5035 10.8738 11.0888 10.9253 10.6784ZM10.7586 10.5032C10.8116 10.1472 10.8938 9.79499 11.0049 9.4505C10.6721 9.5216 10.3456 9.61902 10.0289 9.74152C9.89047 10.0536 9.77845 10.3741 9.69265 10.6997C10.0402 10.6054 10.3967 10.5393 10.7586 10.5032ZM9.64088 10.9106C9.99613 10.808 10.3614 10.7358 10.7327 10.696C10.6847 11.0992 10.6737 11.5062 10.7 11.9116C10.2898 11.9069 9.88471 11.9408 9.48936 12.0106C9.50795 11.6415 9.55838 11.2733 9.64088 10.9106ZM9.48252 12.2041C9.47414 12.6176 9.50561 13.0313 9.57661 13.4392C9.94375 13.4155 10.3179 13.4225 10.6961 13.4622L11 13.4942C10.8542 13.039 10.7594 12.5716 10.7151 12.101C10.297 12.0951 9.88454 12.1305 9.48252 12.2041ZM10.9056 12.1065C10.9522 12.5833 11.0522 13.0562 11.2061 13.5159L12.8412 13.6878C12.623 13.2467 12.4583 12.7889 12.3458 12.3233L11.9614 12.2415C11.608 12.1663 11.2551 12.122 10.9056 12.1065ZM12.5515 12.367C12.6696 12.8266 12.8402 13.2777 13.065 13.7113L14.8041 13.8942L14.5866 13.5174C14.4357 13.2558 14.3047 12.9881 14.1933 12.7162L12.5515 12.367ZM14.4187 12.7642C14.5155 12.9872 14.6259 13.2071 14.7504 13.4229L15.0365 13.9186L16.5589 14.0788L16.1364 13.1294L14.4187 12.7642ZM16.365 13.178L16.7759 14.1016L17.6948 14.1981C17.8231 14.2117 17.9511 14.2264 18.0788 14.2425L17.8346 13.4906L16.365 13.178ZM18.0482 13.5359L18.2864 14.2698C18.6755 14.3231 19.0618 14.3884 19.4449 14.4653L19.3055 13.8094C19.1526 13.7729 18.9991 13.7382 18.8449 13.7054L18.0482 13.5359ZM19.5094 13.8594L19.647 14.507C19.9941 14.5806 20.3384 14.6639 20.6797 14.7565L20.6185 14.1742C20.253 14.0583 19.8833 13.9532 19.5094 13.8594ZM20.8153 14.2379L20.8755 14.8108C21.1846 14.8983 21.491 14.9936 21.7945 15.0963V14.5909C21.472 14.4644 21.1455 14.3466 20.8153 14.2379ZM21.9835 14.6663V15.1615C24.2943 15.9715 26.431 17.2234 28.2715 18.8506C26.4819 17.0458 24.3425 15.6212 21.9835 14.6663ZM27.5865 18.5166C25.9131 17.1499 24.017 16.0829 21.9835 15.3621V15.7821C23.9841 16.3767 25.8784 17.2992 27.5865 18.5166ZM21.7945 15.727V15.2962C21.498 15.1946 21.1987 15.1004 20.8969 15.0136L20.9486 15.5061C21.2324 15.5732 21.5144 15.647 21.7945 15.727ZM20.9695 15.7055C21.2464 15.7721 21.5213 15.8449 21.7945 15.9238V17.0396C21.7945 18.3206 21.3708 19.5579 20.6012 20.5639C21.0677 19.5788 21.2605 18.4761 21.1448 17.3741L20.9695 15.7055ZM20.7537 15.4611L20.7009 14.9584C20.367 14.8663 20.0299 14.7834 19.69 14.7097L19.8098 15.2732C20.1264 15.3279 20.4411 15.3905 20.7537 15.4611ZM19.8521 15.4726C20.1615 15.5273 20.4691 15.5897 20.7746 15.6598L20.9567 17.3939C21.0906 18.668 20.7984 19.9431 20.1378 21.0242C20.499 19.9956 20.5758 18.8786 20.3454 17.7945L19.8521 15.4726ZM19.6094 15.2396L19.4877 14.667C19.112 14.5899 18.733 14.5241 18.3515 14.4699L18.5559 15.0995C18.909 15.1365 19.2602 15.1832 19.6094 15.2396ZM18.6199 15.2966C18.9657 15.3343 19.3097 15.3816 19.6516 15.4383L20.1605 17.8338C20.4255 19.0814 20.2707 20.374 19.7326 21.5145C19.7309 21.5163 19.7291 21.5183 19.7273 21.5201C19.9765 20.4622 19.9353 19.3469 19.594 18.2961L18.6199 15.2966ZM18.3506 15.0791L18.1435 14.4415C17.9877 14.4212 17.8316 14.4028 17.6751 14.3863L16.8648 14.3011L17.1784 15.006C17.5708 15.0183 17.9617 15.0427 18.3506 15.0791ZM17.2639 15.1981C17.649 15.212 18.0326 15.2379 18.4142 15.2753L19.4142 18.3546C19.7817 19.4859 19.7899 20.6943 19.4519 21.8178C19.4308 21.8411 19.4099 21.8644 19.3889 21.8878C19.4879 20.8665 19.3239 19.8274 18.8995 18.8736L17.2639 15.1981ZM16.969 15.0006L16.6476 14.2783L15.1533 14.1211L15.6586 14.9966H16.5829C16.7118 14.9966 16.8404 14.9979 16.969 15.0006ZM15.7677 15.1858H16.5829C16.7402 15.1858 16.8973 15.1877 17.0541 15.1917L18.7268 18.9505C19.1751 19.9581 19.3234 21.0638 19.1683 22.1382C19.1338 22.1781 19.0995 22.218 19.0653 22.2582C19.0245 21.3034 18.7554 20.3633 18.2691 19.5205L15.7677 15.1858ZM15.4402 14.9966L14.921 14.0967L13.1742 13.913C13.2938 14.1248 13.4266 14.3321 13.573 14.5336L13.9092 14.9966H15.4402ZM14.0467 15.1858H15.5494L18.1053 19.615C18.6122 20.4933 18.8753 21.4808 18.8817 22.4774C18.8371 22.5315 18.7928 22.5857 18.7488 22.6401C18.5863 21.7778 18.2349 20.9533 17.7095 20.2298L14.0467 15.1858ZM13.6756 14.9966L13.4201 14.6448C13.2426 14.4003 13.0843 14.1477 12.945 13.8889L11.2759 13.7134C11.4413 14.1581 11.6583 14.5889 11.927 14.9966H13.6756ZM12.0566 15.1858H13.8129L17.5566 20.341C18.0983 21.0871 18.4492 21.944 18.5913 22.8382C18.5387 22.9053 18.4864 22.9728 18.4346 23.0405C18.1753 22.2915 17.7675 21.5942 17.227 20.9937L12.5182 15.7613C12.3516 15.5761 12.1977 15.3839 12.0566 15.1858ZM11.7019 14.9966C11.4389 14.5807 11.2272 14.1427 11.0667 13.6914L10.6763 13.6503C10.3168 13.6125 9.96128 13.6053 9.6121 13.6265C9.70819 14.0957 9.85704 14.5556 10.0581 14.9966H11.7019ZM10.1482 15.1858H11.8261C11.9918 15.4286 12.1756 15.6633 12.3777 15.8879L17.0865 21.1203C17.639 21.7341 18.0484 22.4524 18.2965 23.2238C18.2367 23.3041 18.1777 23.3847 18.1194 23.4658C17.7933 22.8457 17.3578 22.2818 16.8274 21.8039L11.5977 17.0926C10.9803 16.5365 10.4965 15.8875 10.1482 15.1858ZM18.2154 23.6566C18.2244 23.6754 18.2334 23.6944 18.2422 23.7133C18.2866 23.6406 18.3314 23.5682 18.3767 23.496C18.3726 23.4807 18.3685 23.4655 18.3643 23.4503C18.3141 23.5188 18.2645 23.5875 18.2154 23.6566ZM18.5058 23.2597C18.5082 23.2674 18.5104 23.275 18.5127 23.2827C18.5507 23.2239 18.5891 23.1653 18.6277 23.107C18.6275 23.1048 18.6273 23.1027 18.627 23.1004C18.5863 23.1533 18.5459 23.2065 18.5058 23.2597ZM18.4395 23.7532C18.4047 23.8099 18.3702 23.8668 18.3359 23.9239C18.3391 23.9312 18.3421 23.9384 18.3452 23.9458C18.3767 23.8835 18.4087 23.8214 18.441 23.7595C18.4405 23.7573 18.44 23.7553 18.4395 23.7532ZM18.3912 26.4474C18.3824 26.5136 18.374 26.58 18.3658 26.6462C18.3715 26.6515 18.3772 26.6568 18.3828 26.6622C18.3864 26.5922 18.3904 26.5222 18.3947 26.4522C18.3935 26.4506 18.3924 26.4491 18.3912 26.4474ZM18.3717 26.9149C18.3607 26.9039 18.3496 26.8929 18.3385 26.882C18.3293 26.9663 18.3206 27.0508 18.3126 27.1351C18.3297 27.1468 18.3468 27.1586 18.3639 27.1705C18.3659 27.0853 18.3685 27.0001 18.3717 26.9149ZM18.5502 27.3059C18.5513 27.2393 18.5528 27.1728 18.5547 27.1062C18.556 27.1076 18.5573 27.109 18.5587 27.1104C18.5616 27.1803 18.565 27.2502 18.5687 27.32C18.5626 27.3153 18.5564 27.3106 18.5502 27.3059ZM18.3597 27.3999C18.3376 27.3838 18.3154 27.3678 18.293 27.352C18.2845 27.4537 18.2768 27.5555 18.2699 27.6572C18.2995 27.6713 18.3292 27.6855 18.3586 27.7001C18.3582 27.6001 18.3586 27.5001 18.3597 27.3999ZM18.5483 27.7979C18.5475 27.713 18.5472 27.6282 18.5477 27.5432C18.5599 27.5529 18.572 27.5627 18.5841 27.5725C18.5898 27.6576 18.5961 27.7427 18.6029 27.8277C18.5848 27.8177 18.5666 27.8078 18.5483 27.7979ZM18.3606 27.9129C18.3263 27.8953 18.2919 27.878 18.2572 27.861C18.2505 27.9805 18.2448 28.1 18.2403 28.2195C18.2834 28.2319 18.3262 28.2447 18.369 28.2582C18.3651 28.1431 18.3624 28.028 18.3606 27.9129ZM18.5604 28.3216C18.5566 28.2197 18.5537 28.1176 18.5515 28.0156C18.5754 28.029 18.5992 28.0426 18.6229 28.0563C18.6322 28.1559 18.6422 28.2555 18.653 28.3549C18.6223 28.3436 18.5913 28.3325 18.5604 28.3216ZM18.3767 28.4592C18.3294 28.4438 18.2818 28.4289 18.234 28.4148C18.1403 31.857 18.9938 35.289 20.7428 38.3201L23.6766 43.4041C24.1072 44.1504 24.6655 44.7771 25.3078 45.2726C25.6205 45.0022 25.9067 44.702 26.162 44.3764C25.8986 44.1192 25.6533 43.8363 25.4296 43.5282L21.9808 38.7789C19.7775 35.7448 18.5392 32.1508 18.3767 28.4592ZM26.2775 44.2248C26.0278 43.9792 25.7951 43.7098 25.5826 43.4171L22.1337 38.6677C19.9673 35.6844 18.7432 32.1541 18.569 28.5256C18.6053 28.5388 18.6413 28.5524 18.6773 28.5663C19.1414 32.4213 20.7811 36.07 23.4129 38.9945L26.9967 42.9767C26.8036 43.4212 26.5616 43.8395 26.2775 44.2248ZM26.2999 44.5072C26.0483 44.826 25.768 45.1211 25.4628 45.3884C25.7654 45.6074 26.0852 45.7983 26.4178 45.9597C26.7216 45.7455 27.0052 45.5058 27.2658 45.2441C26.9254 45.0313 26.6016 44.7854 26.2999 44.5072ZM27.4003 45.1048C27.0523 44.8904 26.7222 44.6407 26.4153 44.3564C26.6972 43.9771 26.9392 43.5665 27.1354 43.1308L27.339 43.3571C27.5937 43.6401 27.8674 43.896 28.1564 44.1243C27.9364 44.4748 27.6831 44.8032 27.4003 45.1048ZM27.4323 45.3447C27.1802 45.6014 26.9068 45.8379 26.6147 46.0513C26.9257 46.1895 27.247 46.3026 27.5751 46.3898C27.8704 46.2188 28.1494 46.0253 28.4101 45.8123C28.0736 45.6843 27.7463 45.5282 27.4323 45.3447ZM28.576 45.6722C28.2283 45.5463 27.8904 45.3899 27.5666 45.2038C27.8422 44.9061 28.0903 44.5833 28.3071 44.2399C28.6362 44.4849 28.9838 44.6956 29.3447 44.8716C29.1128 45.1592 28.8557 45.4273 28.576 45.6722ZM29.4638 44.7191C29.7136 44.3896 29.9312 44.0363 30.1134 43.6647C29.8021 43.4678 29.5032 43.2421 29.2204 42.9873L28.9943 42.7836C28.8447 43.2374 28.6469 43.6712 28.4062 44.0778C28.7409 44.3285 29.0954 44.5423 29.4638 44.7191ZM28.2553 43.9614C28.4977 43.5484 28.6947 43.1071 28.8403 42.6448L27.6188 41.5444C27.5361 42.0297 27.4003 42.4968 27.2178 42.9396L27.4795 43.2305C27.7216 43.4995 27.9813 43.7432 28.2553 43.9614ZM27.077 42.7832C27.2516 42.342 27.3785 41.8767 27.4515 41.3938L24.86 39.0591C21.8083 36.31 19.7498 32.6628 18.9534 28.6816C18.9283 28.6704 18.9032 28.6593 18.8779 28.6484C19.3543 32.4264 20.9717 35.9991 23.5534 38.8679L27.077 42.7832ZM18.852 28.4324C18.8712 28.4402 18.8905 28.4483 18.9097 28.4564C18.894 28.3726 18.8788 28.2887 18.8643 28.2046C18.8511 28.1961 18.8379 28.1876 18.8247 28.1792C18.8332 28.2637 18.8423 28.348 18.852 28.4324ZM18.8024 27.9428C18.8092 27.9469 18.8159 27.951 18.8226 27.9551C18.8116 27.8861 18.801 27.8169 18.7907 27.7477C18.7891 27.7464 18.7875 27.7449 18.786 27.7435C18.7911 27.81 18.7966 27.8764 18.8024 27.9428ZM19.083 28.3535C19.095 28.4191 19.1074 28.4846 19.1201 28.55C19.1273 28.5534 19.1346 28.5568 19.1418 28.5602C19.1236 28.4928 19.1058 28.4251 19.0884 28.3574C19.0865 28.3562 19.0847 28.3549 19.083 28.3535ZM19.2092 28.804C19.1951 28.7968 19.1811 28.7897 19.1669 28.7827C19.9751 32.6703 22.0007 36.2287 24.9865 38.9185L27.4817 41.1664C27.5095 40.9243 27.5238 40.6781 27.5238 40.4286V39.8572L26.3061 38.9721C22.8518 36.461 20.3638 32.8719 19.2092 28.804ZM27.5238 39.6234L26.4173 38.819C23.0475 36.3695 20.6066 32.8837 19.4422 28.9292C19.4442 28.9304 19.4461 28.9315 19.448 28.9326C20.9533 32.9702 23.7953 36.3918 27.5238 38.6103V39.6234ZM27.7129 39.9946V40.4286C27.7129 40.7312 27.6925 41.0289 27.653 41.3208L28.8999 42.444C29.0274 41.9869 29.1051 41.5108 29.1273 41.0228L27.7129 39.9946ZM29.1336 40.7935L27.7129 39.7608V38.7213C27.7203 38.7256 27.7278 38.73 27.7352 38.7342L29.0386 39.4871L29.0982 40.0556C29.1243 40.3036 29.1359 40.5499 29.1336 40.7935ZM29.3094 41.1551C29.2778 41.6464 29.1916 42.1252 29.0562 42.5848L29.3469 42.8467C29.6157 43.0888 29.8995 43.3041 30.1947 43.4924C30.3927 43.0563 30.5425 42.5967 30.639 42.1217L29.3094 41.1551ZM30.6773 41.9157L29.32 40.9291C29.3287 40.6348 29.3179 40.3366 29.2863 40.0357L29.241 39.604L30.7548 40.4785C30.7838 40.9662 30.7563 41.4478 30.6773 41.9157ZM30.7371 40.2498C30.714 40.0074 30.6768 39.7637 30.6249 39.5199L30.5061 38.9607L29.1313 38.3482C29.1235 38.3447 29.1158 38.3413 29.1079 38.3378L29.2165 39.3715L30.7371 40.2498ZM29.0142 39.2545L28.9083 38.2471C28.5016 38.0596 28.1029 37.8584 27.7129 37.644V38.5023C27.7517 38.5251 27.7907 38.5478 27.8297 38.5704L29.0142 39.2545ZM27.5238 38.3897V37.5387C24.2049 35.6648 21.5255 32.8321 19.8384 29.4123C21.3611 33.1375 24.0485 36.2937 27.5238 38.3897ZM20.3056 29.9064C21.9684 33.0021 24.469 35.5733 27.5238 37.3211V36.5725C24.5823 35.0274 22.0889 32.7307 20.3056 29.9064ZM27.7129 36.6704V37.4279C28.0953 37.6409 28.4864 37.8411 28.8853 38.0279L28.7964 37.1816C28.4292 37.0223 28.0679 36.8518 27.7129 36.6704ZM28.7737 36.9652C28.4141 36.8069 28.0604 36.6376 27.7129 36.4577V35.7966C28.0359 35.947 28.3635 36.0882 28.6954 36.2203L28.7737 36.9652ZM28.9954 37.2665L29.0851 38.12C29.126 38.1387 29.1671 38.1571 29.2082 38.1754L30.4576 38.732L30.2471 37.7412C29.8231 37.5973 29.4057 37.4389 28.9954 37.2665ZM30.2013 37.5256C29.7851 37.3815 29.3755 37.2234 28.9728 37.0515L28.8936 36.298C29.2655 36.4413 29.6426 36.573 30.0244 36.693L30.2013 37.5256ZM29.9792 36.4802L29.8236 35.7476C29.4798 35.6509 29.1393 35.5447 28.8024 35.4291L28.8714 36.0865C29.2358 36.229 29.6051 36.3603 29.9792 36.4802ZM28.6731 36.0076L28.605 35.3601C28.3046 35.2533 28.0071 35.139 27.7129 35.0173V35.5878C28.0286 35.7365 28.3487 35.8765 28.6731 36.0076ZM27.5238 35.4975V34.9379C25.227 33.9592 23.1337 32.5311 21.3738 30.7244C23.0728 32.7334 25.1703 34.3571 27.5238 35.4975ZM21.9672 31.0467C23.5909 32.6028 25.4747 33.8484 27.5238 34.7322V34.5581C27.5238 34.4582 27.5263 34.3586 27.5312 34.2592C25.5185 33.5167 23.6348 32.4338 21.9672 31.0467ZM27.7174 34.3268C27.7144 34.4037 27.7129 34.4808 27.7129 34.5581V34.8124C27.9998 34.9325 28.29 35.0455 28.5831 35.1513L28.5247 34.5948C28.2535 34.5114 27.9844 34.4221 27.7174 34.3268ZM28.5032 34.3901C28.2431 34.309 27.9848 34.2222 27.7286 34.1299C27.824 32.8403 28.348 31.6176 29.2191 30.6586C28.6159 31.7328 28.3545 32.9754 28.485 34.2172L28.5032 34.3901ZM28.7209 34.6539L28.7806 35.2214C29.11 35.3362 29.443 35.4419 29.7791 35.5384L29.6438 34.9016C29.3339 34.8267 29.0262 34.7441 28.7209 34.6539ZM29.6003 34.6962C29.2978 34.6217 28.9975 34.5396 28.6996 34.4502L28.673 34.1973C28.522 32.7603 28.913 31.3221 29.7631 30.1623C29.2757 31.2936 29.1456 32.5565 29.4051 33.7776L29.6003 34.6962ZM29.8039 34.7452C30.1434 34.8249 30.4855 34.8952 30.8298 34.956L30.2739 33.2442C29.8885 32.0573 29.8857 30.7882 30.252 29.6124C29.5282 30.8546 29.2898 32.3252 29.59 33.7382L29.8039 34.7452ZM29.6508 20.4817C27.4742 18.3712 24.8391 16.8376 21.9835 15.9796V17.0396C21.9835 18.6277 21.353 20.1506 20.2306 21.2735C20.2038 21.3005 20.1769 21.3275 20.1501 21.3546C20.0544 21.4963 19.9523 21.6342 19.8439 21.7681C19.8197 21.798 19.7957 21.8278 19.7718 21.8578C19.6915 22.0084 19.6044 22.1561 19.5108 22.3004C19.4896 22.3331 19.4685 22.3657 19.4475 22.3985C19.3835 22.5563 19.3125 22.7118 19.2347 22.8647C19.2172 22.899 19.1999 22.9331 19.1827 22.9674C19.1355 23.1315 19.081 23.2941 19.0194 23.4547C19.0057 23.4907 18.9919 23.5265 18.9784 23.5625C18.9486 23.7305 18.9114 23.8979 18.8669 24.064C18.8568 24.1015 18.847 24.139 18.8372 24.1765C18.8251 24.3464 18.8056 24.5164 18.7788 24.686C18.7726 24.7242 18.7667 24.7625 18.7609 24.8008C18.7665 24.9711 18.765 25.1421 18.7561 25.3135C18.754 25.3517 18.7522 25.3899 18.7504 25.4281C18.7739 25.5974 18.7903 25.7682 18.7993 25.9402C18.8013 25.978 18.8034 26.0157 18.8055 26.0533C18.8468 26.2197 18.8811 26.3883 18.9081 26.5589C18.914 26.5962 18.92 26.6334 18.9261 26.6707C18.9845 26.8318 19.0361 26.996 19.0808 27.1627C19.0908 27.1998 19.1008 27.2369 19.111 27.2738C19.1856 27.4273 19.2538 27.5846 19.3154 27.7452C19.3293 27.7815 19.3434 27.8177 19.3574 27.8538C19.4473 27.9984 19.5314 28.1472 19.6092 28.3C19.6265 28.3339 19.6438 28.3677 19.6613 28.4014C19.7664 28.5364 19.8661 28.6763 19.9599 28.821C19.9807 28.8528 20.0016 28.8847 20.0224 28.9165C20.141 29.0398 20.2548 29.1684 20.3632 29.3024C20.387 29.3319 20.4109 29.3612 20.435 29.3906C20.566 29.5008 20.6926 29.617 20.8146 29.739C22.74 31.6654 25.0405 33.1302 27.5444 34.0623C27.661 32.6559 28.2717 31.3297 29.2766 30.3241C29.5142 30.0865 29.7448 29.843 29.9682 29.5943C30.1147 29.4074 30.2573 29.218 30.3962 29.0264C30.5219 28.826 30.6437 28.6235 30.7614 28.4191C30.8668 28.2041 30.9679 27.9875 31.0648 27.7694C31.1465 27.546 31.2239 27.3214 31.2969 27.0959C31.3547 26.8659 31.408 26.6352 31.4569 26.4039C31.4906 26.1682 31.5197 25.9323 31.5443 25.6963C31.5531 25.4569 31.5574 25.2177 31.5572 24.979C31.541 24.7403 31.5202 24.5022 31.495 24.2651C31.4541 24.0304 31.4088 23.7971 31.3592 23.5649C31.2944 23.3376 31.2255 23.1118 31.1525 22.888C31.0643 22.6681 30.9721 22.4505 30.876 22.235C30.7636 22.0224 30.6473 21.8122 30.5272 21.6047C30.3947 21.4073 30.2585 21.2127 30.1191 21.0211C29.966 20.838 29.81 20.6582 29.6508 20.4817ZM20.8161 30.3405C22.5329 32.8646 24.8372 34.9292 27.5238 36.3585V35.7075C24.9181 34.4603 22.6194 32.6282 20.8161 30.3405ZM28.9166 19.2531C27.0666 16.9487 24.6926 15.106 21.9835 13.8862V14.4624C24.6235 15.5186 26.9939 17.1563 28.9166 19.2531ZM28.6163 45.8869C28.9217 45.9917 29.2341 46.0737 29.5506 46.1327C29.2967 46.3018 29.0283 46.454 28.7466 46.5873C28.4401 46.5645 28.136 46.5197 27.8369 46.4534C28.1118 46.283 28.3722 46.0935 28.6163 45.8869ZM9.48204 10.7606C9.17343 10.8554 8.87254 10.9727 8.58182 11.111C8.68793 10.8251 8.81558 10.5441 8.96513 10.2706C9.22651 10.1088 9.49883 9.9663 9.77973 9.84392C9.65741 10.1435 9.55822 10.4499 9.48204 10.7606ZM45.6528 32.1563C45.5834 32.2753 45.5104 32.392 45.4339 32.5061C45.4215 32.6444 45.4047 32.783 45.3833 32.9218C45.4885 32.6748 45.5787 32.4193 45.6528 32.1563ZM45.0486 33.595C45.0785 33.4836 45.1057 33.3707 45.1299 33.2565C45.1606 33.1124 45.1861 32.9683 45.2066 32.8244C45.044 33.0387 44.8686 33.2426 44.6815 33.4351C44.6785 33.7031 44.6592 33.9729 44.6226 34.243C44.777 34.0367 44.9193 33.8203 45.0486 33.595ZM44.3823 34.5449C44.4401 34.2385 44.4747 33.9317 44.4873 33.6267C44.2536 33.8481 44.0037 34.0526 43.7395 34.2382C43.7631 34.5572 43.7634 34.8794 43.7395 35.2022C43.9688 34.999 44.1837 34.7794 44.3823 34.5449ZM43.7139 35.4736C43.9198 35.3019 44.1154 35.1176 44.2993 34.9218C44.2639 35.0627 44.2234 35.2034 44.1779 35.3436C44.1418 35.4547 44.103 35.5642 44.0616 35.6719C43.9098 35.8821 43.7459 36.082 43.5711 36.2708C43.6356 36.006 43.683 35.7399 43.7139 35.4736ZM43.5343 35.3765C43.5695 35.0369 43.5771 34.6974 43.5581 34.3612C43.2567 34.5583 42.9381 34.7314 42.6051 34.8776C42.6646 35.2326 42.6952 35.593 42.696 35.955C42.9907 35.7845 43.2709 35.591 43.5343 35.3765ZM42.6929 36.1742C42.9751 36.0172 43.2452 35.8399 43.5008 35.644C43.4564 35.9458 43.3899 36.2472 43.3006 36.546C43.0784 36.7587 42.8416 36.9547 42.5922 37.133C42.6496 36.8144 42.6829 36.494 42.6929 36.1742ZM42.5064 36.0605C42.5117 35.6886 42.4845 35.3182 42.4259 34.9532C42.0536 35.1038 41.6644 35.2212 41.262 35.302C41.372 35.6931 41.4459 36.0935 41.4827 36.4977C41.8377 36.3816 42.1801 36.2349 42.5064 36.0605ZM41.4974 36.6919C41.844 36.5811 42.179 36.4422 42.4995 36.2777C42.4832 36.614 42.4403 36.9509 42.3698 37.285C42.0854 37.4708 41.7862 37.6339 41.4753 37.7728C41.5123 37.4127 41.5195 37.0511 41.4974 36.6919ZM41.2979 36.5552C41.2631 36.143 41.1886 35.7348 41.0754 35.3366C40.7127 35.3985 40.34 35.4308 39.9599 35.4308H39.6538C39.8463 35.8683 39.9895 36.3231 40.0826 36.7866C40.4991 36.7487 40.9057 36.6704 41.2979 36.5552ZM40.1173 36.9733C40.5261 36.9351 40.9254 36.859 41.3113 36.7482C41.3314 37.1172 41.3197 37.4886 41.2756 37.8579C40.9329 37.9972 40.5771 38.1073 40.2119 38.1856C40.2176 37.7797 40.186 37.3738 40.1173 36.9733ZM39.8927 36.8009C39.7966 36.3318 39.6477 35.8719 39.4465 35.4308H37.8029C38.066 35.8467 38.2776 36.2847 38.4381 36.7361L38.8287 36.7771C39.1879 36.8149 39.5435 36.8221 39.8927 36.8009ZM38.5047 36.9333L38.8089 36.9652C39.187 37.005 39.5611 37.0119 39.9281 36.9883C39.9991 37.3961 40.0305 37.8099 40.0222 38.2234C39.6201 38.297 39.2077 38.3323 38.7896 38.3264C38.7454 37.8558 38.6506 37.3885 38.5047 36.9333ZM38.2289 36.7141C38.0635 36.2693 37.8466 35.8386 37.5778 35.4308H35.8298L36.0853 35.7826C36.2628 36.027 36.4211 36.2796 36.5605 36.5386L38.2289 36.7141ZM36.6643 36.7397L38.2987 36.9116C38.4526 37.3713 38.5526 37.8442 38.5991 38.3209C38.2497 38.3054 37.8968 38.2611 37.5434 38.1859L37.1596 38.1043C37.0471 37.6386 36.8825 37.1809 36.6643 36.7397ZM36.3312 36.5145C36.2116 36.3026 36.0787 36.0954 35.9323 35.8937L35.5961 35.4308H34.0923C34.0834 35.4308 34.0747 35.4308 34.0658 35.4307L34.5852 36.3309L36.3312 36.5145ZM34.7021 36.5334L36.4404 36.7162C36.6652 37.1498 36.8358 37.6009 36.9539 38.0605L35.313 37.7116C35.2015 37.4394 35.0704 37.1716 34.9193 36.9097L34.7021 36.5334ZM34.3528 36.3064L33.8466 35.4292C33.3989 35.4234 32.953 35.4018 32.5096 35.3646L32.8585 36.1488C32.9034 36.1538 32.9483 36.1587 32.9933 36.1635L34.3528 36.3064ZM32.9476 36.3489C32.9562 36.3498 32.9649 36.3507 32.9735 36.3516L34.4697 36.5089L34.7556 37.0044C34.8802 37.2202 34.9907 37.4403 35.0876 37.6636L33.3701 37.2983L32.9476 36.3489ZM33.4652 37.5119L33.6418 37.909C33.7647 38.1851 33.8671 38.4652 33.9496 38.7476L35.5452 39.2663C35.4759 38.7969 35.3533 38.3304 35.175 37.8756L33.4652 37.5119ZM35.3952 37.9224C35.5662 38.384 35.6821 38.8565 35.7453 39.3314L36.1179 39.4525C36.4618 39.5643 36.8081 39.6454 37.1541 39.6972C37.1577 39.2183 37.1077 38.7375 37.0027 38.2643L35.3952 37.9224ZM37.2054 38.3073C37.3028 38.7754 37.3482 39.2499 37.343 39.7227C37.7582 39.7722 38.1719 39.7801 38.5793 39.749C38.6309 39.3387 38.6428 38.9239 38.6149 38.5109C38.2473 38.496 37.876 38.45 37.5041 38.3709L37.2054 38.3073ZM38.8046 38.5158C38.831 38.9212 38.82 39.3283 38.772 39.7313C39.1434 39.6915 39.5085 39.6193 39.8638 39.5167C39.9463 39.154 39.9967 38.7859 40.0153 38.4168C39.62 38.4866 39.215 38.5205 38.8046 38.5158ZM40.2063 38.3802C40.1907 38.7398 40.1458 39.0987 40.0713 39.453C40.3951 39.3474 40.7096 39.2163 41.0118 39.0613C41.1169 38.7365 41.1948 38.4059 41.2462 38.0732C40.9102 38.2032 40.5625 38.3063 40.2063 38.3802ZM41.4492 37.9906C41.4059 38.3074 41.3392 38.6227 41.2489 38.9335C41.5158 38.7822 41.7719 38.6118 42.0152 38.4234C42.1354 38.1357 42.2329 37.843 42.3085 37.5475C42.0337 37.7156 41.7465 37.8638 41.4492 37.9906ZM42.5382 37.4003C42.4798 37.6618 42.4049 37.9215 42.313 38.178C42.507 38.0081 42.6912 37.826 42.8645 37.6323C42.9166 37.5301 42.9664 37.4258 43.0137 37.3197C43.0737 37.1847 43.1287 37.0489 43.1787 36.9122C42.9752 37.0879 42.7613 37.2509 42.5382 37.4003ZM43.4671 36.6479C43.4264 36.7804 43.3813 36.9121 43.3317 37.0432C43.4854 36.8239 43.6264 36.5933 43.7532 36.3519C43.6609 36.4538 43.5655 36.5525 43.4671 36.6479ZM42.4869 38.2767C42.3841 38.3686 42.2784 38.4572 42.1703 38.5422C42.1157 38.6701 42.0569 38.7969 41.9937 38.9226C42.1702 38.7198 42.3351 38.5042 42.4869 38.2767ZM41.4673 39.4594C41.5301 39.3629 41.5907 39.2641 41.6489 39.1632C41.7229 39.0352 41.7918 38.9057 41.8558 38.7749C41.6349 38.9285 41.4049 39.0682 41.1674 39.1936C41.0818 39.4479 40.98 39.6986 40.8617 39.9443C41.0724 39.7957 41.2747 39.6339 41.4673 39.4594ZM40.5398 40.1572C40.6896 39.8834 40.8174 39.6023 40.9236 39.316C40.6326 39.4545 40.3315 39.5718 40.0227 39.6668C39.9464 39.9775 39.8472 40.2842 39.7248 40.584C40.0058 40.4616 40.2783 40.319 40.5398 40.1572ZM39.6165 40.8342C39.8657 40.7344 40.1089 40.6196 40.3446 40.49C40.2673 40.6131 40.1855 40.7344 40.0987 40.8538C40.0301 40.9484 39.9593 41.0404 39.8866 41.1302C39.6769 41.2834 39.459 41.423 39.234 41.5487C39.3773 41.3167 39.5048 41.078 39.6165 40.8342ZM39.4757 40.6864C39.6141 40.3741 39.7262 40.0534 39.812 39.7277C39.4645 39.8219 39.108 39.888 38.7461 39.9243C38.693 40.2803 38.6108 40.6326 38.4997 40.9772C38.8325 40.9061 39.1589 40.8088 39.4757 40.6864ZM38.429 41.1848C38.7459 41.1227 39.0574 41.0376 39.3611 40.9303C39.2256 41.2038 39.0692 41.4701 38.8917 41.7267C38.6149 41.8601 38.3291 41.9734 38.0369 42.0657C38.1899 41.7803 38.3207 41.4859 38.429 41.1848ZM38.2867 41.0188C38.4067 40.6667 38.4953 40.3059 38.5524 39.9407C38.152 39.9688 37.7457 39.9601 37.3382 39.9125C37.3221 40.3186 37.2687 40.7222 37.1788 41.1181C37.5521 41.1173 37.9228 41.0837 38.2867 41.0188ZM37.1329 41.3072C37.4964 41.309 37.8577 41.2806 38.2131 41.2233C38.0937 41.5382 37.9488 41.8454 37.7784 42.1414C37.4508 42.2299 37.1162 42.2927 36.7779 42.3284C36.9244 41.9974 37.0429 41.6558 37.1329 41.3072ZM36.9854 41.1155C37.0794 40.7128 37.1347 40.3015 37.15 39.8878C36.7858 39.8346 36.4212 39.75 36.0595 39.6324L35.7695 39.5381C35.8175 40.0137 35.8131 40.4905 35.7586 40.96C36.1662 41.0527 36.5769 41.1038 36.9854 41.1155ZM35.7339 41.1483C36.1342 41.2382 36.5373 41.2893 36.9384 41.3033C36.8435 41.6605 36.7177 42.0101 36.5616 42.3477C36.1929 42.3742 35.8208 42.3688 35.4494 42.3305C35.5801 41.9463 35.6755 41.5504 35.7339 41.1483ZM35.5734 40.9149C35.6269 40.4391 35.6274 39.9556 35.5725 39.474L34.0093 38.966C34.1311 39.4429 34.197 39.9248 34.2103 40.4036L34.5684 40.5632C34.8987 40.7103 35.2347 40.8271 35.5734 40.9149ZM34.2127 40.6118L34.4916 40.736C34.8391 40.8908 35.1927 41.013 35.5493 41.1041C35.4908 41.5139 35.393 41.917 35.2573 42.3078C34.8523 42.2534 34.449 42.1596 34.0533 42.0247C34.1566 41.5635 34.2108 41.0897 34.2127 40.6118ZM34.0091 42.2095C33.9089 42.6033 33.7728 42.987 33.6026 43.3555C33.968 43.4324 34.3377 43.4766 34.7072 43.4888C34.8977 43.1694 35.0594 42.8349 35.191 42.4896C34.7935 42.4338 34.3979 42.3408 34.0091 42.2095ZM35.384 42.5138C35.2581 42.851 35.1045 43.1785 34.9243 43.4923C35.2645 43.492 35.6038 43.4647 35.939 43.4108C36.1393 43.1343 36.3156 42.844 36.4672 42.5433C36.1077 42.5631 35.7453 42.5537 35.384 42.5138ZM36.6858 42.5275C36.5467 42.8156 36.3859 43.0947 36.204 43.3624C36.5041 43.3012 36.8 43.2185 37.0892 43.1147C37.2925 42.8782 37.4758 42.6298 37.6391 42.372C37.326 42.4469 37.0073 42.499 36.6858 42.5275ZM37.903 42.3032C37.7665 42.5339 37.6149 42.7579 37.4483 42.9735C37.685 42.8721 37.9162 42.7561 38.1406 42.6256C38.2223 42.5441 38.3023 42.4598 38.3805 42.373C38.4791 42.2635 38.5731 42.1515 38.6627 42.0372C38.4149 42.1413 38.1611 42.2301 37.903 42.3032ZM39.0186 41.8752C38.9388 41.9888 38.8549 42.1005 38.767 42.2102C38.9816 42.0487 39.1875 41.8724 39.3833 41.6815C39.2637 41.75 39.142 41.8146 39.0186 41.8752ZM37.5826 43.1214C37.4564 43.1769 37.3288 43.2284 37.2 43.2757C37.1087 43.3802 37.0137 43.4825 36.9148 43.5823C37.145 43.4442 37.368 43.2906 37.5826 43.1214ZM36.2485 43.9301C36.3382 43.8576 36.4264 43.7823 36.5131 43.7042C36.6226 43.6056 36.728 43.5039 36.8291 43.3997C36.5718 43.4772 36.3103 43.5389 36.046 43.5847C35.8862 43.7998 35.7122 44.0066 35.5239 44.2036C35.7698 44.1275 36.0118 44.0363 36.2485 43.9301ZM35.1521 44.3066C35.3788 44.0927 35.587 43.8649 35.7763 43.6256C35.4571 43.6674 35.1347 43.6858 34.8119 43.6806C34.6435 43.9526 34.4544 44.2134 34.2455 44.4606C34.5504 44.4309 34.8535 44.3796 35.1521 44.3066ZM34.0652 44.665C34.3329 44.6472 34.5995 44.6131 34.8636 44.5628C34.752 44.656 34.6366 44.7462 34.5172 44.8329C34.423 44.9014 34.3276 44.9669 34.2311 45.0295C33.9844 45.1104 33.7339 45.1759 33.4813 45.2259C33.689 45.0497 33.8838 44.8623 34.0652 44.665ZM33.9769 44.4809C34.205 44.2269 34.4105 43.9567 34.5928 43.6734C34.2331 43.6557 33.8737 43.6083 33.5184 43.5309C33.358 43.8531 33.171 44.1626 32.959 44.456C33.2975 44.4912 33.6379 44.4995 33.9769 44.4809ZM32.8275 44.6315C33.1481 44.6704 33.4708 44.6858 33.7927 44.6775C33.5795 44.8957 33.3486 45.1005 33.1007 45.2895C32.7961 45.331 32.4892 45.3503 32.1828 45.3479C32.4164 45.1239 32.6317 44.8843 32.8275 44.6315ZM31.9821 45.5323C31.7811 45.7097 31.5678 45.8757 31.3427 46.0293C31.5991 46.006 31.855 45.9671 32.1088 45.9124C32.2115 45.8601 32.3133 45.8049 32.4143 45.7465C32.5421 45.6728 32.6663 45.5953 32.787 45.5142C32.5191 45.5366 32.2503 45.5426 31.9821 45.5323ZM33.1756 45.47C33.0647 45.5533 32.9504 45.6336 32.8329 45.7107C33.0868 45.6235 33.337 45.5195 33.5819 45.3986C33.4471 45.4267 33.3115 45.4504 33.1756 45.47ZM31.4247 46.2114C31.2876 46.2253 31.1504 46.2349 31.0131 46.2401C30.8941 46.3113 30.7722 46.3791 30.6473 46.4435C30.9089 46.3833 31.1685 46.3061 31.4247 46.2114ZM34.9301 44.7531C35.0387 44.6643 35.1439 44.5726 35.2454 44.4783C35.3784 44.4447 35.5106 44.4069 35.6416 44.3649C35.4109 44.5106 35.1732 44.64 34.9301 44.7531ZM40.466 40.6514C40.5422 40.5331 40.6141 40.4131 40.6817 40.2917C40.7981 40.2183 40.9125 40.1413 41.0244 40.0607C40.8495 40.2712 40.6629 40.4682 40.466 40.6514ZM44.4648 35.0374C44.5006 34.9015 44.5318 34.7653 44.5586 34.629C44.6466 34.5234 44.7316 34.4149 44.813 34.3037C44.7118 34.5577 44.5952 34.8026 44.4648 35.0374ZM24.6131 47.2465C24.4785 47.2173 24.3451 47.1839 24.2129 47.1464C24.0777 47.1774 23.9408 47.2042 23.8022 47.2268C24.0695 47.2504 24.3403 47.2573 24.6131 47.2465ZM23.0588 47.1162C23.1739 47.1103 23.2895 47.1014 23.4055 47.0892C23.552 47.0738 23.6969 47.0535 23.8399 47.0285C23.5861 46.94 23.3381 46.8361 23.0973 46.7177C22.8417 46.7977 22.5793 46.8626 22.3114 46.9113C22.5552 46.9943 22.8047 47.063 23.0588 47.1162ZM21.9501 46.7758C22.2592 46.7362 22.5614 46.6744 22.8551 46.5922C21.4271 45.8148 20.2825 44.5102 19.7404 42.8411L17.9272 37.258C16.9713 34.3142 16.7582 31.2111 17.267 28.2149C17.1751 28.204 17.0827 28.1952 16.9902 28.1887C16.3528 30.8723 16.3075 33.6892 16.8917 36.4387L18.1116 42.1811C18.5688 44.3331 20.0577 46.0008 21.9501 46.7758ZM16.7983 28.1784C16.162 30.8789 16.1191 33.7123 16.7068 36.478L17.9266 42.2204C18.3719 44.3162 19.7675 45.9657 21.5661 46.8135C21.4212 46.8233 21.2749 46.8283 21.1273 46.8283C21.0108 46.8283 20.895 46.8252 20.78 46.819C18.4425 46.0664 16.6486 43.994 16.3754 41.3934L15.7621 35.555C15.4988 33.0487 15.7443 30.5416 16.4566 28.1744H16.5829C16.6549 28.1744 16.7266 28.1758 16.7983 28.1784ZM17.0354 28.0024C17.1238 28.009 17.2119 28.0177 17.2996 28.0283C17.33 27.8594 17.3628 27.6908 17.3978 27.5227C17.3253 27.5006 17.2522 27.4799 17.1786 27.4606C17.1282 27.6405 17.0804 27.8211 17.0354 28.0024ZM16.9948 27.4158C16.9413 27.6067 16.8909 27.7985 16.8435 27.9909C16.7569 27.9871 16.6699 27.9852 16.5829 27.9852H16.5147C16.5801 27.7759 16.6492 27.5677 16.7219 27.3607C16.8135 27.3769 16.9045 27.3952 16.9948 27.4158ZM17.2305 27.2787C17.2999 27.2969 17.3688 27.3164 17.4374 27.337C17.4694 27.1906 17.5032 27.0444 17.5387 26.8987C17.4834 26.8709 17.4275 26.844 17.3711 26.8179C17.3222 26.971 17.2754 27.1246 17.2305 27.2787ZM17.1972 26.741C17.1448 26.9046 17.0947 27.0688 17.0467 27.2336C16.9605 27.2139 16.8737 27.196 16.7864 27.1801C16.8501 27.0046 16.9164 26.8299 16.9853 26.6563C17.0566 26.6831 17.1272 26.7115 17.1972 26.741ZM17.4299 26.6368C17.4821 26.6607 17.5341 26.6854 17.5856 26.7107C17.618 26.5834 17.6518 26.4564 17.6868 26.3296C17.6465 26.3003 17.6058 26.2715 17.5648 26.2432C17.5184 26.3739 17.4734 26.5052 17.4299 26.6368ZM17.4025 26.1353C17.3519 26.2765 17.3032 26.4183 17.256 26.5605C17.1899 26.5328 17.1232 26.5062 17.056 26.4808C17.1168 26.3322 17.1794 26.1843 17.2439 26.0373C17.2974 26.0691 17.3502 26.1018 17.4025 26.1353ZM17.6311 26.0595C17.6681 26.0845 17.705 26.1101 17.7414 26.1361C17.7734 26.0253 17.8063 25.9149 17.8402 25.8047C17.8131 25.7774 17.7856 25.7503 17.7579 25.7235C17.7146 25.8352 17.6723 25.9471 17.6311 26.0595ZM17.6093 25.5846C17.5611 25.707 17.5143 25.83 17.4687 25.9533C17.42 25.9226 17.371 25.8926 17.3214 25.8633C17.3784 25.7368 17.4368 25.611 17.4967 25.4857C17.5347 25.5182 17.5722 25.5512 17.6093 25.5846ZM17.833 25.5337C17.8568 25.5562 17.8805 25.5789 17.904 25.6017C17.9346 25.5065 17.9658 25.4114 17.9979 25.3166C17.9818 25.2944 17.9656 25.2723 17.9493 25.2504C17.9097 25.3445 17.8709 25.4389 17.833 25.5337ZM17.8167 25.0789C17.7714 25.1848 17.7272 25.2911 17.6839 25.3978C17.6502 25.368 17.6162 25.3388 17.5819 25.3099C17.6345 25.2025 17.6883 25.0956 17.7431 24.9892C17.7679 25.0189 17.7924 25.0487 17.8167 25.0789ZM17.6097 24.8354C17.5763 24.7982 17.5424 24.7615 17.508 24.7252C17.4354 24.8435 17.3641 24.9625 17.2942 25.0823C17.3405 25.1166 17.3862 25.1517 17.4314 25.1873C17.4897 25.0695 17.549 24.9521 17.6097 24.8354ZM17.3466 25.3614C17.2981 25.3226 17.2489 25.2845 17.199 25.2472C17.1194 25.3869 17.0416 25.5274 16.9657 25.6689C17.0299 25.7012 17.0934 25.7347 17.1564 25.7693C17.2182 25.6326 17.2816 25.4967 17.3466 25.3614ZM17.079 25.9425C17.0125 25.9058 16.9451 25.8703 16.877 25.8361C16.7904 26.0016 16.7062 26.1682 16.6245 26.3362C16.7097 26.3612 16.7942 26.3881 16.878 26.4167C16.9429 26.2578 17.0099 26.0998 17.079 25.9425ZM16.8073 26.5924C16.7195 26.5625 16.6309 26.5347 16.5414 26.5091C16.4476 26.7073 16.3571 26.9072 16.2701 27.1086L16.3378 27.1156C16.4246 27.1248 16.5109 27.1358 16.5967 27.1486C16.664 26.9622 16.7342 26.7768 16.8073 26.5924ZM16.5322 27.3304C16.4611 27.3202 16.3897 27.3113 16.3181 27.3038L16.1926 27.2906C16.0963 27.5203 16.0046 27.7519 15.9176 27.9852H16.3168C16.3846 27.7657 16.4564 27.5473 16.5322 27.3304ZM16.2593 28.1744H15.848C15.1157 30.2025 14.7309 32.3604 14.7309 34.5581V40.4286C14.7309 43.5916 17.0243 46.2187 20.0383 46.7359C17.9718 45.805 16.4414 43.8308 16.1874 41.4131L15.5741 35.5748C15.3102 33.0626 15.5523 30.5493 16.2593 28.1744ZM15.7159 27.9852C15.8046 27.7449 15.8981 27.5065 15.9964 27.27L9.31933 26.5678C5.82936 26.2008 3.26385 23.1698 3.4292 19.7066C3.24708 20.3007 3.14908 20.9317 3.14908 21.5855C3.14908 25.12 6.01287 27.9852 9.54554 27.9852H15.7159ZM3.69171 19.0019C3.67361 19.1156 3.65843 19.2303 3.64627 19.3461C3.27701 22.8612 5.82576 26.0103 9.33909 26.3797L16.0732 27.0878C16.1636 26.8766 16.2579 26.6669 16.3559 26.4591C16.2864 26.4415 16.2163 26.4252 16.1458 26.4103L9.26232 24.9463C6.10025 24.2739 3.9546 21.435 4.04756 18.3128C3.9156 18.5342 3.79664 18.7643 3.69171 19.0019ZM4.25502 17.9874C3.99647 21.1482 6.11899 24.0845 9.30162 24.7614L16.1851 26.2253C16.2704 26.2434 16.3551 26.2633 16.4391 26.2851C16.5255 26.1067 16.6146 25.9296 16.7066 25.754C16.4999 25.6584 16.2866 25.5747 16.0678 25.5036L9.37497 23.3278C6.65996 22.4452 4.90974 19.9654 4.82585 17.2659C4.61895 17.4921 4.42807 17.7332 4.25502 17.9874ZM4.82307 16.9933C4.63602 17.1858 4.46063 17.3897 4.29803 17.6038C4.31858 17.4598 4.34414 17.3153 4.37484 17.1709C4.39906 17.0568 4.42617 16.9442 4.45609 16.8329C4.58523 16.6077 4.72753 16.3915 4.88182 16.1851C4.84528 16.4553 4.82592 16.7252 4.82307 16.9933ZM5.01181 17.071C5.01533 19.7656 6.73307 22.2701 9.43339 23.1479L16.1263 25.3237C16.3555 25.3982 16.5788 25.4861 16.7952 25.5865C16.8764 25.4353 16.9597 25.285 17.0449 25.1358C16.7452 24.9266 16.4243 24.7447 16.0855 24.5938L9.65669 21.73C7.43268 20.7393 6.02783 18.6668 5.78557 16.4076C5.51023 16.6081 5.25149 16.8301 5.01181 17.071ZM5.76583 16.1892C5.50133 16.375 5.25113 16.5797 5.01718 16.8015C5.02973 16.4965 5.06438 16.1898 5.12215 15.8832C5.32099 15.6483 5.53622 15.4283 5.76586 15.2249C5.74202 15.5478 5.74232 15.8701 5.76583 16.1892ZM5.96323 16.2828C6.16571 18.5177 7.53908 20.5796 9.73358 21.5573L16.1625 24.421C16.5072 24.5747 16.8342 24.7593 17.14 24.9715C17.2156 24.8421 17.2929 24.7136 17.3717 24.586C17.0231 24.2416 16.6294 23.9401 16.1979 23.6908L10.1035 20.1704C8.39159 19.1815 7.29133 17.5398 6.93544 15.7411C6.59454 15.8937 6.26942 16.0753 5.96323 16.2828ZM6.90048 15.5496C6.56743 15.6959 6.2488 15.869 5.94731 16.0661C5.92834 15.7298 5.93591 15.3902 5.97118 15.0505C6.23461 14.8361 6.51498 14.6425 6.80961 14.472C6.81038 14.8341 6.841 15.1945 6.90048 15.5496ZM6.81279 14.2528C6.82277 13.9329 6.85615 13.6124 6.9136 13.2937C6.66419 13.4719 6.42733 13.668 6.20519 13.8806C6.11564 14.1795 6.04909 14.481 6.0047 14.783C6.26042 14.5871 6.5305 14.4098 6.81279 14.2528ZM5.79161 14.9534C5.82248 14.687 5.86998 14.4206 5.93459 14.1557C5.75926 14.345 5.59486 14.5456 5.44263 14.7564C5.40129 14.8639 5.36258 14.973 5.3266 15.0838C5.28098 15.2243 5.24049 15.3651 5.205 15.5062C5.38927 15.31 5.58523 15.1255 5.79161 14.9534ZM4.94577 15.7992C4.97252 15.663 5.0037 15.5269 5.03942 15.391C4.9091 15.6257 4.7927 15.8705 4.69157 16.1243C4.773 16.0132 4.85779 15.9047 4.94577 15.7992ZM5.75084 14.0762C5.84374 13.9738 5.93972 13.8746 6.03857 13.7786C6.07954 13.6455 6.12493 13.513 6.17485 13.3812C6.02015 13.6016 5.87835 13.8336 5.75084 14.0762ZM6.64229 12.7926C6.58961 12.8957 6.53942 13.0008 6.4918 13.1077C6.43187 13.2424 6.37697 13.3781 6.32701 13.5145C6.53059 13.3387 6.74457 13.1759 6.96758 13.0264C7.02614 12.7647 7.10122 12.5047 7.19322 12.2479C6.99948 12.4174 6.81539 12.5992 6.64229 12.7926ZM7.33603 11.8837C7.39047 11.7562 7.44924 11.6296 7.51238 11.5043C7.33624 11.7065 7.17161 11.9216 7.02 12.1486C7.1227 12.0568 7.22811 11.9685 7.33603 11.8837ZM4.12136 17.5062C4.10001 17.6452 4.0832 17.7839 4.07082 17.9222C3.99429 18.0365 3.92124 18.1533 3.85182 18.2725C3.92593 18.0092 4.01618 17.7535 4.12136 17.5062ZM21.5078 47.0066C21.648 46.9987 21.787 46.9863 21.9247 46.9697C22.0522 47.0208 22.1815 47.068 22.3123 47.1112C22.0397 47.0933 21.7712 47.0582 21.5078 47.0066ZM11.9213 7.30664C12.0475 7.25104 12.1752 7.19951 12.3043 7.15208C12.3955 7.04744 12.4907 6.94508 12.5896 6.8452C12.3592 6.9834 12.1359 7.13724 11.9213 7.30664ZM13.2559 6.49742C13.1663 6.56983 13.0782 6.64504 12.9916 6.72304C12.8819 6.82187 12.7764 6.92363 12.6752 7.02808C12.9327 6.95038 13.1946 6.88854 13.4592 6.84278C13.6191 6.62752 13.7933 6.42059 13.9816 6.22349C13.7353 6.2997 13.4929 6.39102 13.2559 6.49742ZM14.2601 5.94888C14.362 5.85429 14.4673 5.76238 14.5763 5.67333C14.3324 5.78673 14.0941 5.91646 13.8628 6.0626C13.9941 6.02048 14.1267 5.98258 14.2601 5.94888ZM14.3534 6.12062C14.1266 6.33464 13.9183 6.56248 13.7289 6.80185C14.0483 6.76008 14.3709 6.7416 14.6939 6.74685C14.8624 6.47483 15.0515 6.21393 15.2605 5.96672C14.9553 5.99623 14.6521 6.04757 14.3534 6.12062ZM15.529 5.94641C15.3009 6.20051 15.0953 6.47078 14.913 6.75406C15.2728 6.77188 15.6322 6.81924 15.9876 6.89676C16.1481 6.57453 16.3351 6.26493 16.5471 5.97157C16.2085 5.93621 15.8681 5.92789 15.529 5.94641ZM16.7626 5.99777C16.5398 6.29556 16.344 6.61136 16.177 6.94101C16.5666 7.0382 16.9504 7.17205 17.3234 7.3434C17.4641 6.96226 17.6395 6.59485 17.8473 6.24616C17.4919 6.13133 17.1289 6.04861 16.7626 5.99777ZM18.0305 6.30843C17.8166 6.66236 17.6371 7.03646 17.4948 7.42516C17.8243 7.58828 18.1446 7.7813 18.4522 8.00481L18.7004 8.18524C18.8015 7.71803 18.9528 7.26588 19.1497 6.83614C18.7905 6.62171 18.4155 6.44591 18.0305 6.30843ZM19.3119 6.93627C19.114 7.37238 18.9644 7.83202 18.868 8.30712L20.198 9.27392C20.2294 8.78274 20.3154 8.30401 20.4506 7.8445L20.1578 7.58069C19.8896 7.33904 19.6065 7.12429 19.3119 6.93627ZM20.607 7.98537C20.4797 8.44241 20.4022 8.91839 20.3802 9.40632L21.7945 10.4344V9.99871C21.7945 9.69689 21.8148 9.39981 21.854 9.10877L20.607 7.98537ZM20.3118 3.63304C20.4495 3.63363 20.5872 3.63855 20.7242 3.64774C20.8501 3.58932 20.9786 3.53455 21.1095 3.48359C20.843 3.51605 20.5766 3.56568 20.3118 3.63304Z" fill="#AEB1BF"/>
</svg>
