<svg width="252" height="51" viewBox="0 0 252 51" fill="none" xmlns="http://www.w3.org/2000/svg">
<g clip-path="url(#clip0_1050_95825)">
<path d="M0 0.95166H24.9872L0 25.9517V0.95166Z" fill="#AEB1BF"/>
<path d="M0 25.9517H24.9872L0 50.9517V25.9517Z" fill="#AEB1BF"/>
<path d="M65.9662 36.1291H82.7176V31.5652H71.4988V9.94727H65.9662V36.1291Z" fill="#AEB1BF"/>
<path d="M94.0674 36.5129C100.022 36.5129 103.727 32.4348 103.727 26.3879C103.727 20.3027 100.022 16.2373 94.0674 16.2373C88.1135 16.2373 84.4079 20.3027 84.4079 26.3879C84.4079 32.4348 88.1135 36.5129 94.0674 36.5129ZM94.0929 32.2942C91.3458 32.2942 89.9406 29.7757 89.9406 26.3496C89.9406 22.9234 91.3458 20.3922 94.0929 20.3922C96.789 20.3922 98.1948 22.9234 98.1948 26.3496C98.1948 29.7757 96.789 32.2942 94.0929 32.2942Z" fill="#AEB1BF"/>
<path d="M115.029 43.9021C120.638 43.9021 124.625 41.3453 124.625 36.3211V16.493H119.22V19.7913H119.016C118.287 18.1933 116.69 16.2373 113.406 16.2373C109.1 16.2373 105.459 19.5868 105.459 26.2728C105.459 32.8055 108.998 35.8481 113.419 35.8481C116.549 35.8481 118.3 34.2757 119.016 32.6521H119.246V36.2444C119.246 38.9419 117.52 39.9902 115.157 39.9902C112.754 39.9902 111.54 38.9419 111.093 37.753L106.059 38.4305C106.711 41.5243 109.739 43.9021 115.029 43.9021ZM115.144 31.7572C112.474 31.7572 111.017 29.6351 111.017 26.2473C111.017 22.9106 112.448 20.5711 115.144 20.5711C117.789 20.5711 119.271 22.8084 119.271 26.2473C119.271 29.7118 117.763 31.7572 115.144 31.7572Z" fill="#AEB1BF"/>
<path d="M136.745 36.5129C142.699 36.5129 146.405 32.4348 146.405 26.3879C146.405 20.3027 142.699 16.2373 136.745 16.2373C130.79 16.2373 127.085 20.3027 127.085 26.3879C127.085 32.4348 130.79 36.5129 136.745 36.5129ZM136.77 32.2942C134.023 32.2942 132.618 29.7757 132.618 26.3496C132.618 22.9234 134.023 20.3922 136.77 20.3922C139.466 20.3922 140.872 22.9234 140.872 26.3496C140.872 29.7757 139.466 32.2942 136.77 32.2942Z" fill="#AEB1BF"/>
<path d="M148.865 36.1292H154.308V16.4929H148.865V36.1292ZM151.599 13.9616C153.222 13.9616 154.551 12.7216 154.551 11.2003C154.551 9.69171 153.222 8.45166 151.599 8.45166C149.989 8.45166 148.66 9.69171 148.66 11.2003C148.66 12.7216 149.989 13.9616 151.599 13.9616Z" fill="#AEB1BF"/>
<path d="M157.589 43.493H163.032V32.9845H163.199C163.952 34.6209 165.601 36.449 168.769 36.449C173.242 36.449 176.73 32.9078 176.73 26.3368C176.73 19.5868 173.088 16.2373 168.782 16.2373C165.499 16.2373 163.927 18.1933 163.199 19.7913H162.956V16.493H157.589V43.493ZM162.917 26.3112C162.917 22.8084 164.4 20.5711 167.045 20.5711C169.741 20.5711 171.172 22.9106 171.172 26.3112C171.172 29.7373 169.715 32.1152 167.045 32.1152C164.425 32.1152 162.917 29.814 162.917 26.3112Z" fill="#AEB1BF"/>
<path d="M195.609 22.0925C195.123 18.4746 192.21 16.2373 187.252 16.2373C182.231 16.2373 178.922 18.564 178.934 22.3481C178.922 25.2885 180.774 27.1933 184.608 27.9603L188.007 28.6379C189.719 28.9831 190.498 29.6095 190.524 30.5939C190.498 31.7572 189.233 32.5882 187.329 32.5882C185.387 32.5882 184.097 31.7572 183.764 30.1592L178.41 30.4405C178.922 34.199 182.116 36.5129 187.316 36.5129C192.402 36.5129 196.043 33.9177 196.056 30.0442C196.043 27.2061 194.191 25.5058 190.383 24.726L186.831 24.0101C185.004 23.6138 184.326 22.9873 184.339 22.0413C184.326 20.8652 185.655 20.0981 187.342 20.0981C189.233 20.0981 190.357 21.1336 190.626 22.3993L195.609 22.0925Z" fill="#AEB1BF"/>
<path d="M210.99 27.7687C211.003 30.4023 209.201 31.7829 207.247 31.7829C205.189 31.7829 203.86 30.3383 203.847 28.0244V16.4932H198.404V28.996C198.417 33.5855 201.1 36.3852 205.049 36.3852C208 36.3852 210.121 34.8639 211.003 32.5628H211.208V36.1295H216.433V16.4932H210.99V27.7687Z" fill="#AEB1BF"/>
<path d="M219.708 36.1294H225.151V24.3425C225.151 22.1692 226.531 20.7246 228.346 20.7246C230.134 20.7246 231.336 21.9518 231.336 23.8822V36.1294H236.612V24.1379C236.612 22.1052 237.775 20.7246 239.756 20.7246C241.493 20.7246 242.797 21.8112 242.797 23.9973V36.1294H248.228V22.9234C248.228 18.6663 245.697 16.2373 242.043 16.2373C239.168 16.2373 236.932 17.7075 236.127 19.9575H235.922C235.297 17.6819 233.29 16.2373 230.595 16.2373C227.949 16.2373 225.943 17.6436 225.125 19.9575H224.895V16.493H219.708V36.1294Z" fill="#AEB1BF"/>
<path d="M49.9744 0.95166H24.9872V25.9517H49.9744V0.95166Z" fill="#AEB1BF"/>
<path d="M24.9872 25.9517H49.9744L24.9872 50.9517V25.9517Z" fill="#AEB1BF"/>
<path d="M65.9662 36.1291H82.7176V31.5652H71.4988V9.94727H65.9662V36.1291Z" fill="#AEB1BF"/>
<path d="M94.0674 36.5129C100.022 36.5129 103.727 32.4348 103.727 26.3879C103.727 20.3027 100.022 16.2373 94.0674 16.2373C88.1135 16.2373 84.4079 20.3027 84.4079 26.3879C84.4079 32.4348 88.1135 36.5129 94.0674 36.5129ZM94.0929 32.2942C91.3458 32.2942 89.9406 29.7757 89.9406 26.3496C89.9406 22.9234 91.3458 20.3922 94.0929 20.3922C96.789 20.3922 98.1948 22.9234 98.1948 26.3496C98.1948 29.7757 96.789 32.2942 94.0929 32.2942Z" fill="#AEB1BF"/>
<path d="M115.029 43.9021C120.638 43.9021 124.625 41.3453 124.625 36.3211V16.493H119.22V19.7913H119.016C118.287 18.1933 116.69 16.2373 113.406 16.2373C109.1 16.2373 105.459 19.5868 105.459 26.2728C105.459 32.8055 108.998 35.8481 113.419 35.8481C116.549 35.8481 118.3 34.2757 119.016 32.6521H119.246V36.2444C119.246 38.9419 117.52 39.9902 115.157 39.9902C112.754 39.9902 111.54 38.9419 111.093 37.753L106.059 38.4305C106.711 41.5243 109.739 43.9021 115.029 43.9021ZM115.144 31.7572C112.474 31.7572 111.017 29.6351 111.017 26.2473C111.017 22.9106 112.448 20.5711 115.144 20.5711C117.789 20.5711 119.271 22.8084 119.271 26.2473C119.271 29.7118 117.763 31.7572 115.144 31.7572Z" fill="#AEB1BF"/>
<path d="M136.745 36.5129C142.699 36.5129 146.405 32.4348 146.405 26.3879C146.405 20.3027 142.699 16.2373 136.745 16.2373C130.79 16.2373 127.085 20.3027 127.085 26.3879C127.085 32.4348 130.79 36.5129 136.745 36.5129ZM136.77 32.2942C134.023 32.2942 132.618 29.7757 132.618 26.3496C132.618 22.9234 134.023 20.3922 136.77 20.3922C139.466 20.3922 140.872 22.9234 140.872 26.3496C140.872 29.7757 139.466 32.2942 136.77 32.2942Z" fill="#AEB1BF"/>
<path d="M148.865 36.1292H154.308V16.4929H148.865V36.1292ZM151.599 13.9616C153.222 13.9616 154.551 12.7216 154.551 11.2003C154.551 9.69171 153.222 8.45166 151.599 8.45166C149.989 8.45166 148.66 9.69171 148.66 11.2003C148.66 12.7216 149.989 13.9616 151.599 13.9616Z" fill="#AEB1BF"/>
<path d="M157.589 43.493H163.032V32.9845H163.199C163.952 34.6209 165.601 36.449 168.769 36.449C173.242 36.449 176.73 32.9078 176.73 26.3368C176.73 19.5868 173.088 16.2373 168.782 16.2373C165.499 16.2373 163.927 18.1933 163.199 19.7913H162.956V16.493H157.589V43.493ZM162.917 26.3112C162.917 22.8084 164.4 20.5711 167.045 20.5711C169.741 20.5711 171.172 22.9106 171.172 26.3112C171.172 29.7373 169.715 32.1152 167.045 32.1152C164.425 32.1152 162.917 29.814 162.917 26.3112Z" fill="#AEB1BF"/>
<path d="M195.609 22.0925C195.123 18.4746 192.21 16.2373 187.252 16.2373C182.231 16.2373 178.922 18.564 178.934 22.3481C178.922 25.2885 180.774 27.1933 184.608 27.9603L188.007 28.6379C189.719 28.9831 190.498 29.6095 190.524 30.5939C190.498 31.7572 189.233 32.5882 187.329 32.5882C185.387 32.5882 184.097 31.7572 183.764 30.1592L178.41 30.4405C178.922 34.199 182.116 36.5129 187.316 36.5129C192.402 36.5129 196.043 33.9177 196.056 30.0442C196.043 27.2061 194.191 25.5058 190.383 24.726L186.831 24.0101C185.004 23.6138 184.326 22.9873 184.339 22.0413C184.326 20.8652 185.655 20.0981 187.342 20.0981C189.233 20.0981 190.357 21.1336 190.626 22.3993L195.609 22.0925Z" fill="#AEB1BF"/>
<path d="M210.99 27.7687C211.003 30.4023 209.201 31.7829 207.247 31.7829C205.189 31.7829 203.86 30.3383 203.847 28.0244V16.4932H198.404V28.996C198.417 33.5855 201.1 36.3852 205.049 36.3852C208 36.3852 210.121 34.8639 211.003 32.5628H211.208V36.1295H216.433V16.4932H210.99V27.7687Z" fill="#AEB1BF"/>
<path d="M219.708 36.1294H225.151V24.3425C225.151 22.1692 226.531 20.7246 228.346 20.7246C230.134 20.7246 231.336 21.9518 231.336 23.8822V36.1294H236.612V24.1379C236.612 22.1052 237.775 20.7246 239.756 20.7246C241.493 20.7246 242.797 21.8112 242.797 23.9973V36.1294H248.228V22.9234C248.228 18.6663 245.697 16.2373 242.043 16.2373C239.168 16.2373 236.932 17.7075 236.127 19.9575H235.922C235.297 17.6819 233.29 16.2373 230.595 16.2373C227.949 16.2373 225.943 17.6436 225.125 19.9575H224.895V16.493H219.708V36.1294Z" fill="#AEB1BF"/>
</g>
<defs>
<clipPath id="clip0_1050_95825">
<rect width="251.371" height="50" fill="white" transform="translate(0 0.95166)"/>
</clipPath>
</defs>
</svg>
