<svg width="251" height="50" viewBox="0 0 251 50" fill="none" xmlns="http://www.w3.org/2000/svg">
<g clip-path="url(#clip0_1050_95741)">
<path d="M26.3713 16.925L23.5291 33.0521" stroke="#AEB1BF" stroke-width="2" stroke-linecap="square"/>
<path d="M32.4208 12.042L17.4789 37.9354" stroke="#AEB1BF" stroke-width="2" stroke-linecap="square"/>
<path d="M29.1957 19.9265L20.705 30.0506" stroke="#AEB1BF" stroke-width="2" stroke-linecap="square"/>
<path d="M26.9678 23.2944L22.9317 26.6829" stroke="#AEB1BF" stroke-width="2" stroke-linecap="square"/>
<path d="M49.0692 24.9885L0.831128 24.9885" stroke="#AEB1BF" stroke-width="2" stroke-linecap="square"/>
<path d="M46.2273 28.7422L3.67328 21.2349" stroke="#AEB1BF" stroke-width="2" stroke-linecap="square"/>
<path d="M47.693 33.2705L2.20758 16.7067" stroke="#AEB1BF" stroke-width="2" stroke-linecap="square"/>
<path d="M35.4538 31.0554L14.4476 18.9213" stroke="#AEB1BF" stroke-width="2" stroke-linecap="square"/>
<path d="M34.485 41.5122L15.4142 8.46374" stroke="#AEB1BF" stroke-width="2" stroke-linecap="square"/>
<path d="M32.3194 45.2451L17.5814 4.73195" stroke="#AEB1BF" stroke-width="2" stroke-linecap="square"/>
<path d="M26.9288 36.2119L22.9727 13.7644" stroke="#AEB1BF" stroke-width="2" stroke-linecap="square"/>
<path d="M24.9503 45.8276L24.9503 4.14933" stroke="#AEB1BF" stroke-width="2" stroke-linecap="square"/>
<path d="M13.0092 45.6826L36.8927 4.29397" stroke="#AEB1BF" stroke-width="2" stroke-linecap="square"/>
<path d="M22.5352 26.3833L27.3655 23.5931" stroke="#AEB1BF" stroke-width="2" stroke-linecap="square"/>
<path d="M11.5619 29.8638L38.3383 20.113" stroke="#AEB1BF" stroke-width="2" stroke-linecap="square"/>
<path d="M17.4243 26.3164L32.4771 23.6608" stroke="#AEB1BF" stroke-width="2" stroke-linecap="square"/>
<path d="M4.90623 24.9885L44.9936 24.9885" stroke="#AEB1BF" stroke-width="2" stroke-linecap="square"/>
<path d="M20.2721 24.1631L29.6302 25.814" stroke="#AEB1BF" stroke-width="2" stroke-linecap="square"/>
<path d="M18.9583 17.8435L30.9432 32.1339" stroke="#AEB1BF" stroke-width="2" stroke-linecap="square"/>
<path d="M12.4868 3.39014L37.4138 46.5871" stroke="#AEB1BF" stroke-width="2" stroke-linecap="square"/>
<path d="M24.9503 5.09839V44.8784" stroke="#AEB1BF" stroke-width="2" stroke-linecap="square"/>
<path d="M28.6928 3.75488L21.2085 46.2227" stroke="#AEB1BF" stroke-width="2" stroke-linecap="square"/>
<path d="M29.6606 19.3718L20.2394 30.6054" stroke="#AEB1BF" stroke-width="2" stroke-linecap="square"/>
<path d="M35.4928 16.1377L14.4078 33.8392" stroke="#AEB1BF" stroke-width="2" stroke-linecap="square"/>
<path d="M44.4008 17.9055L5.50032 32.0714" stroke="#AEB1BF" stroke-width="2" stroke-linecap="square"/>
<path d="M43.5052 24.9885L6.39542 24.9885" stroke="#AEB1BF" stroke-width="2" stroke-linecap="square"/>
<path d="M65.8688 35.151H82.5955V30.5938H71.3933V9.00781H65.8688V35.151Z" fill="#AEB1BF"/>
<path d="M93.9286 35.534C99.8742 35.534 103.574 31.4619 103.574 25.4239C103.574 19.3477 99.8742 15.2883 93.9286 15.2883C87.9834 15.2883 84.2833 19.3477 84.2833 25.4239C84.2833 31.4619 87.9834 35.534 93.9286 35.534ZM93.954 31.3215C91.211 31.3215 89.8078 28.8067 89.8078 25.3857C89.8078 21.9646 91.211 19.437 93.954 19.437C96.6461 19.437 98.0498 21.9646 98.0498 25.3857C98.0498 28.8067 96.6461 31.3215 93.954 31.3215Z" fill="#AEB1BF"/>
<path d="M114.859 42.9123C120.46 42.9123 124.441 40.3592 124.441 35.3425V15.5437H119.044V18.8371H118.84C118.112 17.2414 116.518 15.2883 113.239 15.2883C108.939 15.2883 105.303 18.6328 105.303 25.309C105.303 31.8321 108.837 34.8702 113.252 34.8702C116.377 34.8702 118.125 33.3001 118.84 31.6789H119.069V35.2659C119.069 37.9594 117.347 39.0061 114.987 39.0061C112.588 39.0061 111.376 37.9594 110.929 36.7722L105.903 37.4488C106.553 40.538 109.577 42.9123 114.859 42.9123ZM114.974 30.7853C112.307 30.7853 110.853 28.6663 110.853 25.2835C110.853 21.9518 112.282 19.6157 114.974 19.6157C117.615 19.6157 119.095 21.8497 119.095 25.2835C119.095 28.7429 117.589 30.7853 114.974 30.7853Z" fill="#AEB1BF"/>
<path d="M136.543 35.534C142.489 35.534 146.189 31.4619 146.189 25.4239C146.189 19.3477 142.489 15.2883 136.543 15.2883C130.597 15.2883 126.898 19.3477 126.898 25.4239C126.898 31.4619 130.597 35.534 136.543 35.534ZM136.568 31.3215C133.825 31.3215 132.422 28.8067 132.422 25.3857C132.422 21.9646 133.825 19.437 136.568 19.437C139.26 19.437 140.664 21.9646 140.664 25.3857C140.664 28.8067 139.26 31.3215 136.568 31.3215Z" fill="#AEB1BF"/>
<path d="M148.645 35.1511H154.08V15.5437H148.645V35.1511ZM151.376 13.0162C152.996 13.0162 154.323 11.778 154.323 10.2589C154.323 8.75262 152.996 7.5144 151.376 7.5144C149.768 7.5144 148.441 8.75262 148.441 10.2589C148.441 11.778 149.768 13.0162 151.376 13.0162Z" fill="#AEB1BF"/>
<path d="M157.356 42.5038H162.792V32.0108H162.958C163.71 33.6447 165.356 35.4701 168.52 35.4701C172.986 35.4701 176.469 31.9342 176.469 25.3729C176.469 18.6328 172.833 15.2883 168.533 15.2883C165.254 15.2883 163.685 17.2414 162.958 18.8371H162.715V15.5437H157.356V42.5038ZM162.677 25.3474C162.677 21.8497 164.157 19.6157 166.798 19.6157C169.49 19.6157 170.919 21.9518 170.919 25.3474C170.919 28.7684 169.464 31.1427 166.798 31.1427C164.182 31.1427 162.677 28.845 162.677 25.3474Z" fill="#AEB1BF"/>
<path d="M195.32 21.1348C194.835 17.5223 191.927 15.2883 186.976 15.2883C181.962 15.2883 178.658 17.6116 178.67 21.3901C178.658 24.3261 180.507 26.2282 184.335 26.994L187.729 27.6706C189.439 28.0153 190.217 28.6407 190.242 29.6237C190.217 30.7853 188.954 31.615 187.053 31.615C185.113 31.615 183.825 30.7853 183.493 29.1897L178.147 29.4705C178.658 33.2235 181.847 35.534 187.04 35.534C192.118 35.534 195.754 32.9426 195.767 29.0748C195.754 26.2409 193.904 24.5431 190.102 23.7645L186.555 23.0496C184.73 22.6539 184.054 22.0284 184.067 21.0838C184.054 19.9093 185.381 19.1434 187.065 19.1434C188.954 19.1434 190.076 20.1774 190.344 21.4412L195.32 21.1348Z" fill="#AEB1BF"/>
<path d="M210.679 26.8026C210.692 29.4323 208.892 30.8109 206.941 30.8109C204.886 30.8109 203.559 29.3684 203.546 27.0579V15.5437H198.111V28.0281C198.124 32.6108 200.803 35.4064 204.746 35.4064C207.693 35.4064 209.811 33.8873 210.692 31.5896H210.896V35.1511H216.114V15.5437H210.679V26.8026Z" fill="#AEB1BF"/>
<path d="M219.383 35.151H224.819V23.3815C224.819 21.2114 226.197 19.769 228.009 19.769C229.795 19.769 230.994 20.9944 230.994 22.9219V35.151H236.263V23.1773C236.263 21.1476 237.424 19.769 239.402 19.769C241.137 19.769 242.438 20.854 242.438 23.0368V35.151H247.861V21.9646C247.861 17.7137 245.335 15.2883 241.686 15.2883C238.815 15.2883 236.582 16.7564 235.779 19.003H235.574C234.949 16.7308 232.946 15.2883 230.254 15.2883C227.613 15.2883 225.61 16.6925 224.793 19.003H224.563V15.5437H219.383V35.151Z" fill="#AEB1BF"/>
</g>
<defs>
<clipPath id="clip0_1050_95741">
<rect width="251" height="49.9262" fill="white" transform="translate(0 0.0253906)"/>
</clipPath>
</defs>
</svg>
