<svg width="57" height="54" viewBox="0 0 57 54" fill="none" xmlns="http://www.w3.org/2000/svg">
<g clip-path="url(#clip0_1050_95643)">
<path d="M38.4801 40.6708H35.313V36.6196C30.9821 37.9538 26.3272 37.9458 22.0982 36.6989V40.6708H18.658C17.1947 40.6708 16.4538 42.3248 17.4819 43.2989L27.3698 52.663C28.0149 53.2743 29.0708 53.2747 29.7187 52.665L39.6529 43.301C40.685 42.3298 39.9461 40.6708 38.4801 40.6708Z" fill="#5367FF"/>
<path d="M12.816 3.76416C5.77034 4.86212 0.383118 10.5989 0.383118 17.4881C0.383118 24.3784 5.77034 30.1131 12.8149 31.211C5.0879 23.4683 5.09275 11.5031 12.816 3.76416Z" fill="#5367FF"/>
<path d="M44.3333 3.76416C52.0463 11.4928 52.0723 23.4574 44.3344 31.211C51.3789 30.1131 56.7661 24.3784 56.7661 17.4881C56.7661 10.5989 51.3789 4.86212 44.3333 3.76416Z" fill="#5367FF"/>
<path d="M28.5746 0.436523C18.5123 0.436523 10.3259 8.086 10.3259 17.4885C10.3259 26.891 18.5123 34.5405 28.5746 34.5405C38.637 34.5405 46.8234 26.891 46.8234 17.4885C46.8234 8.086 38.637 0.436523 28.5746 0.436523ZM27.2467 15.1715L31.3536 17.0479C32.7142 17.6695 33.5934 18.9857 33.5934 20.4009C33.5934 22.2388 32.164 23.7696 30.2897 24.0763V25.2189C30.2897 26.0714 29.5501 26.7625 28.6379 26.7625C27.7256 26.7625 26.986 26.0714 26.986 25.2189V24.1333H25.2185C24.3063 24.1333 23.5667 23.4423 23.5667 22.5898C23.5667 21.7374 24.3063 21.0463 25.2185 21.0463H29.599C30.3282 21.0463 30.5573 20.1202 29.9025 19.8211L25.7956 17.9447C22.367 16.3782 22.9936 11.4459 26.8595 10.8132V9.77358C26.8595 8.92114 27.5991 8.23006 28.5113 8.23006C29.4236 8.23006 30.1632 8.92114 30.1632 9.77358V10.7563H31.9417C32.8539 10.7563 33.5935 11.4474 33.5935 12.2998C33.5935 13.1522 32.8539 13.8433 31.9417 13.8433H27.5502C26.7786 13.8433 26.6119 14.8814 27.2467 15.1715Z" fill="#5367FF"/>
</g>
<defs>
<clipPath id="clip0_1050_95643">
<rect width="56.383" height="52.6854" fill="white" transform="translate(0.383118 0.436523)"/>
</clipPath>
</defs>
</svg>
