<svg width="20" height="21" viewBox="0 0 20 21" fill="none" xmlns="http://www.w3.org/2000/svg">
<path fill-rule="evenodd" clip-rule="evenodd" d="M17.5001 10.7207C17.5001 10.2607 17.1276 9.88737 16.6668 9.88737C16.206 9.88737 15.8335 10.2607 15.8335 10.7207V12.6349L12.2993 8.51153C12.036 8.2032 11.5876 8.12987 11.2376 8.33987L7.68347 10.4724L3.97431 6.0207C3.67931 5.6682 3.15514 5.6182 2.79931 5.91403C2.44681 6.2082 2.39847 6.73403 2.69264 7.08737L6.85931 12.0874C7.12347 12.4032 7.57764 12.4807 7.92931 12.2682L11.4918 10.1307L14.8551 14.054H12.5001C12.0393 14.054 11.6668 14.4274 11.6668 14.8874C11.6668 15.3474 12.0393 15.7207 12.5001 15.7207H16.6668C16.7701 15.7207 16.8726 15.6982 16.9701 15.659C17.011 15.6432 17.0426 15.6165 17.0801 15.5957C17.1235 15.5699 17.1701 15.554 17.2085 15.5199C17.2168 15.5132 17.2201 15.5032 17.2276 15.4957C17.2735 15.454 17.3051 15.4032 17.3401 15.3524C17.3676 15.3124 17.4001 15.2774 17.4193 15.234C17.4401 15.1899 17.4468 15.1407 17.4585 15.0932C17.4743 15.0349 17.4918 14.9782 17.4935 14.9182C17.4943 14.9074 17.5001 14.8982 17.5001 14.8874V10.7207Z" fill="#DC2626"/>
</svg>
