<svg width="16" height="11" viewBox="0 0 16 11" fill="none" xmlns="http://www.w3.org/2000/svg">
<path fill-rule="evenodd" clip-rule="evenodd" d="M15.4937 1.5232C15.4921 1.4632 15.4746 1.40654 15.4587 1.34904C15.4462 1.3007 15.4404 1.25154 15.4196 1.20737C15.4004 1.16404 15.3679 1.12904 15.3396 1.08904C15.3046 1.0382 15.2729 0.98737 15.2279 0.945703C15.2204 0.938203 15.2171 0.928203 15.2087 0.921536C15.1787 0.895703 15.1421 0.886536 15.1096 0.865703C15.0596 0.833203 15.0104 0.79987 14.9537 0.778203C14.8979 0.758203 14.8429 0.753203 14.7854 0.74487C14.7454 0.739036 14.7096 0.720703 14.6671 0.720703H10.5004C10.0396 0.720703 9.66708 1.09404 9.66708 1.55404C9.66708 2.01404 10.0396 2.38737 10.5004 2.38737H12.8554L9.49208 6.3107L5.92875 4.1732C5.57625 3.95987 5.12291 4.0382 4.85958 4.35404L0.692913 9.35404C0.398746 9.70737 0.446246 10.2332 0.79958 10.5274C0.956246 10.6574 1.14458 10.7207 1.33291 10.7207C1.57208 10.7207 1.80875 10.619 1.97375 10.4207L5.68375 5.96904L9.23791 8.10237C9.58708 8.31154 10.0354 8.2382 10.2996 7.92987L13.8337 3.80654V5.7207C13.8337 6.1807 14.2062 6.55404 14.6671 6.55404C15.1279 6.55404 15.5004 6.1807 15.5004 5.7207V1.55404C15.5004 1.5432 15.4946 1.53404 15.4937 1.5232" fill="#03A66D"/>
</svg>
