<svg width="24" height="25" viewBox="0 0 24 25" fill="none" xmlns="http://www.w3.org/2000/svg">
<path fill-rule="evenodd" clip-rule="evenodd" d="M12 14.221C11.173 14.221 10.5 13.548 10.5 12.721C10.5 12.7079 10.503 12.6951 10.506 12.6823L10.506 12.6822C10.5088 12.6706 10.5115 12.6589 10.512 12.647L12.074 14.209C12.0621 14.2094 12.0504 14.2122 12.0387 14.2149C12.0259 14.2179 12.0131 14.221 12 14.221ZM4.70725 4.01395C4.31625 3.62295 3.68425 3.62295 3.29325 4.01395C2.90225 4.40495 2.90225 5.03695 3.29325 5.42795L8.92325 11.058C8.64725 11.567 8.50025 12.132 8.50025 12.721C8.50025 14.651 10.0702 16.221 12.0002 16.221C12.5892 16.221 13.1543 16.074 13.6632 15.798L19.2932 21.428C19.4882 21.623 19.7442 21.721 20.0002 21.721C20.2563 21.721 20.5123 21.623 20.7073 21.428C21.0983 21.037 21.0983 20.405 20.7073 20.014L4.70725 4.01395ZM12.2198 17.7188C7.91475 17.8188 5.10475 14.1357 4.17275 12.7168C4.62975 12.0028 5.39575 10.9567 6.45575 10.0057L5.04475 8.59375C3.52275 9.98275 2.54675 11.5008 2.13275 12.2238C1.95575 12.5317 1.95575 12.9108 2.13275 13.2188C2.76175 14.3158 6.16175 19.7207 12.0247 19.7207C12.1067 19.7207 12.1888 19.7197 12.2708 19.7177C13.4548 19.6877 14.5268 19.4318 15.4978 19.0478L13.9178 17.4677C13.3828 17.6097 12.8198 17.7037 12.2198 17.7188ZM11.73 5.72435C17.705 5.53735 21.23 11.1114 21.868 12.2234C22.044 12.5314 22.044 12.9104 21.868 13.2184C21.453 13.9414 20.477 15.4594 18.955 16.8484L17.544 15.4364C18.604 14.4854 19.371 13.4394 19.827 12.7254C18.895 11.3064 16.072 7.61535 11.781 7.72335C11.181 7.73835 10.618 7.83235 10.082 7.97435L8.50195 6.39435C9.47395 6.01035 10.545 5.75435 11.73 5.72435Z" fill="#9295A6"/>
</svg>
