<svg width="50" height="47" viewBox="0 0 50 47" fill="none" xmlns="http://www.w3.org/2000/svg">
<path d="M27.3022 41.8901H41.398V46.8294H27.3022V41.8901Z" fill="#5367FF"/>
<path d="M49.1154 17.8771C49.1129 17.5001 48.9725 17.1353 48.7176 16.8431C48.4626 16.551 48.1084 16.3491 47.7138 16.271C47.2503 16.2041 46.7769 16.3023 46.3874 16.5463C45.9979 16.7903 45.7207 17.1621 45.6109 17.5881L43.1873 26.026C43.465 26.7728 43.4522 27.5871 43.1511 28.3259C42.8499 29.0647 42.2797 29.6806 41.5407 30.0655L36.6072 32.722C36.5069 32.7761 36.3962 32.8111 36.2814 32.8252C36.1666 32.8393 36.0499 32.8321 35.9381 32.804C35.8262 32.776 35.7214 32.7276 35.6296 32.6617C35.5378 32.5958 35.4607 32.5136 35.4029 32.4199C35.345 32.3262 35.3075 32.2227 35.2925 32.1154C35.2774 32.0081 35.2851 31.8991 35.3151 31.7947C35.3452 31.6902 35.3969 31.5922 35.4674 31.5064C35.538 31.4206 35.6259 31.3486 35.7262 31.2946L40.6597 28.6381C41.0705 28.4296 41.3815 28.0836 41.5304 27.6696C41.6793 27.2556 41.655 26.8043 41.4623 26.4063C41.3168 26.1342 41.0924 25.9057 40.8146 25.7469C40.5369 25.5881 40.2171 25.5054 39.8915 25.5082C39.5823 25.5083 39.2786 25.5841 39.0105 25.728L32.9934 29.0266C32.0671 29.5365 31.2989 30.2629 30.7644 31.1345C30.23 32.006 29.9476 32.9926 29.9452 33.9972V40.2437H38.755V39.2887C38.7546 38.6945 38.8918 38.1072 39.1573 37.5672C39.4228 37.0272 39.8104 36.5473 40.2932 36.1606L44.4013 32.8677C44.8062 32.5444 45.0966 32.1138 45.2338 31.6329L49.0573 18.3018C49.0966 18.1633 49.1162 18.0204 49.1154 17.8771Z" fill="#5367FF"/>
<path d="M1.60485 16.271C1.21019 16.3492 0.855983 16.5511 0.601028 16.8432C0.346073 17.1353 0.205697 17.5002 0.2032 17.8771C0.202089 18.0216 0.221644 18.1656 0.261346 18.3052L4.08482 31.6412C4.22168 32.1222 4.51207 32.553 4.91735 32.876L9.02538 36.1688C9.50711 36.5547 9.89396 37.0332 10.1594 37.5717C10.4249 38.1102 10.5628 38.6959 10.5636 39.2888V40.2437H19.3734V33.9972C19.3713 32.9929 19.0892 32.0065 18.5551 31.1351C18.0209 30.2637 17.253 29.5373 16.327 29.0275L10.2993 25.724C10.0325 25.582 9.73061 25.5076 9.42358 25.5083C9.09739 25.5066 8.77726 25.5906 8.49969 25.7507C8.22212 25.9108 7.99827 26.1406 7.85367 26.4138C7.66107 26.8118 7.63687 27.2632 7.78592 27.6772C7.93497 28.0913 8.24624 28.4372 8.65713 28.6455L13.5906 31.302C13.6909 31.3561 13.7789 31.4281 13.8494 31.5139C13.9199 31.5997 13.9717 31.6976 14.0017 31.8021C14.0317 31.9066 14.0394 32.0156 14.0244 32.1229C14.0093 32.2302 13.9718 32.3336 13.914 32.4274C13.8561 32.5211 13.7791 32.6032 13.6872 32.6692C13.5954 32.7351 13.4906 32.7834 13.3788 32.8115C13.2669 32.8395 13.1503 32.8467 13.0355 32.8327C12.9207 32.8186 12.81 32.7835 12.7097 32.7295L7.77614 30.073C7.03692 29.6881 6.46659 29.072 6.16543 28.333C5.86428 27.594 5.85158 26.7795 6.12958 26.0327L3.70776 17.5915C3.5981 17.1652 3.32111 16.7929 2.93166 16.5483C2.54221 16.3038 2.06868 16.2048 1.60485 16.271Z" fill="#5367FF"/>
<path d="M7.92058 41.8901H22.0163V46.8294H7.92058V41.8901Z" fill="#5367FF"/>
<path d="M26.2539 1.57249L24.6593 0.82666L23.0735 1.56755C21.3982 2.35402 19.5414 2.74324 17.6671 2.70089C15.7927 2.65854 13.9583 2.18592 12.3255 1.3247V10.2788C12.3217 13.7112 13.3182 17.0798 15.2082 20.023C17.0982 22.9663 19.8102 25.373 23.0533 26.985L24.6593 27.786L26.2654 26.985C29.5085 25.3732 32.2207 22.9665 34.1107 20.0232C36.0007 17.0799 36.9972 13.7112 36.9931 10.2788V1.3247C35.3619 2.18535 33.5293 2.65809 31.6566 2.7013C29.7839 2.74451 27.9286 2.35686 26.2539 1.57249ZM34.1643 4.06846C34.2928 4.04253 34.4259 4.04382 34.5539 4.07224C34.6818 4.10066 34.8013 4.15549 34.9037 4.2327C35.006 4.30991 35.0885 4.40754 35.1452 4.51844C35.2018 4.62933 35.2312 4.75067 35.2311 4.87356V10.2788C35.2349 13.4127 34.3251 16.4884 32.5995 19.1757C30.8738 21.863 28.3975 24.0604 25.4363 25.532L25.0734 25.7131C24.9458 25.7767 24.8035 25.8099 24.6589 25.8099C24.5143 25.8099 24.3719 25.7767 24.2444 25.7131L23.8823 25.532C20.9211 24.0604 18.4448 21.863 16.7192 19.1757C14.9935 16.4884 14.0838 13.4127 14.0875 10.2788V4.87274C14.0874 4.74985 14.1168 4.62851 14.1735 4.51761C14.2302 4.40672 14.3127 4.30908 14.415 4.23187C14.5173 4.15467 14.6368 4.09984 14.7648 4.07142C14.8927 4.043 15.0258 4.04171 15.1544 4.06764C18.0953 4.65337 21.1619 4.29185 23.855 3.04192L24.262 2.85176C24.385 2.79386 24.5207 2.7637 24.6584 2.7637C24.7961 2.7637 24.9319 2.79386 25.0549 2.85176L25.4707 3.04521C28.1622 4.2925 31.2258 4.65309 34.1643 4.06846Z" fill="#5367FF"/>
<path d="M24.6593 4.50781L24.6461 4.5144C21.9251 5.77822 18.8593 6.24558 15.8495 5.85541V10.2785C15.8462 13.1046 16.6639 15.8786 18.2154 18.3045C19.767 20.7304 21.9941 22.7173 24.6593 24.0533C27.3245 22.7173 29.5517 20.7304 31.1032 18.3045C32.6547 15.8786 33.4725 13.1046 33.4692 10.2785V5.85623C30.4612 6.24673 27.397 5.77963 24.6778 4.51604L24.6593 4.50781ZM30.8914 8.90293C31.0566 9.0573 31.1493 9.26665 31.1493 9.48494C31.1493 9.70322 31.0566 9.91257 30.8914 10.0669L23.5229 16.9523C23.3576 17.1066 23.1336 17.1933 22.9 17.1933C22.6664 17.1933 22.4424 17.1066 22.2771 16.9523L18.9039 13.8002C18.7434 13.6449 18.6546 13.437 18.6566 13.2212C18.6586 13.0053 18.7512 12.7988 18.9146 12.6462C19.0779 12.4936 19.2989 12.407 19.5299 12.4051C19.7609 12.4033 19.9834 12.4862 20.1496 12.6362L22.8974 15.2062L29.6431 8.90293C29.8083 8.7486 30.0323 8.6619 30.2659 8.6619C30.4995 8.6619 30.7236 8.7486 30.8888 8.90293H30.8914Z" fill="#5367FF"/>
</svg>
