<svg width="24" height="25" viewBox="0 0 24 25" fill="none" xmlns="http://www.w3.org/2000/svg">
<path fill-rule="evenodd" clip-rule="evenodd" d="M5 11.7207C5 8.4117 7.691 5.7207 11 5.7207C14.309 5.7207 17 8.4117 17 11.7207C17 15.0297 14.309 17.7207 11 17.7207C7.691 17.7207 5 15.0297 5 11.7207ZM20.707 20.0137L17.312 16.6177C18.365 15.2637 19 13.5667 19 11.7207C19 7.3097 15.411 3.7207 11 3.7207C6.589 3.7207 3 7.3097 3 11.7207C3 16.1317 6.589 19.7207 11 19.7207C12.846 19.7207 14.543 19.0857 15.897 18.0327L19.293 21.4277C19.488 21.6227 19.744 21.7207 20 21.7207C20.256 21.7207 20.512 21.6227 20.707 21.4277C21.098 21.0367 21.098 20.4047 20.707 20.0137Z" fill="#9295A6"/>
</svg>
