<svg width="24" height="25" viewBox="0 0 24 25" fill="none" xmlns="http://www.w3.org/2000/svg">
<path fill-rule="evenodd" clip-rule="evenodd" d="M11 19.7207C10.448 19.7207 10 19.2727 10 18.7207C10 18.1687 10.448 17.7207 11 17.7207C11.552 17.7207 12 18.1687 12 18.7207C12 19.2727 11.552 19.7207 11 19.7207ZM21 17.7207H13.815C13.401 16.5597 12.302 15.7207 11 15.7207C9.698 15.7207 8.599 16.5597 8.185 17.7207H3C2.447 17.7207 2 18.1677 2 18.7207C2 19.2737 2.447 19.7207 3 19.7207H8.185C8.599 20.8817 9.698 21.7207 11 21.7207C12.302 21.7207 13.401 20.8817 13.815 19.7207H21C21.553 19.7207 22 19.2737 22 18.7207C22 18.1677 21.553 17.7207 21 17.7207ZM19 13.7207C18.448 13.7207 18 13.2727 18 12.7207C18 12.1687 18.448 11.7207 19 11.7207C19.552 11.7207 20 12.1687 20 12.7207C20 13.2727 19.552 13.7207 19 13.7207ZM19 9.7207C17.698 9.7207 16.599 10.5597 16.185 11.7207H3C2.447 11.7207 2 12.1677 2 12.7207C2 13.2737 2.447 13.7207 3 13.7207H16.185C16.599 14.8817 17.698 15.7207 19 15.7207C20.654 15.7207 22 14.3747 22 12.7207C22 11.0667 20.654 9.7207 19 9.7207ZM7 5.7207C7.552 5.7207 8 6.1687 8 6.7207C8 7.2727 7.552 7.7207 7 7.7207C6.448 7.7207 6 7.2727 6 6.7207C6 6.1687 6.448 5.7207 7 5.7207ZM3 7.7207H4.185C4.599 8.8817 5.698 9.7207 7 9.7207C8.302 9.7207 9.401 8.8817 9.815 7.7207H21C21.553 7.7207 22 7.2737 22 6.7207C22 6.1677 21.553 5.7207 21 5.7207H9.815C9.401 4.5597 8.302 3.7207 7 3.7207C5.698 3.7207 4.599 4.5597 4.185 5.7207H3C2.447 5.7207 2 6.1677 2 6.7207C2 7.2737 2.447 7.7207 3 7.7207Z" fill="#9295A6"/>
</svg>
