<svg width="150" height="136" viewBox="0 0 150 136" fill="none" xmlns="http://www.w3.org/2000/svg">
<path d="M148.798 75.1145C151.826 55.6875 136.198 45.1741 114.634 38.2033L121.661 11.8055L104.7 7.80582L97.916 33.518C93.4335 32.4895 88.8299 31.461 84.2263 30.5468L91.0106 4.72037L74.05 0.720703L67.1446 27.0042C63.389 26.2043 59.7546 25.4043 56.2413 24.6044V24.4901L32.7388 19.0049L28.2564 36.1463C28.2564 36.1463 40.8557 38.8889 40.6134 39.0032C47.5188 40.6031 48.7302 44.9456 48.4879 48.3738L40.4922 78.4285C40.9768 78.5427 41.5825 78.657 42.3094 78.9998C41.7037 78.8856 41.098 78.7713 40.4922 78.5427L29.3467 120.596C28.4987 122.539 26.318 125.51 21.5933 124.367C21.7144 124.596 9.23628 121.511 9.23628 121.511L0.755981 139.909L22.9259 145.166C27.0449 146.194 31.0427 147.108 35.0406 148.137L28.0141 174.763L44.9747 178.763L52.0012 152.365C56.6048 153.508 61.2084 154.651 65.5697 155.679L58.6643 181.963L75.6249 185.962L82.6514 159.336C111.727 164.478 133.533 162.421 142.619 137.624C150.009 117.739 142.256 106.198 126.991 98.6553C138.258 96.2555 146.617 89.2847 148.798 75.1145ZM109.91 126.539C104.7 146.423 69.0829 135.681 57.574 132.938L66.9023 97.6269C78.4113 100.369 115.482 105.74 109.91 126.539ZM115.24 74.7716C110.394 92.9415 80.8342 83.6852 71.2636 81.3997L79.7439 49.4023C89.3145 51.6879 120.207 55.9161 115.24 74.7716Z" fill="url(#paint0_linear_1050_95710)"/>
<defs>
<linearGradient id="paint0_linear_1050_95710" x1="74.9648" y1="0.720703" x2="74.9648" y2="185.962" gradientUnits="userSpaceOnUse">
<stop stop-color="white" stop-opacity="0.16"/>
<stop offset="1" stop-color="white" stop-opacity="0"/>
</linearGradient>
</defs>
</svg>
