<svg width="24" height="25" viewBox="0 0 24 25" fill="none" xmlns="http://www.w3.org/2000/svg">
<path fill-rule="evenodd" clip-rule="evenodd" d="M6.87109 13.0206H12.0001C12.2841 13.0206 12.5551 13.1416 12.7441 13.3526C12.9331 13.5636 13.0241 13.8456 12.9941 14.1276L12.5451 18.2775L17.1291 11.4206H12.0001C11.7161 11.4206 11.4451 11.2996 11.2561 11.0886C11.0661 10.8776 10.9751 10.5956 11.0061 10.3136L11.4551 6.16455L6.87109 13.0206ZM11.1109 23.2204C10.9969 23.2204 10.8819 23.2014 10.7689 23.1604C10.3369 23.0024 10.0669 22.5704 10.1169 22.1134L10.8859 15.0204H4.99987C4.63087 15.0204 4.29187 14.8174 4.11787 14.4924C3.94387 14.1664 3.96387 13.7714 4.16887 13.4644L12.0579 1.66544C12.3129 1.28144 12.7969 1.12344 13.2299 1.28144C13.6629 1.43844 13.9329 1.87144 13.8829 2.32844L13.1139 9.42044H18.9999C19.3689 9.42044 19.7079 9.62444 19.8819 9.94944C20.0559 10.2754 20.0359 10.6694 19.8309 10.9764L11.9419 22.7764C11.7529 23.0604 11.4369 23.2204 11.1109 23.2204Z" fill="#9295A6"/>
</svg>
