<svg width="40" height="41" viewBox="0 0 40 41" fill="none" xmlns="http://www.w3.org/2000/svg">
<g clip-path="url(#clip0_1050_95454)">
<path d="M38.8276 38.3771H37.5776V15.2524C37.5776 14.6052 37.0529 14.0806 36.4058 14.0806H31.7183C31.0711 14.0806 30.5465 14.6052 30.5465 15.2524V38.3771H28.2027V23.0648C28.2027 22.4176 27.6781 21.893 27.0309 21.893H22.3434C21.6963 21.893 21.1716 22.4176 21.1716 23.0648V38.3771H18.8279V27.3616C18.8279 26.7145 18.3032 26.1898 17.656 26.1898H12.9686C12.3214 26.1898 11.7967 26.7145 11.7967 27.3616V38.3771H9.453V30.1741C9.453 29.5269 8.92832 29.0022 8.28114 29.0022H3.5937C2.94652 29.0022 2.42184 29.5269 2.42184 30.1741V38.3771H1.17186C0.52468 38.3771 0 38.9018 0 39.549C0 40.1961 0.52468 40.7208 1.17186 40.7208H38.8276C39.4748 40.7208 39.9995 40.1961 39.9995 39.549C39.9995 38.9018 39.4748 38.3771 38.8276 38.3771Z" fill="#5367FF"/>
<path d="M1.17186 25.9006C8.48566 25.9006 16.417 23.2739 23.5048 18.5044C29.0559 14.7689 33.6833 9.99683 36.5576 5.11042L37.6957 9.35778C37.836 9.88136 38.5135 10.3337 39.1309 10.1864C39.7605 10.0362 40.127 9.37629 39.9595 8.75115L38.0406 1.58953C37.873 0.964458 37.2307 0.59337 36.6054 0.760946L29.4437 2.6799C28.8186 2.8474 28.4477 3.48997 28.6152 4.11512C28.7827 4.74027 29.425 5.11135 30.0504 4.9437L34.664 3.70747C31.9824 8.36725 27.5506 12.9569 22.1963 16.5599C15.4911 21.072 8.0245 23.5569 1.17186 23.5569C0.52468 23.5569 0 24.0816 0 24.7287C0 25.3759 0.52468 25.9006 1.17186 25.9006Z" fill="#5367FF"/>
</g>
<defs>
<clipPath id="clip0_1050_95454">
<rect width="40" height="40" fill="white" transform="translate(0 0.720703)"/>
</clipPath>
</defs>
</svg>
