<svg width="126" height="126" viewBox="0 0 126 126" fill="none" xmlns="http://www.w3.org/2000/svg">
<rect x="0.5" y="0.720703" width="125" height="125" rx="62.5" fill="#D8D8D8"/>
<g clip-path="url(#clip0_1451_37057)">
<path d="M83.1429 45.8638H43.8571C40.8985 45.8638 38.5 48.2622 38.5 51.2209V76.2209C38.5 79.1795 40.8985 81.578 43.8571 81.578H83.1429C86.1015 81.578 88.5 79.1795 88.5 76.2209V51.2209C88.5 48.2622 86.1015 45.8638 83.1429 45.8638ZM84.9285 66.553L73.6911 55.3156C72.9938 54.6184 71.8634 54.6184 71.1661 55.3156L56.3572 70.1244L50.4768 64.244C49.7795 63.5468 48.6491 63.5468 47.9518 64.244L42.0714 70.1244V51.2209C42.0714 50.2347 42.8709 49.4352 43.8571 49.4352H83.1429C84.1291 49.4352 84.9286 50.2347 84.9286 51.2209V66.553H84.9285Z" fill="#7B7B7B"/>
<path d="M54.572 63.7204C57.5306 63.7204 59.9291 61.3219 59.9291 58.3632C59.9291 55.4046 57.5306 53.0061 54.572 53.0061C51.6133 53.0061 49.2148 55.4046 49.2148 58.3632C49.2148 61.3219 51.6133 63.7204 54.572 63.7204Z" fill="#7B7B7B"/>
</g>
<defs>
<clipPath id="clip0_1451_37057">
<rect width="50" height="50" fill="white" transform="translate(38.5 38.7207)"/>
</clipPath>
</defs>
</svg>
