<svg width="40" height="41" viewBox="0 0 40 41" fill="none" xmlns="http://www.w3.org/2000/svg">
<path d="M17.5 13.2202V10.7202H2.5C1.1225 10.7202 0 11.8427 0 13.2202V18.2202H18.0275C17.68 16.6927 17.5 15.0477 17.5 13.2202Z" fill="#5367FF"/>
<path d="M39.8975 23.2202C38.1925 25.8477 35.5925 28.0827 31.8675 30.2227C31.295 30.5502 30.65 30.7202 30 30.7202C29.35 30.7202 28.705 30.5502 28.14 30.2277C24.415 28.0827 21.815 25.8452 20.1075 23.2202H0V35.7202C0 37.1002 1.1225 38.2202 2.5 38.2202H37.5C38.88 38.2202 40 37.1002 40 35.7202V23.2202H39.8975ZM11.25 30.7202H6.25C5.56 30.7202 5 30.1602 5 29.4702C5 28.7802 5.56 28.2202 6.25 28.2202H11.25C11.94 28.2202 12.5 28.7802 12.5 29.4702C12.5 30.1602 11.94 30.7202 11.25 30.7202Z" fill="#5367FF"/>
<path d="M39.2425 7.07244L30.4925 3.32244C30.175 3.18744 29.8225 3.18744 29.505 3.32244L20.755 7.07244C20.2975 7.26744 20 7.71994 20 8.21994V13.2199C20 20.0974 22.5425 24.1174 29.3775 28.0549C29.57 28.1649 29.785 28.2199 30 28.2199C30.215 28.2199 30.43 28.1649 30.6225 28.0549C37.4575 24.1274 40 20.1074 40 13.2199V8.21994C40 7.71994 39.7025 7.26744 39.2425 7.07244ZM34.7275 12.7524L29.7275 19.0024C29.4875 19.2974 29.1275 19.4699 28.75 19.4699C28.7325 19.4699 28.7125 19.4699 28.6975 19.4699C28.3 19.4524 27.9325 19.2474 27.71 18.9149L25.21 15.1649C24.8275 14.5899 24.9825 13.8149 25.5575 13.4324C26.1275 13.0524 26.905 13.2024 27.29 13.7799L28.8425 16.1074L32.7725 11.1924C33.205 10.6549 33.9925 10.5699 34.53 10.9974C35.07 11.4249 35.155 12.2124 34.7275 12.7524Z" fill="#5367FF"/>
</svg>
