<svg width="24" height="25" viewBox="0 0 24 25" fill="none" xmlns="http://www.w3.org/2000/svg">
<path fill-rule="evenodd" clip-rule="evenodd" d="M15.4506 1.62337C16.5126 1.31992 17.6196 1.9349 17.923 2.99697C17.9741 3.17565 18 3.36058 18 3.54641V5.22068H20C21.1046 5.22068 22 6.11611 22 7.22068V19.2207C22 20.3253 21.1046 21.2207 20 21.2207H4C2.89543 21.2207 2 20.3253 2 19.2207H2.0267C2.00895 19.1131 2 19.0042 2 18.895V6.97498C2 6.08202 2.59195 5.29725 3.45056 5.05194L15.4506 1.62337ZM10.1401 19.2207H20V11.2207H18V15.4664C18 16.3593 17.408 17.1441 16.5494 17.3894L10.1401 19.2207ZM18 7.22068H20V9.22068H18V7.22068ZM4 6.97496V18.8949L16 15.4664V3.54639L4 6.97496ZM14 9.22068C14 9.77297 13.5523 10.2207 13 10.2207C12.4477 10.2207 12 9.77297 12 9.22068C12 8.6684 12.4477 8.22068 13 8.22068C13.5523 8.22068 14 8.6684 14 9.22068Z" fill="#9295A6"/>
</svg>
