<svg width="50" height="51" viewBox="0 0 50 51" fill="none" xmlns="http://www.w3.org/2000/svg">
<path d="M0 25.7207C0 11.9136 11.1929 0.720703 25 0.720703V0.720703C38.8071 0.720703 50 11.9136 50 25.7207V25.7207C50 39.5278 38.8071 50.7207 25 50.7207V50.7207C11.1929 50.7207 0 39.5278 0 25.7207V25.7207Z" fill="#5367FF"/>
<path d="M31.274 19.6901C31.2402 19.6078 31.1828 19.5373 31.109 19.4876C31.0352 19.4379 30.9483 19.4111 30.8593 19.4107H28.6057C28.5464 19.4103 28.4876 19.4217 28.4327 19.4441C28.3778 19.4665 28.3278 19.4996 28.2857 19.5414L25.32 22.5116C25.2781 22.5539 25.2282 22.5874 25.1733 22.6103C25.1184 22.6332 25.0595 22.6449 25 22.6449C24.9405 22.6449 24.8815 22.6332 24.8266 22.6103C24.7717 22.5874 24.7218 22.5539 24.6799 22.5116L21.7142 19.5414C21.6721 19.4996 21.6221 19.4665 21.5672 19.4441C21.5123 19.4217 21.4535 19.4103 21.3942 19.4107H19.1406C19.0516 19.4111 18.9647 19.4379 18.8909 19.4876C18.8171 19.5373 18.7597 19.6078 18.7259 19.6901C18.6914 19.7722 18.682 19.8626 18.6988 19.9501C18.7157 20.0375 18.758 20.118 18.8206 20.1814L23.4044 24.7652C23.6137 24.9751 23.8624 25.1416 24.1362 25.2552C24.41 25.3688 24.7035 25.4273 25 25.4273C25.2964 25.4273 25.5899 25.3688 25.8637 25.2552C26.1375 25.1416 26.3862 24.9751 26.5955 24.7652L31.1794 20.1814C31.2419 20.118 31.2843 20.0375 31.3011 19.9501C31.318 19.8626 31.3085 19.7722 31.274 19.6901Z" fill="white"/>
<path d="M31.1794 31.2601L26.5955 26.6762C26.3862 26.4664 26.1375 26.2999 25.8637 26.1863C25.5899 26.0726 25.2964 26.0142 25 26.0142C24.7035 26.0142 24.41 26.0726 24.1362 26.1863C23.8624 26.2999 23.6137 26.4664 23.4044 26.6762L18.8206 31.2601C18.758 31.3235 18.7157 31.404 18.6988 31.4914C18.682 31.5788 18.6914 31.6693 18.7259 31.7514C18.7597 31.8337 18.8171 31.9041 18.8909 31.9539C18.9647 32.0036 19.0516 32.0304 19.1406 32.0308H21.3942C21.4535 32.0312 21.5123 32.0198 21.5672 31.9974C21.6221 31.9749 21.6721 31.9419 21.7142 31.9001L24.6799 28.9299C24.7218 28.8876 24.7717 28.8541 24.8266 28.8312C24.8815 28.8083 24.9405 28.7965 25 28.7965C25.0595 28.7965 25.1184 28.8083 25.1733 28.8312C25.2282 28.8541 25.2781 28.8876 25.32 28.9299L28.2857 31.9001C28.3278 31.9419 28.3778 31.9749 28.4327 31.9974C28.4876 32.0198 28.5464 32.0312 28.6057 32.0308H30.8593C30.9483 32.0304 31.0352 32.0036 31.109 31.9539C31.1828 31.9041 31.2402 31.8337 31.274 31.7514C31.3085 31.6693 31.318 31.5788 31.3011 31.4914C31.2843 31.404 31.2419 31.3235 31.1794 31.2601Z" fill="white"/>
</svg>
