<svg width="14" height="16" viewBox="0 0 14 16" fill="none" xmlns="http://www.w3.org/2000/svg">
<path d="M4.98315 0.777026C4.67447 0.662498 4.31933 0.7261 4.08372 0.936265L0.241784 4.35555C-0.0805948 4.64223 -0.0805948 5.10751 0.241784 5.39418C0.564164 5.68109 1.08642 5.68109 1.40879 5.39418L3.84194 3.2287L3.84194 15.1662C3.84194 15.5719 4.21133 15.9007 4.66722 15.9007C5.12312 15.9007 5.49251 15.5719 5.49251 15.1662L5.49251 1.45558C5.49252 1.15838 5.29156 0.890594 4.98315 0.777026Z" fill="#9295A6"/>
<path d="M13.7429 11.2277C13.4205 10.9408 12.8983 10.9408 12.5759 11.2277L10.1428 13.3932L10.1428 1.45569C10.1428 1.04995 9.77337 0.721191 9.31748 0.721191C8.86158 0.721191 8.49219 1.04995 8.49219 1.45569L8.49219 15.1663C8.49219 15.4635 8.69313 15.7313 9.00154 15.8449C9.10363 15.8826 9.21109 15.9008 9.31721 15.9008C9.53213 15.9008 9.74328 15.8262 9.90098 15.6856L13.7429 12.2663C14.0653 11.9797 14.0653 11.5144 13.7429 11.2277Z" fill="#9295A6"/>
</svg>
